<svg xmlns="http://www.w3.org/2000/svg" viewBox="0 0 576 512"><!--! Font Awesome Pro 6.6.0 by @fontawesome - https://fontawesome.com License - https://fontawesome.com/license (Commercial License) Copyright 2024 Fonticons, Inc. --><path class="fa-secondary" style="fill:var(--fa-secondary-color,inherit);opacity:var(--fa-secondary-opacity,.4);" d="M0 32L0 96 0 416l0 64 64 0 448 0 64 0 0-64 0-320 0-64-64 0L64 32 0 32zM64 96l64 0 0 32 32 0 0-32 96 0 0 32 32 0 0-32 128 0 0 32 32 0 0-32 64 0 0 112-64 0 0-32-32 0 0 32-128 0 0-32-32 0 0 32-96 0 0-32-32 0 0 32-64 0L64 96zm0 144l64 0 0 24 32 0 0-24 96 0 0 24 32 0 0-24 128 0 0 96 32 0 0-96 64 0 0 176-64 0 0-32-32 0 0 32-128 0 0-32-32 0 0 32-96 0 0-32-32 0 0 32-64 0 0-176zm64 72l0 24 32 0 0-24-32 0zm128 0l0 24 32 0 0-24-32 0z"/><path class="fa-primary" style="fill:var(--fa-primary-color,inherit);opacity:var(--fa-primary-opacity,1);" d="M96 128l24 0 48 0 24 0 0 48-24 0-48 0-24 0 0-48zm128 0l24 0 48 0 24 0 0 48-24 0-48 0-24 0 0-48zm160 0l24 0 48 0 24 0 0 48-24 0-48 0-24 0 0-48zM96 264l24 0 48 0 24 0 0 48-24 0-48 0-24 0 0-48zm128 0l24 0 48 0 24 0 0 48-24 0-48 0-24 0 0-48zM96 336l24 0 48 0 24 0 0 48-24 0-48 0-24 0 0-48zm128 0l24 0 48 0 24 0 0 48-24 0-48 0-24 0 0-48zm160 0l24 0 48 0 24 0 0 48-24 0-48 0-24 0 0-48z"/></svg>