<svg xmlns="http://www.w3.org/2000/svg" viewBox="0 0 576 512"><!--! Font Awesome Pro 6.6.0 by @fontawesome - https://fontawesome.com License - https://fontawesome.com/license (Commercial License) Copyright 2024 Fonticons, Inc. --><path class="fa-secondary" style="fill:var(--fa-secondary-color,inherit);opacity:var(--fa-secondary-opacity,.4);" d="M0 32L0 480l576 0 0-448L0 32zM64 384l32-96 160 0 32 96L64 384zM240 192a64 64 0 1 1 -128 0 64 64 0 1 1 128 0zm112-32l16 0 128 0 16 0 0 32-16 0-128 0-16 0 0-32zm0 64l16 0 128 0 16 0 0 32-16 0-128 0-16 0 0-32zm0 64l16 0 128 0 16 0 0 32-16 0-128 0-16 0 0-32z"/><path class="fa-primary" style="fill:var(--fa-primary-color,inherit);opacity:var(--fa-primary-opacity,1);" d="M176 128a64 64 0 1 1 0 128 64 64 0 1 1 0-128zM64 384l32-96 160 0 32 96L64 384z"/></svg>