<svg xmlns="http://www.w3.org/2000/svg" viewBox="0 0 512 512"><!--! Font Awesome Pro 6.6.0 by @fontawesome - https://fontawesome.com License - https://fontawesome.com/license (Commercial License) Copyright 2024 Fonticons, Inc. --><path class="fa-secondary" style="fill:var(--fa-secondary-color,inherit);opacity:var(--fa-secondary-opacity,.4);" d="M32 0L448 0l0 512L32 512 32 0zm96 384l224 0-32-96-160 0-32 96zm48-192a64 64 0 1 0 128 0 64 64 0 1 0 -128 0z"/><path class="fa-primary" style="fill:var(--fa-primary-color,inherit);opacity:var(--fa-primary-opacity,1);" d="M512 64l-32 0 0 16 0 64 0 16 32 0 0-16 0-64 0-16zm0 128l-32 0 0 16 0 64 0 16 32 0 0-16 0-64 0-16zm0 144l0-16-32 0 0 16 0 64 0 16 32 0 0-16 0-64zM320 288l-160 0-32 96 224 0-32-96zm-80-32a64 64 0 1 0 0-128 64 64 0 1 0 0 128z"/></svg>