<svg xmlns="http://www.w3.org/2000/svg" viewBox="0 0 576 512"><!--! Font Awesome Pro 6.6.0 by @fontawesome - https://fontawesome.com License - https://fontawesome.com/license (Commercial License) Copyright 2024 Fonticons, Inc. --><path class="fa-secondary" style="fill:var(--fa-secondary-color,inherit);opacity:var(--fa-secondary-opacity,.4);" d="M0 128L0 288l64 0 0 96 64 0 0 96 64 0 64 0 0-64-64 0 0-32 192 0 0 32-64 0 0 64 64 0 64 0 0-96 64 0 0-96 64 0 0-160-64 0 0 96-32 0 0-64-64 0 0-32 0-32 64 0 0-64-64 0 0 32-64 0 0 64-128 0 0-64-64 0 0-32L96 32l0 64 64 0 0 32 0 32-64 0 0 64-32 0 0-96L0 128zm160 96l64 0 0 96-64 0 0-96zm192 0l64 0 0 96-64 0 0-96z"/><path class="fa-primary" style="fill:var(--fa-primary-color,inherit);opacity:var(--fa-primary-opacity,1);" d="M224 224l-64 0 0 96 64 0 0-96zm192 0l-64 0 0 96 64 0 0-96z"/></svg>