<svg xmlns="http://www.w3.org/2000/svg" viewBox="0 0 576 512"><!--! Font Awesome Pro 6.6.0 by @fontawesome - https://fontawesome.com License - https://fontawesome.com/license (Commercial License) Copyright 2024 Fonticons, Inc. --><path class="fa-secondary" style="fill:var(--fa-secondary-color,inherit);opacity:var(--fa-secondary-opacity,.4);" d="M0 96L0 512l128 0 32 0 96 0 0-128 64 0 0 128 96 0 32 0 128 0 0-320-128 0L448 0 128 0l0 96L0 96zm64 64l64 0 0 64-64 0 0-64zm0 96l64 0 0 64-64 0 0-64zm0 96l64 0 0 64-64 0 0-64zM192 64l64 0 0 64-64 0 0-64zm0 96l64 0 0 64-64 0 0-64zm0 96l64 0 0 64-64 0 0-64zM320 64l64 0 0 64-64 0 0-64zm0 96l64 0 0 64-64 0 0-64zm0 96l64 0 0 64-64 0 0-64zm128 0l64 0 0 64-64 0 0-64zm0 96l64 0 0 64-64 0 0-64z"/><path class="fa-primary" style="fill:var(--fa-primary-color,inherit);opacity:var(--fa-primary-opacity,1);" d="M384 64l-64 0 0 64 64 0 0-64zM64 320l64 0 0-64-64 0 0 64zm320 0l0-64-64 0 0 64 64 0zm128 96l0-64-64 0 0 64 64 0zm-384 0l0-64-64 0 0 64 64 0zm64-96l64 0 0-64-64 0 0 64zm0-256l0 64 64 0 0-64-64 0zM384 224l0-64-64 0 0 64 64 0zm64 96l64 0 0-64-64 0 0 64zM128 224l0-64-64 0 0 64 64 0zm64 0l64 0 0-64-64 0 0 64z"/></svg>