<svg xmlns="http://www.w3.org/2000/svg" viewBox="0 0 512 512"><!--! Font Awesome Pro 6.6.0 by @fontawesome - https://fontawesome.com License - https://fontawesome.com/license (Commercial License) Copyright 2024 Fonticons, Inc. --><path class="fa-secondary" style="fill:var(--fa-secondary-color,inherit);opacity:var(--fa-secondary-opacity,.4);" d="M0 416l0 64 32 0 96 0 32 0 0-64 0-64c0-53 43-96 96-96s96 43 96 96l0 64 0 64 32 0 96 0 32 0 0-64-32 0 0-224L32 192l0 224L0 416zM32 96l0 64 448 0 0-64L32 96z"/><path class="fa-primary" style="fill:var(--fa-primary-color,inherit);opacity:var(--fa-primary-opacity,1);" d="M32 32L0 32 0 96l32 0 448 0 32 0 0-64-32 0L32 32zM480 160L32 160l0 32 448 0 0-32z"/></svg>