<svg xmlns="http://www.w3.org/2000/svg" viewBox="0 0 512 512"><!--! Font Awesome Pro 6.6.0 by @fontawesome - https://fontawesome.com License - https://fontawesome.com/license (Commercial License) Copyright 2024 Fonticons, Inc. --><path class="fa-secondary" style="fill:var(--fa-secondary-color,inherit);opacity:var(--fa-secondary-opacity,.4);" d="M221.3 0l0 64 32 0c106 0 192 86 192 192s-86 192-192 192l-32 0 0 64 32 0c141.4 0 256-114.6 256-256s-114.6-256-256-256l-32 0z"/><path class="fa-primary" style="fill:var(--fa-primary-color,inherit);opacity:var(--fa-primary-opacity,1);" d="M157.3 98.7l-22.6 22.6-112 112L0 256l22.6 22.6 112 112 22.6 22.6L202.5 368l-22.6-22.6L122.5 288l194.7 0 32 0 0-64-32 0-194.7 0 57.4-57.4L202.5 144 157.3 98.7z"/></svg>