<svg xmlns="http://www.w3.org/2000/svg" viewBox="0 0 512 512"><!--! Font Awesome Pro 6.6.0 by @fontawesome - https://fontawesome.com License - https://fontawesome.com/license (Commercial License) Copyright 2024 Fonticons, Inc. --><path class="fa-secondary" style="fill:var(--fa-secondary-color,inherit);opacity:var(--fa-secondary-opacity,.4);" d="M320 32l0 64 32 0 96 0 0 320-96 0-32 0 0 64 32 0 128 0 32 0 0-32 0-384 0-32-32 0L352 32l-32 0z"/><path class="fa-primary" style="fill:var(--fa-primary-color,inherit);opacity:var(--fa-primary-opacity,1);" d="M365.3 256l-22.6 22.6-128 128L192 429.3 146.7 384l22.6-22.6L242.7 288 32 288 0 288l0-64 32 0 210.7 0-73.4-73.4L146.7 128 192 82.7l22.6 22.6 128 128L365.3 256z"/></svg>