<svg xmlns="http://www.w3.org/2000/svg" viewBox="0 0 448 512"><!--! Font Awesome Pro 6.6.0 by @fontawesome - https://fontawesome.com License - https://fontawesome.com/license (Commercial License) Copyright 2024 Fonticons, Inc. --><path class="fa-secondary" style="fill:var(--fa-secondary-color,inherit);opacity:var(--fa-secondary-opacity,.4);" d="M0 0L0 32 0 160l0 32 64 0 0-32 0-96 320 0 0 96 0 32 64 0 0-32 0-128 0-32L416 0 32 0 0 0z"/><path class="fa-primary" style="fill:var(--fa-primary-color,inherit);opacity:var(--fa-primary-opacity,1);" d="M224 509.3l-22.6-22.6-128-128L50.7 336 96 290.7l22.6 22.6L192 386.7 192 192l0-32 64 0 0 32 0 194.7 73.4-73.4L352 290.7 397.3 336l-22.6 22.6-128 128L224 509.3z"/></svg>