<svg xmlns="http://www.w3.org/2000/svg" viewBox="0 0 448 512"><!--! Font Awesome Pro 6.6.0 by @fontawesome - https://fontawesome.com License - https://fontawesome.com/license (Commercial License) Copyright 2024 Fonticons, Inc. --><path class="fa-secondary" style="fill:var(--fa-secondary-color,inherit);opacity:var(--fa-secondary-opacity,.4);" d="M0 224l64 0 0 64L0 288l0-64zm96 0l64 0 0 64-64 0 0-64zm96 0l64 0 0 64-64 0 0-64zm96 0l64 0 0 64-64 0 0-64zm96 0l64 0 0 64-64 0 0-64z"/><path class="fa-primary" style="fill:var(--fa-primary-color,inherit);opacity:var(--fa-primary-opacity,1);" d="M128 96L224 0l96 96 0 32-64 0 0 32 0 32-64 0 0-32 0-32-64 0 0-32zM256 320l0 32 0 16 0 16 64 0 0 32-96 96-96-96 0-32 64 0 0-16 0-16 0-32 64 0z"/></svg>