<svg xmlns="http://www.w3.org/2000/svg" viewBox="0 0 512 512"><!--! Font Awesome Pro 6.6.0 by @fontawesome - https://fontawesome.com License - https://fontawesome.com/license (Commercial License) Copyright 2024 Fonticons, Inc. --><path class="fa-secondary" style="fill:var(--fa-secondary-color,inherit);opacity:var(--fa-secondary-opacity,.4);" d="M0 256l64 0C64 150 150 64 256 64s192 86 192 192l64 0C512 114.6 397.4 0 256 0S0 114.6 0 256z"/><path class="fa-primary" style="fill:var(--fa-primary-color,inherit);opacity:var(--fa-primary-opacity,1);" d="M413.3 304l-22.6-22.6-112-112L256 146.7l-22.6 22.6-112 112L98.7 304 144 349.3l22.6-22.6L224 269.3 224 480l0 32 64 0 0-32 0-210.7 57.4 57.4L368 349.3 413.3 304z"/></svg>