<svg xmlns="http://www.w3.org/2000/svg" viewBox="0 0 512 512"><!--! Font Awesome Pro 6.6.0 by @fontawesome - https://fontawesome.com License - https://fontawesome.com/license (Commercial License) Copyright 2024 Fonticons, Inc. --><path class="fa-secondary" style="fill:var(--fa-secondary-color,inherit);opacity:var(--fa-secondary-opacity,.4);" d="M0 256C0 397.4 114.6 512 256 512l0-64C150 448 64 362 64 256S150 64 256 64l0-64C114.6 0 0 114.6 0 256z"/><path class="fa-primary" style="fill:var(--fa-primary-color,inherit);opacity:var(--fa-primary-opacity,1);" d="M304 98.7l-22.6 22.6-112 112L146.7 256l22.6 22.6 112 112L304 413.3 349.3 368l-22.6-22.6L269.3 288 480 288l32 0 0-64-32 0-210.7 0 57.4-57.4L349.3 144 304 98.7z"/></svg>