<svg xmlns="http://www.w3.org/2000/svg" viewBox="0 0 512 512"><!--! Font Awesome Pro 6.6.0 by @fontawesome - https://fontawesome.com License - https://fontawesome.com/license (Commercial License) Copyright 2024 Fonticons, Inc. --><path class="fa-secondary" style="fill:var(--fa-secondary-color,inherit);opacity:var(--fa-secondary-opacity,.4);" d="M0 32l32 0 96 0 0 64L64 96l0 352 384 0 0-352-64 0 0-64 96 0 32 0 0 32 0 416 0 32-32 0L32 512 0 512l0-32L0 64 0 32z"/><path class="fa-primary" style="fill:var(--fa-primary-color,inherit);opacity:var(--fa-primary-opacity,1);" d="M256 365.3l22.6-22.6 96-96L397.3 224 352 178.7l-22.6 22.6L288 242.7 288 32l0-32L224 0l0 32 0 210.7-41.4-41.4L160 178.7 114.7 224l22.6 22.6 96 96L256 365.3z"/></svg>