<svg xmlns="http://www.w3.org/2000/svg" viewBox="0 0 576 512"><!--! Font Awesome Pro 6.6.0 by @fontawesome - https://fontawesome.com License - https://fontawesome.com/license (Commercial License) Copyright 2024 Fonticons, Inc. --><path class="fa-secondary" style="fill:var(--fa-secondary-color,inherit);opacity:var(--fa-secondary-opacity,.4);" d="M96 464a48 48 0 1 0 96 0 48 48 0 1 0 -96 0zM224 336a48 48 0 1 0 96 0 48 48 0 1 0 -96 0zm0 128a48 48 0 1 0 96 0 48 48 0 1 0 -96 0zM352 208a48 48 0 1 0 96 0 48 48 0 1 0 -96 0zm0 128a48 48 0 1 0 96 0 48 48 0 1 0 -96 0zm0 128a48 48 0 1 0 96 0 48 48 0 1 0 -96 0zM480 80a48 48 0 1 0 96 0 48 48 0 1 0 -96 0zm0 128a48 48 0 1 0 96 0 48 48 0 1 0 -96 0zm0 128a48 48 0 1 0 96 0 48 48 0 1 0 -96 0zm0 128a48 48 0 1 0 96 0 48 48 0 1 0 -96 0z"/><path class="fa-primary" style="fill:var(--fa-primary-color,inherit);opacity:var(--fa-primary-opacity,1);" d="M128 0l32 0L288 0l32 0 0 32 0 128 0 32-64 0 0-32 0-50.7L70.6 294.6 48 317.3 2.7 272l22.6-22.6L210.7 64 160 64l-32 0 0-64z"/></svg>