<svg xmlns="http://www.w3.org/2000/svg" viewBox="0 0 640 512"><!--! Font Awesome Pro 6.6.0 by @fontawesome - https://fontawesome.com License - https://fontawesome.com/license (Commercial License) Copyright 2024 Fonticons, Inc. --><path class="fa-secondary" style="fill:var(--fa-secondary-color,inherit);opacity:var(--fa-secondary-opacity,.4);" d="M304 96l32 0 176 0 32 0 0 32 0 210.7 25.4-25.4L592 290.7 637.3 336l-22.6 22.6-80 80L512 461.3l-22.6-22.6-80-80L386.7 336 432 290.7l22.6 22.6L480 338.7 480 160l-144 0-32 0 0-64z"/><path class="fa-primary" style="fill:var(--fa-primary-color,inherit);opacity:var(--fa-primary-opacity,1);" d="M128 50.7l22.6 22.6 80 80L253.3 176 208 221.3l-22.6-22.6L160 173.3 160 352l144 0 32 0 0 64-32 0-176 0-32 0 0-32 0-210.7L70.6 198.6 48 221.3 2.7 176l22.6-22.6 80-80L128 50.7z"/></svg>