<svg xmlns="http://www.w3.org/2000/svg" viewBox="0 0 640 512"><!--! Font Awesome Pro 6.6.0 by @fontawesome - https://fontawesome.com License - https://fontawesome.com/license (Commercial License) Copyright 2024 Fonticons, Inc. --><path class="fa-secondary" style="fill:var(--fa-secondary-color,inherit);opacity:var(--fa-secondary-opacity,.4);" d="M0 448l64 64L336 240l-64-64L0 448zm384-96l0 64 32 0c123.7 0 224-100.3 224-224l0-32-64 0 0 32c0 88.4-71.6 160-160 160l-32 0zM400 48l64 64 48-48L448 0 400 48z"/><path class="fa-primary" style="fill:var(--fa-primary-color,inherit);opacity:var(--fa-primary-opacity,1);" d="M224 128L352 0 512 160l64 0 0 32c0 88.4-71.6 160-160 160l-32 0 0-64L224 128z"/></svg>