<svg xmlns="http://www.w3.org/2000/svg" viewBox="0 0 320 512"><!--! Font Awesome Pro 6.6.0 by @fontawesome - https://fontawesome.com License - https://fontawesome.com/license (Commercial License) Copyright 2024 Fonticons, Inc. --><path class="fa-secondary" style="fill:var(--fa-secondary-color,inherit);opacity:var(--fa-secondary-opacity,.4);" d="M112 0l0 64 64 0 0-64L112 0zm0 128l0 96 64 0 0-96-64 0zm0 160l0 96 64 0 0-96-64 0zm0 160l0 64 64 0 0-64-64 0z"/><path class="fa-primary" style="fill:var(--fa-primary-color,inherit);opacity:var(--fa-primary-opacity,1);" d="M64 128l0 96 112 0c26.5 0 48-21.5 48-48s-21.5-48-48-48L64 128zM0 224l0-96L0 64l64 0 112 0c61.9 0 112 50.1 112 112c0 24.2-7.7 46.6-20.7 64.9c31.7 19.8 52.7 55 52.7 95.1c0 61.9-50.1 112-112 112L64 448 0 448l0-64 0-96 0-64zm176 64L64 288l0 96 144 0c26.5 0 48-21.5 48-48s-21.5-48-48-48l-32 0z"/></svg>