<svg xmlns="http://www.w3.org/2000/svg" viewBox="0 0 384 512"><!--! Font Awesome Pro 6.6.0 by @fontawesome - https://fontawesome.com License - https://fontawesome.com/license (Commercial License) Copyright 2024 Fonticons, Inc. --><path class="fa-secondary" style="fill:var(--fa-secondary-color,inherit);opacity:var(--fa-secondary-opacity,.4);" d="M0 160l0 64 64 0 0-64L0 160zm128 0l0 64 64 0 0-64-64 0z"/><path class="fa-primary" style="fill:var(--fa-primary-color,inherit);opacity:var(--fa-primary-opacity,1);" d="M32 96L8 96 8 32l24 0c53 0 96 43 96 96l0 256c0 17.7 14.3 32 32 32l32 0c70.7 0 128-57.3 128-128l0-32c0-17.7-14.3-32-32-32l-16 0-32 0 0-64 32 0 16 0c53 0 96 43 96 96l0 32c0 106-86 192-192 192l-32 0c-53 0-96-43-96-96l0-256c0-17.7-14.3-32-32-32z"/></svg>