<svg xmlns="http://www.w3.org/2000/svg" viewBox="0 0 512 512"><!--! Font Awesome Pro 6.6.0 by @fontawesome - https://fontawesome.com License - https://fontawesome.com/license (Commercial License) Copyright 2024 Fonticons, Inc. --><path class="fa-secondary" style="fill:var(--fa-secondary-color,inherit);opacity:var(--fa-secondary-opacity,.4);" d="M0 32L0 480l64 0L64 32 0 32zm160 0l0 448 64 0 0-448-64 0zm288 0l0 448 64 0 0-448-64 0z"/><path class="fa-primary" style="fill:var(--fa-primary-color,inherit);opacity:var(--fa-primary-opacity,1);" d="M96 32l32 0 0 448-32 0L96 32zm160 0l64 0 0 448-64 0 0-448zm160 0l0 448-32 0 0-448 32 0z"/></svg>