<svg xmlns="http://www.w3.org/2000/svg" viewBox="0 0 640 512"><!--! Font Awesome Pro 6.6.0 by @fontawesome - https://fontawesome.com License - https://fontawesome.com/license (Commercial License) Copyright 2024 Fonticons, Inc. --><path class="fa-secondary" style="fill:var(--fa-secondary-color,inherit);opacity:var(--fa-secondary-opacity,.4);" d="M0 232l24 0 592 0 24 0 0 48-24 0L24 280 0 280l0-48z"/><path class="fa-primary" style="fill:var(--fa-primary-color,inherit);opacity:var(--fa-primary-opacity,1);" d="M64 32l64 0 0 160-64 0L64 32zm0 288l64 0 0 160-64 0 0-160zm96 0l32 0 0 160-32 0 0-160zm64 0l64 0 0 160-64 0 0-160zm64-128l-64 0 0-160 64 0 0 160zm32 128l64 0 0 160-64 0 0-160zm64-128l-64 0 0-160 64 0 0 160zm64 128l32 0 0 160-32 0 0-160zm32-128l-32 0 0-160 32 0 0 160zm32 128l64 0 0 160-64 0 0-160zm64-128l-64 0 0-160 64 0 0 160zm-384 0l-32 0 0-160 32 0 0 160z"/></svg>