<svg xmlns="http://www.w3.org/2000/svg" viewBox="0 0 512 512"><!--! Font Awesome Pro 6.6.0 by @fontawesome - https://fontawesome.com License - https://fontawesome.com/license (Commercial License) Copyright 2024 Fonticons, Inc. --><path class="fa-secondary" style="fill:var(--fa-secondary-color,inherit);opacity:var(--fa-secondary-opacity,.4);" d="M192 288l0 64 256 0 0 32-256 0 0 64 256 0 64 0 0-64 0-32 0-64-64 0-256 0zM320 64l0 64 128 0 0 32-128 0 0 64 128 0 64 0 0-64 0-32 0-64-64 0L320 64z"/><path class="fa-primary" style="fill:var(--fa-primary-color,inherit);opacity:var(--fa-primary-opacity,1);" d="M0 64H320V224H0V64zM0 288H192V448H0V288z"/></svg>