<svg xmlns="http://www.w3.org/2000/svg" viewBox="0 0 576 512"><!--! Font Awesome Pro 6.6.0 by @fontawesome - https://fontawesome.com License - https://fontawesome.com/license (Commercial License) Copyright 2024 Fonticons, Inc. --><path class="fa-secondary" style="fill:var(--fa-secondary-color,inherit);opacity:var(--fa-secondary-opacity,.4);" d="M0 96l0 64L0 352l0 64 64 0 128 0 0-64L64 352l0-192 144 0 0-64L64 96 0 96zm336 0l0 64 144 0 0 192-128 0 0 64 128 0 64 0 0-64 0-32 32 0 0-128-32 0 0-32 0-64-64 0L336 96z"/><path class="fa-primary" style="fill:var(--fa-primary-color,inherit);opacity:var(--fa-primary-opacity,1);" d="M296 120l0-24-48 0 0 24 0 176 0 24 48 0 0-24 0-176zm8 232l-64 0 0 64 64 0 0-64z"/></svg>