<svg xmlns="http://www.w3.org/2000/svg" viewBox="0 0 512 512"><!--! Font Awesome Pro 6.6.0 by @fontawesome - https://fontawesome.com License - https://fontawesome.com/license (Commercial License) Copyright 2024 Fonticons, Inc. --><path class="fa-secondary" style="fill:var(--fa-secondary-color,inherit);opacity:var(--fa-secondary-opacity,.4);" d="M0 224l32 0 48 0 160 0 32 0 160 0 48 0 32 0 0 32 0 64 0 32-32 0L32 352 0 352l0-32 0-64 0-32z"/><path class="fa-primary" style="fill:var(--fa-primary-color,inherit);opacity:var(--fa-primary-opacity,1);" d="M480 32L32 32l0 192 48 0 0-96 160 0 0 96 32 0 0-96 160 0 0 96 48 0 0-192zM32 352L0 352l0 32 0 64 0 32 64 0 0-32 0-32 384 0 0 32 0 32 64 0 0-32 0-64 0-32-32 0L32 352z"/></svg>