<svg xmlns="http://www.w3.org/2000/svg" viewBox="0 0 512 512"><!--! Font Awesome Pro 6.6.0 by @fontawesome - https://fontawesome.com License - https://fontawesome.com/license (Commercial License) Copyright 2024 Fonticons, Inc. --><path class="fa-secondary" style="fill:var(--fa-secondary-color,inherit);opacity:var(--fa-secondary-opacity,.4);" d="M32 32l352 0 0 64 96 0 32 0 0 32 0 176 0 20.8-19 8.4L384 381.7l0 98.3L32 480 32 32zm96 96l0 16 0 224 0 16 32 0 0-16 0-224 0-16-32 0zm64 0l0 16 0 224 0 16 32 0 0-16 0-224 0-16-32 0zm64 0l0 16 0 224 0 16 32 0 0-16 0-224 0-16-32 0zm128 32l0 151.6 64-28.4L448 160l-64 0z"/><path class="fa-primary" style="fill:var(--fa-primary-color,inherit);opacity:var(--fa-primary-opacity,1);" d="M160 128l0 16 0 224 0 16-32 0 0-16 0-224 0-16 32 0zm64 0l0 16 0 224 0 16-32 0 0-16 0-224 0-16 32 0zm64 0l0 16 0 224 0 16-32 0 0-16 0-224 0-16 32 0z"/></svg>