<svg xmlns="http://www.w3.org/2000/svg" viewBox="0 0 512 512"><!--! Font Awesome Pro 6.6.0 by @fontawesome - https://fontawesome.com License - https://fontawesome.com/license (Commercial License) Copyright 2024 Fonticons, Inc. --><path class="fa-secondary" style="fill:var(--fa-secondary-color,inherit);opacity:var(--fa-secondary-opacity,.4);" d="M160 96a96 96 0 1 0 192 0A96 96 0 1 0 160 96z"/><path class="fa-primary" style="fill:var(--fa-primary-color,inherit);opacity:var(--fa-primary-opacity,1);" d="M240 512l0-264-21.3-12.4C169.8 207 114.1 192 57.5 192L0 192 0 456l116.7 13c18.1 2 35.8 6.6 52.6 13.6L240 512zm32 0l48.4-24.2c20.9-10.4 43.5-17 66.8-19.3L512 456l0-264-62.3 0c-63.6 0-125.6 19.6-177.7 56l0 264z"/></svg>