<svg xmlns="http://www.w3.org/2000/svg" viewBox="0 0 512 512"><!--! Font Awesome Pro 6.6.0 by @fontawesome - https://fontawesome.com License - https://fontawesome.com/license (Commercial License) Copyright 2024 Fonticons, Inc. --><path class="fa-secondary" style="fill:var(--fa-secondary-color,inherit);opacity:var(--fa-secondary-opacity,.4);" d="M0 96l320 0 0 64-48 0-16 0 0 32 16 0 48 0 0 32-48 0-16 0 0 32 16 0 48 0 192 48 0 144L0 448 0 96z"/><path class="fa-primary" style="fill:var(--fa-primary-color,inherit);opacity:var(--fa-primary-opacity,1);" d="M352 0L0 0 0 96l352 0 0-96zM0 448l0 32 32 32 64 0 32-32 32 32 64 0 32-32 32 32 64 0 32-32 32 32 64 0 32-32 0-32L0 448z"/></svg>