<svg xmlns="http://www.w3.org/2000/svg" viewBox="0 0 448 512"><!--! Font Awesome Pro 6.6.0 by @fontawesome - https://fontawesome.com License - https://fontawesome.com/license (Commercial License) Copyright 2024 Fonticons, Inc. --><path class="fa-secondary" style="fill:var(--fa-secondary-color,inherit);opacity:var(--fa-secondary-opacity,.4);" d="M0 128l0 64 64 0 0-64L0 128zm0 96l0 64 64 0 0-64L0 224zm0 96l0 64 64 0 0-64L0 320zm0 96l0 64 64 0 0-64L0 416zM96 224l0 64 64 0 0-64-64 0zm0 192l0 64 64 0 0-64-64 0zm96-288l0 64 64 0 0-64-64 0zm0 96l0 64 64 0 0-64-64 0zm0 96l0 64 64 0 0-64-64 0zm0 96l0 64 64 0 0-64-64 0zm96-192l0 64 64 0 0-64-64 0zm0 192l0 64 64 0 0-64-64 0zm96-288l0 64 64 0 0-64-64 0zm0 96l0 64 64 0 0-64-64 0zm0 96l0 64 64 0 0-64-64 0zm0 96l0 64 64 0 0-64-64 0z"/><path class="fa-primary" style="fill:var(--fa-primary-color,inherit);opacity:var(--fa-primary-opacity,1);" d="M0 32H448V96H0V32z"/></svg>