<svg xmlns="http://www.w3.org/2000/svg" viewBox="0 0 448 512"><!--! Font Awesome Pro 6.6.0 by @fontawesome - https://fontawesome.com License - https://fontawesome.com/license (Commercial License) Copyright 2024 Fonticons, Inc. --><path class="fa-secondary" style="fill:var(--fa-secondary-color,inherit);opacity:var(--fa-secondary-opacity,.4);" d="M32 224c0 10.9 .9 21.6 2.7 32l378.7 0c1.7-10.4 2.7-21.1 2.7-32c0-106-86-192-192-192S32 118 32 224z"/><path class="fa-primary" style="fill:var(--fa-primary-color,inherit);opacity:var(--fa-primary-opacity,1);" d="M448 256L0 256l4.5 44.7C11 366.2 66.1 416 131.8 416l60.2 0-80 72 0 24 224 0 0-24-80-72 60.2 0c65.8 0 120.8-49.8 127.4-115.3L448 256z"/></svg>