<svg xmlns="http://www.w3.org/2000/svg" viewBox="0 0 512 512"><!--! Font Awesome Pro 6.6.0 by @fontawesome - https://fontawesome.com License - https://fontawesome.com/license (Commercial License) Copyright 2024 Fonticons, Inc. --><path class="fa-secondary" style="fill:var(--fa-secondary-color,inherit);opacity:var(--fa-secondary-opacity,.4);" d="M32 176l24 0 16 0 24 0 0 48-24 0-16 0-24 0 0-48zm48-72l24 0 16 0 24 0 0 48-24 0-16 0-24 0 0-48zm48 72l24 0 16 0 24 0 0 48-24 0-16 0-24 0 0-48zM176 32l24 0 16 0 24 0 0 48-24 0-16 0-24 0 0-48zm0 72l24 0 16 0 24 0 0 48-24 0-16 0-24 0 0-48zm48 72l24 0 16 0 24 0 0 48-24 0-16 0-24 0 0-48zM272 32l24 0 16 0 24 0 0 48-24 0-16 0-24 0 0-48zm0 72l24 0 16 0 24 0 0 48-24 0-16 0-24 0 0-48zm48 72l24 0 16 0 24 0 0 48-24 0-16 0-24 0 0-48zm48-72l24 0 16 0 24 0 0 48-24 0-16 0-24 0 0-48zm48 72l24 0 16 0 24 0 0 48-24 0-16 0-24 0 0-48z"/><path class="fa-primary" style="fill:var(--fa-primary-color,inherit);opacity:var(--fa-primary-opacity,1);" d="M512 256L0 256l0 24c0 67 39.2 124.9 96 151.8L96 480l320 0 0-48.2c56.8-27 96-84.8 96-151.8l0-24z"/></svg>