<svg xmlns="http://www.w3.org/2000/svg" viewBox="0 0 448 512"><!--! Font Awesome Pro 6.6.0 by @fontawesome - https://fontawesome.com License - https://fontawesome.com/license (Commercial License) Copyright 2024 Fonticons, Inc. --><path class="fa-secondary" style="fill:var(--fa-secondary-color,inherit);opacity:var(--fa-secondary-opacity,.4);" d="M32 400l131.2 0-28 18.7-13.3 8.9 17.8 26.6 13.3-8.9L192 419.2l39.1 26.1 13.3 8.9 17.8-26.6-13.3-8.9-28-18.7L352 400l0 112L32 512l0-112z"/><path class="fa-primary" style="fill:var(--fa-primary-color,inherit);opacity:var(--fa-primary-opacity,1);" d="M384 0L0 0 0 352l32 32 0 16 131.2 0-28-18.7-13.3-8.9 17.8-26.6 13.3 8.9L192 380.8l39.1-26.1 13.3-8.9 17.8 26.6-13.3 8.9-28 18.7L352 400l0-16 96-96 0-128-16 0-48 0-80 0 0 32 0 64 32 0 16 0 0 32-16 0-48 0-16 0 0-16 0-80-160 0-5.3 0-4.3-3.2-32-24-12.8-9.6 19.2-25.6 12.8 9.6L117.3 160 272 160l0-16 0-16 16 0 96 0L384 0z"/></svg>