<svg xmlns="http://www.w3.org/2000/svg" viewBox="0 0 640 512"><!--! Font Awesome Pro 6.6.0 by @fontawesome - https://fontawesome.com License - https://fontawesome.com/license (Commercial License) Copyright 2024 Fonticons, Inc. --><path class="fa-secondary" style="fill:var(--fa-secondary-color,inherit);opacity:var(--fa-secondary-opacity,.4);" d="M0 0L0 64 0 192l0 64 64 0 96 0 0-64-96 0L64 64l128 0 0 32 64 0 0-32 0-64L192 0 64 0 0 0zM384 416l0 32 0 64 64 0 128 0 64 0 0-64 0-128 0-64-64 0-96 0 0 64 96 0 0 128-128 0 0-32-64 0z"/><path class="fa-primary" style="fill:var(--fa-primary-color,inherit);opacity:var(--fa-primary-opacity,1);" d="M480 96L160 96l0 320 320 0 0-320z"/></svg>