<svg xmlns="http://www.w3.org/2000/svg" viewBox="0 0 512 512"><!--! Font Awesome Pro 6.6.0 by @fontawesome - https://fontawesome.com License - https://fontawesome.com/license (Commercial License) Copyright 2024 Fonticons, Inc. --><path class="fa-secondary" style="fill:var(--fa-secondary-color,inherit);opacity:var(--fa-secondary-opacity,.4);" d="M0 128L0 512l192 0 320 0 0-384L512 0 192 0l0 128L0 128zm64 64l64 0 0 64-64 0 0-64zm0 96l64 0 0 64-64 0 0-64zM256 64l64 0 0 64-64 0 0-64zm0 96l64 0 0 64-64 0 0-64zm0 96l64 0 0 64-64 0 0-64zM384 64l64 0 0 64-64 0 0-64zm0 96l64 0 0 64-64 0 0-64zm0 96l64 0 0 64-64 0 0-64z"/><path class="fa-primary" style="fill:var(--fa-primary-color,inherit);opacity:var(--fa-primary-opacity,1);" d="M256 64l64 0 0 64-64 0 0-64zM128 192l0 64-64 0 0-64 64 0zM320 320l-64 0 0-64 64 0 0 64zM128 288l0 64-64 0 0-64 64 0zm256 32l0-64 64 0 0 64-64 0zM448 64l0 64-64 0 0-64 64 0zM256 224l0-64 64 0 0 64-64 0zm192 0l-64 0 0-64 64 0 0 64z"/></svg>