<svg xmlns="http://www.w3.org/2000/svg" viewBox="0 0 512 512"><!--! Font Awesome Pro 6.6.0 by @fontawesome - https://fontawesome.com License - https://fontawesome.com/license (Commercial License) Copyright 2024 Fonticons, Inc. --><path class="fa-secondary" style="fill:var(--fa-secondary-color,inherit);opacity:var(--fa-secondary-opacity,.4);" d="M32 192l0 32 448 0 0-32s0-160-224-160S32 192 32 192zm0 192l0 96 448 0 0-96L32 384zM144 128a16 16 0 1 1 -32 0 16 16 0 1 1 32 0zM272 96a16 16 0 1 1 -32 0 16 16 0 1 1 32 0zm128 32a16 16 0 1 1 -32 0 16 16 0 1 1 32 0z"/><path class="fa-primary" style="fill:var(--fa-primary-color,inherit);opacity:var(--fa-primary-opacity,1);" d="M16 256H496v96H16V256z"/></svg>