<svg xmlns="http://www.w3.org/2000/svg" viewBox="0 0 512 512"><!--! Font Awesome Pro 6.6.0 by @fontawesome - https://fontawesome.com License - https://fontawesome.com/license (Commercial License) Copyright 2024 Fonticons, Inc. --><path class="fa-secondary" style="fill:var(--fa-secondary-color,inherit);opacity:var(--fa-secondary-opacity,.4);" d="M32 256l160 0 0 64L32 320l0-64zm0 96l160 0 0 64L32 416l0-64zm0 96l160 0 0 64L32 512l0-64zM320 256l160 0 0 64-160 0 0-64zm0 96l160 0 0 64-160 0 0-64zm0 96l160 0 0 64-160 0 0-64z"/><path class="fa-primary" style="fill:var(--fa-primary-color,inherit);opacity:var(--fa-primary-opacity,1);" d="M0 176l0 48 384 0 96 0 32 0 0-48-32-22 0-122-96 0 0 56L256 0 0 176zM256 96a32 32 0 1 1 0 64 32 32 0 1 1 0-64z"/></svg>