<svg xmlns="http://www.w3.org/2000/svg" viewBox="0 0 512 512"><!--! Font Awesome Pro 6.6.0 by @fontawesome - https://fontawesome.com License - https://fontawesome.com/license (Commercial License) Copyright 2024 Fonticons, Inc. --><path class="fa-secondary" style="fill:var(--fa-secondary-color,inherit);opacity:var(--fa-secondary-opacity,.4);" d="M96 192l416 0 0 224L96 416l0-224z"/><path class="fa-primary" style="fill:var(--fa-primary-color,inherit);opacity:var(--fa-primary-opacity,1);" d="M256 0L192 0l0 64L96 64l0 128 416 0 0-128-96 0 0-64L352 0l0 64-96 0 0-64zM48 184l0-24L0 160l0 24L0 488l0 24 24 0 368 0 24 0 0-48-24 0L48 464l0-280z"/></svg>