<svg xmlns="http://www.w3.org/2000/svg" viewBox="0 0 448 512"><!--! Font Awesome Pro 6.6.0 by @fontawesome - https://fontawesome.com License - https://fontawesome.com/license (Commercial License) Copyright 2024 Fonticons, Inc. --><path class="fa-secondary" style="fill:var(--fa-secondary-color,inherit);opacity:var(--fa-secondary-opacity,.4);" d="M0 192l448 0 0 320L0 512 0 192zM120 328l0 48 24 0 56 0 0 56 0 24 48 0 0-24 0-56 56 0 24 0 0-48-24 0-56 0 0-56 0-24-48 0 0 24 0 56-56 0-24 0z"/><path class="fa-primary" style="fill:var(--fa-primary-color,inherit);opacity:var(--fa-primary-opacity,1);" d="M96 0l64 0 0 64 128 0 0-64 64 0 0 64 96 0 0 128L0 192 0 64l96 0L96 0zM248 248l0 24 0 56 56 0 24 0 0 48-24 0-56 0 0 56 0 24-48 0 0-24 0-56-56 0-24 0 0-48 24 0 56 0 0-56 0-24 48 0z"/></svg>