<svg xmlns="http://www.w3.org/2000/svg" viewBox="0 0 448 512"><!--! Font Awesome Pro 6.6.0 by @fontawesome - https://fontawesome.com License - https://fontawesome.com/license (Commercial License) Copyright 2024 Fonticons, Inc. --><path class="fa-secondary" style="fill:var(--fa-secondary-color,inherit);opacity:var(--fa-secondary-opacity,.4);" d="M0 464l0 48 24 0 352 0c39.8 0 72-32.2 72-72s-32.2-72-72-72s-72 32.2-72 72c0 8.4 1.4 16.5 4.1 24L256 464 64 464l-40 0L0 464zM80 112c0 44.2 35.8 80 80 80s80-35.8 80-80C240 64 160 0 160 0s-80 64-80 112zM400 440a24 24 0 1 1 -48 0 24 24 0 1 1 48 0z"/><path class="fa-primary" style="fill:var(--fa-primary-color,inherit);opacity:var(--fa-primary-opacity,1);" d="M128 224l-64 0 0 240 192 0 0-240-96 0 0 48 0 16-32 0 0-16 0-48z"/></svg>