<svg xmlns="http://www.w3.org/2000/svg" viewBox="0 0 448 512"><!--! Font Awesome Pro 6.6.0 by @fontawesome - https://fontawesome.com License - https://fontawesome.com/license (Commercial License) Copyright 2024 Fonticons, Inc. --><path class="fa-secondary" style="fill:var(--fa-secondary-color,inherit);opacity:var(--fa-secondary-opacity,.4);" d="M32 384l0 96 0 32 64 0 0-32 0-96-64 0zM64 0l0 48 0 240 48 0 0-240 40 0 0 240 48 0 0-240 48 0 0 240 48 0 0-240 40 0 0 240 48 0 0-240 0-48L336 0 112 0 64 0zM352 384l0 96 0 32 64 0 0-32 0-96-64 0z"/><path class="fa-primary" style="fill:var(--fa-primary-color,inherit);opacity:var(--fa-primary-opacity,1);" d="M0 352v32H448V352l-32-64H32L0 352z"/></svg>