<svg xmlns="http://www.w3.org/2000/svg" viewBox="0 0 512 512"><!--! Font Awesome Pro 6.6.0 by @fontawesome - https://fontawesome.com License - https://fontawesome.com/license (Commercial License) Copyright 2024 Fonticons, Inc. --><path class="fa-secondary" style="fill:var(--fa-secondary-color,inherit);opacity:var(--fa-secondary-opacity,.4);" d="M0 32L0 64 0 448l0 32 32 0 448 0 32 0 0-64-32 0L64 416 64 64l0-32L0 32z"/><path class="fa-primary" style="fill:var(--fa-primary-color,inherit);opacity:var(--fa-primary-opacity,1);" d="M384 64l-64 0 0 32 0 64 0 32 64 0 0-32 0-64 0-32zm-96 96l0-32-64 0 0 32 0 64 0 32 64 0 0-32 0-64zm-96 96l0-32-64 0 0 32 0 64 0 32 64 0 0-32 0-64zM480 96l0-32-64 0 0 32 0 224 0 32 64 0 0-32 0-224z"/></svg>