<svg xmlns="http://www.w3.org/2000/svg" viewBox="0 0 448 512"><!--! Font Awesome Pro 6.6.0 by @fontawesome - https://fontawesome.com License - https://fontawesome.com/license (Commercial License) Copyright 2024 Fonticons, Inc. --><path class="fa-secondary" style="fill:var(--fa-secondary-color,inherit);opacity:var(--fa-secondary-opacity,.4);" d="M32 480l48-48 288 0 48 48 0 32L32 512l0-32z"/><path class="fa-primary" style="fill:var(--fa-primary-color,inherit);opacity:var(--fa-primary-opacity,1);" d="M32 32l0 176 64 48L80 432l288 0L352 256l64-48 0-176-96 0 0 64-48 0 0-64-96 0 0 64-48 0 0-64L32 32zM224 192c17.7 0 32 14.3 32 32l0 64-64 0 0-64c0-17.7 14.3-32 32-32z"/></svg>