<svg xmlns="http://www.w3.org/2000/svg" viewBox="0 0 448 512"><!--! Font Awesome Pro 6.6.0 by @fontawesome - https://fontawesome.com License - https://fontawesome.com/license (Commercial License) Copyright 2024 Fonticons, Inc. --><path class="fa-secondary" style="fill:var(--fa-secondary-color,inherit);opacity:var(--fa-secondary-opacity,.4);" d="M32 480l48-48 288 0 48 48 0 32L32 512l0-32z"/><path class="fa-primary" style="fill:var(--fa-primary-color,inherit);opacity:var(--fa-primary-opacity,1);" d="M256 32l0-32L192 0l0 32 0 16-16 0-32 0 0 64 32 0 16 0 0 48L0 160l0 48L80 432l288 0 80-224 0-48-192 0 0-48 16 0 32 0 0-64-32 0-16 0 0-16z"/></svg>