<svg xmlns="http://www.w3.org/2000/svg" viewBox="0 0 256 512"><!--! Font Awesome Pro 6.6.0 by @fontawesome - https://fontawesome.com License - https://fontawesome.com/license (Commercial License) Copyright 2024 Fonticons, Inc. --><path class="fa-secondary" style="fill:var(--fa-secondary-color,inherit);opacity:var(--fa-secondary-opacity,.4);" d="M0 480l48-64 160 0 48 64 0 32L0 512l0-32z"/><path class="fa-primary" style="fill:var(--fa-primary-color,inherit);opacity:var(--fa-primary-opacity,1);" d="M176 240c19.4-14.6 32-37.8 32-64c0-44.2-35.8-80-80-80s-80 35.8-80 80c0 26.2 12.6 49.4 32 64l-8 0-24 0 0 48 24 0 4.4 0L48 416l160 0L179.6 288l4.4 0 24 0 0-48-24 0-8 0z"/></svg>