<svg xmlns="http://www.w3.org/2000/svg" viewBox="0 0 320 512"><!--! Font Awesome Pro 6.6.0 by @fontawesome - https://fontawesome.com License - https://fontawesome.com/license (Commercial License) Copyright 2024 Fonticons, Inc. --><path class="fa-secondary" style="fill:var(--fa-secondary-color,inherit);opacity:var(--fa-secondary-opacity,.4);" d="M0 480l48-64 224 0 48 64 0 32L0 512l0-32z"/><path class="fa-primary" style="fill:var(--fa-primary-color,inherit);opacity:var(--fa-primary-opacity,1);" d="M48 416L72 264 40 224 40 96l56 0 0 48 32 0 0-48 64 0 0 48 32 0 0-48 56 0 0 128-32 40 24 152L48 416zm88-168l0 40 48 0 0-40c0-13.3-10.7-24-24-24s-24 10.7-24 24z"/></svg>