<svg xmlns="http://www.w3.org/2000/svg" viewBox="0 0 320 512"><!--! Font Awesome Pro 6.6.0 by @fontawesome - https://fontawesome.com License - https://fontawesome.com/license (Commercial License) Copyright 2024 Fonticons, Inc. --><path class="fa-secondary" style="fill:var(--fa-secondary-color,inherit);opacity:var(--fa-secondary-opacity,.4);" d="M96 64a64 64 0 1 0 128 0A64 64 0 1 0 96 64z"/><path class="fa-primary" style="fill:var(--fa-primary-color,inherit);opacity:var(--fa-primary-opacity,1);" d="M116.9 160l-16 0-9.6 12.8-72.1 96L0 294.4l51.2 38.4 19.2-25.6 15.4-20.4L48 400l40 0 0 80 0 32 64 0 0-32 0-80 16 0 0 80 0 32 64 0 0-32 0-80 40 0L234.3 286.8l15.3 20.4 19.2 25.6L320 294.4l-19.2-25.6-72.1-96L219.1 160l-16 0-86.2 0z"/></svg>