<svg xmlns="http://www.w3.org/2000/svg" viewBox="0 0 384 512"><!--! Font Awesome Pro 6.6.0 by @fontawesome - https://fontawesome.com License - https://fontawesome.com/license (Commercial License) Copyright 2024 Fonticons, Inc. --><path class="fa-secondary" style="fill:var(--fa-secondary-color,inherit);opacity:var(--fa-secondary-opacity,.4);" d="M128 64a64 64 0 1 0 128 0A64 64 0 1 0 128 64z"/><path class="fa-primary" style="fill:var(--fa-primary-color,inherit);opacity:var(--fa-primary-opacity,1);" d="M143 176l1 0 96 0 2.3 0 68.9-84.3L331.5 67 381 107.5l-20.3 24.8-78.5 96L272.7 240l-.7 0 0 240 0 32-64 0 0-32 0-96-32 0 0 96 0 32-64 0 0-32 0-241.2-8.6-10.3-80-96L2.9 107.9l49.2-41L72.6 91.5 143 176z"/></svg>