<svg xmlns="http://www.w3.org/2000/svg" viewBox="0 0 512 512"><!--! Font Awesome Pro 6.6.0 by @fontawesome - https://fontawesome.com License - https://fontawesome.com/license (Commercial License) Copyright 2024 Fonticons, Inc. --><path class="fa-secondary" style="fill:var(--fa-secondary-color,inherit);opacity:var(--fa-secondary-opacity,.4);" d="M0 256a256 256 0 1 0 512 0A256 256 0 1 0 0 256zm78.5-33.5C122.4 174.3 185.7 144 256 144s133.6 30.3 177.5 78.5l-34 34C364.4 216.9 313.1 192 256 192s-108.4 24.9-143.5 64.5l-34-34zm70.1 70.1c24.9-32 63.7-52.6 107.4-52.6s82.5 20.6 107.4 52.6l-34.4 34.4C313.3 303.5 286.4 288 256 288s-57.3 15.5-73.1 38.9l-34.4-34.4zM288 368a32 32 0 1 1 -64 0 32 32 0 1 1 64 0z"/><path class="fa-primary" style="fill:var(--fa-primary-color,inherit);opacity:var(--fa-primary-opacity,1);" d="M433.5 222.5l-34 34C364.4 216.9 313.1 192 256 192s-108.4 24.9-143.5 64.5l-34-34C122.4 174.3 185.7 144 256 144s133.6 30.3 177.5 78.5zM256 240c43.7 0 82.5 20.6 107.4 52.6l-34.4 34.4C313.3 303.5 286.4 288 256 288s-57.3 15.5-73.1 38.9l-34.4-34.4c24.9-32 63.7-52.6 107.4-52.6zm0 96a32 32 0 1 1 0 64 32 32 0 1 1 0-64z"/></svg>