<svg xmlns="http://www.w3.org/2000/svg" viewBox="0 0 512 512"><!--! Font Awesome Pro 6.6.0 by @fontawesome - https://fontawesome.com License - https://fontawesome.com/license (Commercial License) Copyright 2024 Fonticons, Inc. --><path class="fa-secondary" style="fill:var(--fa-secondary-color,inherit);opacity:var(--fa-secondary-opacity,.4);" d="M512 256A256 256 0 1 1 0 256a256 256 0 1 1 512 0zM128 224l0 64 64 0 0-64-64 0zm96 0l0 64 64 0 0-64-64 0zm96 0l0 64 64 0 0-64-64 0z"/><path class="fa-primary" style="fill:var(--fa-primary-color,inherit);opacity:var(--fa-primary-opacity,1);" d="M128 288l64 0 0-64-64 0 0 64zm160 0l0-64-64 0 0 64 64 0zm96 0l0-64-64 0 0 64 64 0z"/></svg>