<svg xmlns="http://www.w3.org/2000/svg" viewBox="0 0 512 512"><!--! Font Awesome Pro 6.6.0 by @fontawesome - https://fontawesome.com License - https://fontawesome.com/license (Commercial License) Copyright 2024 Fonticons, Inc. --><path class="fa-secondary" style="fill:var(--fa-secondary-color,inherit);opacity:var(--fa-secondary-opacity,.4);" d="M0 256a256 256 0 1 0 512 0A256 256 0 1 0 0 256zM144 144l48 0 0 24 0 120c0 35.3 28.7 64 64 64s64-28.7 64-64l0-120 0-24 48 0 0 24 0 120c0 61.9-50.1 112-112 112s-112-50.1-112-112l0-120 0-24z"/><path class="fa-primary" style="fill:var(--fa-primary-color,inherit);opacity:var(--fa-primary-opacity,1);" d="M192 144l0 24 0 120c0 35.3 28.7 64 64 64s64-28.7 64-64l0-120 0-24 48 0 0 24 0 120c0 61.9-50.1 112-112 112s-112-50.1-112-112l0-120 0-24 48 0z"/></svg>