<svg xmlns="http://www.w3.org/2000/svg" viewBox="0 0 512 512"><!--! Font Awesome Pro 6.6.0 by @fontawesome - https://fontawesome.com License - https://fontawesome.com/license (Commercial License) Copyright 2024 Fonticons, Inc. --><path class="fa-secondary" style="fill:var(--fa-secondary-color,inherit);opacity:var(--fa-secondary-opacity,.4);" d="M0 256a256 256 0 1 0 512 0A256 256 0 1 0 0 256zM128 144l72-16 40 72-41.9 33.5c18.1 34.2 46.2 62.3 80.4 80.4L312 272l72 40-16 72-16 0c-123.7 0-224-100.3-224-224l0-16z"/><path class="fa-primary" style="fill:var(--fa-primary-color,inherit);opacity:var(--fa-primary-opacity,1);" d="M128 144l72-16 40 72-41.9 33.5c18.1 34.2 46.2 62.3 80.4 80.4L312 272l72 40-16 72H352c-123.7 0-224-100.3-224-224l0-16z"/></svg>