<svg xmlns="http://www.w3.org/2000/svg" viewBox="0 0 512 512"><!--! Font Awesome Pro 6.6.0 by @fontawesome - https://fontawesome.com License - https://fontawesome.com/license (Commercial License) Copyright 2024 Fonticons, Inc. --><path class="fa-secondary" style="fill:var(--fa-secondary-color,inherit);opacity:var(--fa-secondary-opacity,.4);" d="M0 256a256 256 0 1 0 512 0A256 256 0 1 0 0 256zm103.8-49.4L209 191.3 256 96l47 95.3 105.1 15.3-76.1 74.2 18 104.7L256 336l-94 49.4 18-104.7-76.1-74.2z"/><path class="fa-primary" style="fill:var(--fa-primary-color,inherit);opacity:var(--fa-primary-opacity,1);" d="M256 96l47 95.3 105.1 15.3-76.1 74.2 18 104.7L256 336l-94 49.4 18-104.7-76.1-74.2L209 191.3 256 96z"/></svg>