<svg xmlns="http://www.w3.org/2000/svg" viewBox="0 0 512 512"><!--! Font Awesome Pro 6.6.0 by @fontawesome - https://fontawesome.com License - https://fontawesome.com/license (Commercial License) Copyright 2024 Fonticons, Inc. --><path class="fa-secondary" style="fill:var(--fa-secondary-color,inherit);opacity:var(--fa-secondary-opacity,.4);" d="M0 256a256 256 0 1 0 512 0A256 256 0 1 0 0 256zM160 128l24 0 144 0 24 0 0 48-24 0-120 0 0 56 88 0 24 0 0 48-24 0-88 0 0 56 120 0 24 0 0 48-24 0-144 0-24 0 0-24 0-104 0-104 0-24z"/><path class="fa-primary" style="fill:var(--fa-primary-color,inherit);opacity:var(--fa-primary-opacity,1);" d="M160 128l24 0 144 0 24 0 0 48-24 0-120 0 0 56 88 0 24 0 0 48-24 0-88 0 0 56 120 0 24 0 0 48-24 0-144 0-24 0 0-24 0-104 0-104 0-24z"/></svg>