<svg xmlns="http://www.w3.org/2000/svg" viewBox="0 0 512 512"><!--! Font Awesome Pro 6.6.0 by @fontawesome - https://fontawesome.com License - https://fontawesome.com/license (Commercial License) Copyright 2024 Fonticons, Inc. --><path class="fa-secondary" style="fill:var(--fa-secondary-color,inherit);opacity:var(--fa-secondary-opacity,.4);" d="M0 256a256 256 0 1 0 512 0A256 256 0 1 0 0 256zM232 96l48 0 0 24 0 56.7 20-30 13.3-20 39.9 26.6-13.3 20-64 96L232 256l0-136 0-24z"/><path class="fa-primary" style="fill:var(--fa-primary-color,inherit);opacity:var(--fa-primary-opacity,1);" d="M280 96l0 24 0 56.7 20-30 13.3-20 39.9 26.6-13.3 20-64 96L232 256l0-136 0-24 48 0z"/></svg>