<svg xmlns="http://www.w3.org/2000/svg" viewBox="0 0 512 512"><!--! Font Awesome Pro 6.6.0 by @fontawesome - https://fontawesome.com License - https://fontawesome.com/license (Commercial License) Copyright 2024 Fonticons, Inc. --><path class="fa-secondary" style="fill:var(--fa-secondary-color,inherit);opacity:var(--fa-secondary-opacity,.4);" d="M0 256a256 256 0 1 0 512 0A256 256 0 1 0 0 256zM158.7 153.3l39.9-26.6 13.3 20 64 96 4 6 0 7.3 0 136 0 24-48 0 0-24 0-128.7-60-90-13.3-20z"/><path class="fa-primary" style="fill:var(--fa-primary-color,inherit);opacity:var(--fa-primary-opacity,1);" d="M232 416l0-24 0-128.7-60-90-13.3-20 39.9-26.6 13.3 20 64 96 4 6 0 7.3 0 136 0 24-48 0z"/></svg>