<svg xmlns="http://www.w3.org/2000/svg" viewBox="0 0 512 512"><!--! Font Awesome Pro 6.6.0 by @fontawesome - https://fontawesome.com License - https://fontawesome.com/license (Commercial License) Copyright 2024 Fonticons, Inc. --><path class="fa-secondary" style="fill:var(--fa-secondary-color,inherit);opacity:var(--fa-secondary-opacity,.4);" d="M0 256a256 256 0 1 0 512 0A256 256 0 1 0 0 256zm232-44.8L269.3 236l96 64 20 13.3-26.6 39.9-20-13.3L280 300.8l0 91.2 0 24-48 0 0-24 0-136 0-44.8z"/><path class="fa-primary" style="fill:var(--fa-primary-color,inherit);opacity:var(--fa-primary-opacity,1);" d="M280 416l0-24 0-91.2L338.7 340l20 13.3 26.6-39.9-20-13.3-96-64L232 211.2l0 44.8 0 136 0 24 48 0z"/></svg>