<svg xmlns="http://www.w3.org/2000/svg" viewBox="0 0 576 512"><!--! Font Awesome Pro 6.6.0 by @fontawesome - https://fontawesome.com License - https://fontawesome.com/license (Commercial License) Copyright 2024 Fonticons, Inc. --><path class="fa-secondary" style="fill:var(--fa-secondary-color,inherit);opacity:var(--fa-secondary-opacity,.4);" d="M0 32l576 0 0 448L0 480 0 32zM104 256c0 53 43 96 96 96c34.2 0 64.1-17.8 81.1-44.6l-40.5-25.7C232 295.1 217 304 200 304c-26.5 0-48-21.5-48-48s21.5-48 48-48c17 0 32 8.9 40.6 22.3l40.5-25.7c-17-26.8-46.9-44.6-81.1-44.6c-53 0-96 43-96 96zm192 0c0 53 43 96 96 96c34.2 0 64.1-17.8 81.1-44.6l-40.5-25.7C424 295.1 409 304 392 304c-26.5 0-48-21.5-48-48s21.5-48 48-48c17 0 32 8.9 40.6 22.3l40.5-25.7c-17-26.8-47-44.6-81.1-44.6c-53 0-96 43-96 96z"/><path class="fa-primary" style="fill:var(--fa-primary-color,inherit);opacity:var(--fa-primary-opacity,1);" d="M152 256c0-26.5 21.5-48 48-48c17 0 32 8.9 40.6 22.3l40.5-25.7c-17-26.8-46.9-44.6-81.1-44.6c-53 0-96 43-96 96s43 96 96 96c34.2 0 64.1-17.8 81.1-44.6l-40.5-25.7C232 295.1 217 304 200 304c-26.5 0-48-21.5-48-48zm192 0c0-26.5 21.5-48 48-48c17 0 32 8.9 40.6 22.3l40.5-25.7c-17-26.8-47-44.6-81.1-44.6c-53 0-96 43-96 96s43 96 96 96c34.2 0 64.1-17.8 81.1-44.6l-40.5-25.7C424 295.1 409 304 392 304c-26.5 0-48-21.5-48-48z"/></svg>