<svg xmlns="http://www.w3.org/2000/svg" viewBox="0 0 640 512"><!--! Font Awesome Pro 6.6.0 by @fontawesome - https://fontawesome.com License - https://fontawesome.com/license (Commercial License) Copyright 2024 Fonticons, Inc. --><path class="fa-secondary" style="fill:var(--fa-secondary-color,inherit);opacity:var(--fa-secondary-opacity,.4);" d="M0 224l0 64 32 0 144 0 0-64L32 224 0 224zm464 0l0 64 144 0 32 0 0-64-32 0-144 0z"/><path class="fa-primary" style="fill:var(--fa-primary-color,inherit);opacity:var(--fa-primary-opacity,1);" d="M384 192l0 128-128 0 0-128 128 0zM256 112l-80 0 0 80 0 128 0 80 80 0 128 0 80 0 0-80 0-128 0-80-80 0-128 0z"/></svg>