<svg xmlns="http://www.w3.org/2000/svg" viewBox="0 0 512 512"><!--! Font Awesome Pro 6.6.0 by @fontawesome - https://fontawesome.com License - https://fontawesome.com/license (Commercial License) Copyright 2024 Fonticons, Inc. --><path class="fa-secondary" style="fill:var(--fa-secondary-color,inherit);opacity:var(--fa-secondary-opacity,.4);" d="M48 192c0-70.7 57.3-128 128-128l16 0 0-64 32 0 96 96-96 96-32 0 0-64-16 0c-35.3 0-64 28.7-64 64l0 160-8 0-48 0-8 0 0-160zM192 416l96-96 32 0 0 64 16 0c35.3 0 64-28.7 64-64l0-160c2.7 0 5.3 0 8 0l48 0 8 0 0 160c0 70.7-57.3 128-128 128l-16 0 0 64-32 0-96-96z"/><path class="fa-primary" style="fill:var(--fa-primary-color,inherit);opacity:var(--fa-primary-opacity,1);" d="M408 56l0 48 48 0 0-48-48 0zM352 0l56 0 48 0 56 0 0 56 0 48 0 56-56 0-48 0-56 0 0-56 0-48 0-56zM56 408l0 48 48 0 0-48-48 0zM0 352l56 0 48 0 56 0 0 56 0 48 0 56-56 0-48 0L0 512l0-56 0-48 0-56z"/></svg>