<svg xmlns="http://www.w3.org/2000/svg" viewBox="0 0 384 512"><!--! Font Awesome Pro 6.6.0 by @fontawesome - https://fontawesome.com License - https://fontawesome.com/license (Commercial License) Copyright 2024 Fonticons, Inc. --><path class="fa-secondary" style="fill:var(--fa-secondary-color,inherit);opacity:var(--fa-secondary-opacity,.4);" d="M0 144L104 512l176 0L384 144 272 0 112 0 0 144zm96 16l24 0 48 0 0-40 0-24 48 0 0 24 0 40 48 0 24 0 0 48-24 0-48 0 0 120 0 24-48 0 0-24 0-120-48 0-24 0 0-48z"/><path class="fa-primary" style="fill:var(--fa-primary-color,inherit);opacity:var(--fa-primary-opacity,1);" d="M216 120l0-24-48 0 0 24 0 40-48 0-24 0 0 48 24 0 48 0 0 120 0 24 48 0 0-24 0-120 48 0 24 0 0-48-24 0-48 0 0-40z"/></svg>