<svg xmlns="http://www.w3.org/2000/svg" viewBox="0 0 512 512"><!--! Font Awesome Pro 6.6.0 by @fontawesome - https://fontawesome.com License - https://fontawesome.com/license (Commercial License) Copyright 2024 Fonticons, Inc. --><path class="fa-secondary" style="fill:var(--fa-secondary-color,inherit);opacity:var(--fa-secondary-opacity,.4);" d="M0 240c0 49.6 21.3 95.1 56.9 130.8L16 480l150.4-45.1c27.9 8.5 58.1 13.1 89.6 13.1c141.4 0 256-93.1 256-208S397.4 32 256 32S0 125.1 0 240zm96-32l24 0 144 0 24 0 0 48-24 0-144 0-24 0 0-48zm0 80l24 0 48 0 24 0 0 48-24 0-48 0-24 0 0-48zm128 0l24 0 144 0 24 0 0 48-24 0-144 0-24 0 0-48zm96-80l24 0 48 0 24 0 0 48-24 0-48 0-24 0 0-48z"/><path class="fa-primary" style="fill:var(--fa-primary-color,inherit);opacity:var(--fa-primary-opacity,1);" d="M96 208l24 0 144 0 24 0 0 48-24 0-144 0-24 0 0-48zm224 0l24 0 48 0 24 0 0 48-24 0-48 0-24 0 0-48zM96 288l24 0 48 0 24 0 0 48-24 0-48 0-24 0 0-48zm128 0l24 0 144 0 24 0 0 48-24 0-144 0-24 0 0-48z"/></svg>