<svg xmlns="http://www.w3.org/2000/svg" viewBox="0 0 512 512"><!--! Font Awesome Pro 6.6.0 by @fontawesome - https://fontawesome.com License - https://fontawesome.com/license (Commercial License) Copyright 2024 Fonticons, Inc. --><path class="fa-secondary" style="fill:var(--fa-secondary-color,inherit);opacity:var(--fa-secondary-opacity,.4);" d="M0 256a256 256 0 1 0 512 0A256 256 0 1 0 0 256zm64 0C64 150 150 64 256 64l0 32C167.6 96 96 167.6 96 256l-32 0zm288 0a96 96 0 1 1 -192 0 96 96 0 1 1 192 0z"/><path class="fa-primary" style="fill:var(--fa-primary-color,inherit);opacity:var(--fa-primary-opacity,1);" d="M256 224a32 32 0 1 0 0 64 32 32 0 1 0 0-64zm96 32a96 96 0 1 1 -192 0 96 96 0 1 1 192 0z"/></svg>