<svg xmlns="http://www.w3.org/2000/svg" viewBox="0 0 640 512"><!--! Font Awesome Pro 6.6.0 by @fontawesome - https://fontawesome.com License - https://fontawesome.com/license (Commercial License) Copyright 2024 Fonticons, Inc. --><path class="fa-secondary" style="fill:var(--fa-secondary-color,inherit);opacity:var(--fa-secondary-opacity,.4);" d="M32 96l0 320 576 0 0-320L32 96zm96 32l48 0 0 24 0 208 0 24-48 0 0-24 0-208 0-24zm112 0l48 0 0 24 0 208 0 24-48 0 0-24 0-208 0-24zm112 0l48 0 0 24 0 208 0 24-48 0 0-24 0-208 0-24zm112 0l48 0 0 24 0 208 0 24-48 0 0-24 0-208 0-24z"/><path class="fa-primary" style="fill:var(--fa-primary-color,inherit);opacity:var(--fa-primary-opacity,1);" d="M32 32L0 32 0 96l32 0 576 0 32 0 0-64-32 0L32 32zm0 384L0 416l0 64 32 0 576 0 32 0 0-64-32 0L32 416z"/></svg>