<svg xmlns="http://www.w3.org/2000/svg" viewBox="0 0 640 512"><!--! Font Awesome Pro 6.6.0 by @fontawesome - https://fontawesome.com License - https://fontawesome.com/license (Commercial License) Copyright 2024 Fonticons, Inc. --><path class="fa-secondary" style="fill:var(--fa-secondary-color,inherit);opacity:var(--fa-secondary-opacity,.4);" d="M0 416c0 53 43 96 96 96l448 0c53 0 96-43 96-96s-43-96-96-96L96 320c-53 0-96 43-96 96zm160 0a32 32 0 1 1 -64 0 32 32 0 1 1 64 0zm192 0a32 32 0 1 1 -64 0 32 32 0 1 1 64 0zm192 0a32 32 0 1 1 -64 0 32 32 0 1 1 64 0z"/><path class="fa-primary" style="fill:var(--fa-primary-color,inherit);opacity:var(--fa-primary-opacity,1);" d="M320 0L64 0l0 256 256 0L320 0zM576 64L384 64l0 192 192 0 0-192z"/></svg>