<svg xmlns="http://www.w3.org/2000/svg" viewBox="0 0 576 512"><!--! Font Awesome Pro 6.6.0 by @fontawesome - https://fontawesome.com License - https://fontawesome.com/license (Commercial License) Copyright 2024 Fonticons, Inc. --><path class="fa-secondary" style="fill:var(--fa-secondary-color,inherit);opacity:var(--fa-secondary-opacity,.4);" d="M0 288l0 48 576 0 0-48-64-64-32 0L96 224l-32 0L0 288zm0 80l0 48 64 64 448 0 64-64 0-48L0 368z"/><path class="fa-primary" style="fill:var(--fa-primary-color,inherit);opacity:var(--fa-primary-opacity,1);" d="M192 32l-32 0 0 32 0 96-64 0 0 64 384 0 0-64-256 0 0-64 160 0 32 0 0-64-32 0L192 32z"/></svg>