<svg xmlns="http://www.w3.org/2000/svg" viewBox="0 0 576 512"><!--! Font Awesome Pro 6.6.0 by @fontawesome - https://fontawesome.com License - https://fontawesome.com/license (Commercial License) Copyright 2024 Fonticons, Inc. --><path class="fa-secondary" style="fill:var(--fa-secondary-color,inherit);opacity:var(--fa-secondary-opacity,.4);" d="M0 0L0 416l240 0 96 0 240 0L576 0 0 0zM64 64l448 0 0 224L64 288 64 64z"/><path class="fa-primary" style="fill:var(--fa-primary-color,inherit);opacity:var(--fa-primary-opacity,1);" d="M512 64L64 64l0 224 448 0 0-224zM416 448l-69.3 0L336 416l-96 0-10.7 32L160 448l-32 0 0 64 32 0 256 0 32 0 0-64-32 0z"/></svg>