<svg xmlns="http://www.w3.org/2000/svg" viewBox="0 0 512 512"><!--! Font Awesome Pro 6.6.0 by @fontawesome - https://fontawesome.com License - https://fontawesome.com/license (Commercial License) Copyright 2024 Fonticons, Inc. --><path class="fa-secondary" style="fill:var(--fa-secondary-color,inherit);opacity:var(--fa-secondary-opacity,.4);" d="M0 288L0 480l512 0 0-192-128 0 0 32 0 13.3-9.4 9.4-96 96L256 461.3l-22.6-22.6-96-96-9.4-9.4 0-13.3 0-32L0 288z"/><path class="fa-primary" style="fill:var(--fa-primary-color,inherit);opacity:var(--fa-primary-opacity,1);" d="M512 224l0-192L0 32 0 224l232 0 0 64-72 0 0 32 96 96 96-96 0-32-72 0 0-64 232 0z"/></svg>