<svg xmlns="http://www.w3.org/2000/svg" viewBox="0 0 512 512"><!--! Font Awesome Pro 6.6.0 by @fontawesome - https://fontawesome.com License - https://fontawesome.com/license (Commercial License) Copyright 2024 Fonticons, Inc. --><path class="fa-secondary" style="fill:var(--fa-secondary-color,inherit);opacity:var(--fa-secondary-opacity,.4);" d="M0 256L256 512 512 256 256 0 0 256zm160-40l24 0 104 0 0-72 16 0 96 96-96 96-16 0 0-72-80 0 0 64 0 24-48 0 0-24 0-88 0-24z"/><path class="fa-primary" style="fill:var(--fa-primary-color,inherit);opacity:var(--fa-primary-opacity,1);" d="M288 336l16 0 96-96-96-96-16 0 0 72-104 0-24 0 0 24 0 88 0 24 48 0 0-24 0-64 80 0 0 72z"/></svg>