<svg xmlns="http://www.w3.org/2000/svg" viewBox="0 0 448 512"><!--! Font Awesome Pro 6.6.0 by @fontawesome - https://fontawesome.com License - https://fontawesome.com/license (Commercial License) Copyright 2024 Fonticons, Inc. --><path class="fa-secondary" style="fill:var(--fa-secondary-color,inherit);opacity:var(--fa-secondary-opacity,.4);" d="M0 32L0 480l448 0 0-448L0 32zM160 160a32 32 0 1 1 -64 0 32 32 0 1 1 64 0zm0 192a32 32 0 1 1 -64 0 32 32 0 1 1 64 0zm96-96a32 32 0 1 1 -64 0 32 32 0 1 1 64 0zm96-96a32 32 0 1 1 -64 0 32 32 0 1 1 64 0zm0 192a32 32 0 1 1 -64 0 32 32 0 1 1 64 0z"/><path class="fa-primary" style="fill:var(--fa-primary-color,inherit);opacity:var(--fa-primary-opacity,1);" d="M96 160a32 32 0 1 1 64 0 32 32 0 1 1 -64 0zm0 192a32 32 0 1 1 64 0 32 32 0 1 1 -64 0zM224 224a32 32 0 1 1 0 64 32 32 0 1 1 0-64zm64-64a32 32 0 1 1 64 0 32 32 0 1 1 -64 0zm32 160a32 32 0 1 1 0 64 32 32 0 1 1 0-64z"/></svg>