<svg xmlns="http://www.w3.org/2000/svg" viewBox="0 0 512 512"><!--! Font Awesome Pro 6.6.0 by @fontawesome - https://fontawesome.com License - https://fontawesome.com/license (Commercial License) Copyright 2024 Fonticons, Inc. --><path class="fa-secondary" style="fill:var(--fa-secondary-color,inherit);opacity:var(--fa-secondary-opacity,.4);" d="M96 256a160 160 0 1 0 320 0A160 160 0 1 0 96 256zm192 0a32 32 0 1 1 -64 0 32 32 0 1 1 64 0z"/><path class="fa-primary" style="fill:var(--fa-primary-color,inherit);opacity:var(--fa-primary-opacity,1);" d="M32 32l448 0 0 384 32 0 0 64-32 0L32 480 0 480l0-64 32 0L32 32zM224 256a32 32 0 1 1 64 0 32 32 0 1 1 -64 0zm192 0A160 160 0 1 0 96 256a160 160 0 1 0 320 0z"/></svg>