<svg xmlns="http://www.w3.org/2000/svg" viewBox="0 0 384 512"><!--! Font Awesome Pro 6.6.0 by @fontawesome - https://fontawesome.com License - https://fontawesome.com/license (Commercial License) Copyright 2024 Fonticons, Inc. --><path class="fa-secondary" style="fill:var(--fa-secondary-color,inherit);opacity:var(--fa-secondary-opacity,.4);" d="M0 448l0 64 384 0 0-64L0 448zM192 64l0 64 64 0 0-64-64 0zm128 0l0 64 32 0 0-64-32 0z"/><path class="fa-primary" style="fill:var(--fa-primary-color,inherit);opacity:var(--fa-primary-opacity,1);" d="M320 32l-64 0 0 145.1c-18.8-10.9-40.7-17.1-64-17.1c-70.7 0-128 57.3-128 128s57.3 128 128 128c23.3 0 45.2-6.2 64-17.1l0 17.1 64 0 0-128 0-256zM128 288a64 64 0 1 1 128 0 64 64 0 1 1 -128 0z"/></svg>