<svg xmlns="http://www.w3.org/2000/svg" viewBox="0 0 640 512"><!--! Font Awesome Pro 6.6.0 by @fontawesome - https://fontawesome.com License - https://fontawesome.com/license (Commercial License) Copyright 2024 Fonticons, Inc. --><path class="fa-secondary" style="fill:var(--fa-secondary-color,inherit);opacity:var(--fa-secondary-opacity,.4);" d="M0 224l0 64 32 0 0-64L0 224zm192 0l0 64 256 0 0-64-256 0zm416 0l0 64 32 0 0-64-32 0z"/><path class="fa-primary" style="fill:var(--fa-primary-color,inherit);opacity:var(--fa-primary-opacity,1);" d="M192 32L96 32l0 96-64 0 0 256 64 0 0 96 96 0 0-448zm256 0l0 448 96 0 0-96 64 0 0-256-64 0 0-96-96 0z"/></svg>