<svg xmlns="http://www.w3.org/2000/svg" viewBox="0 0 512 512"><!--! Font Awesome Pro 6.6.0 by @fontawesome - https://fontawesome.com License - https://fontawesome.com/license (Commercial License) Copyright 2024 Fonticons, Inc. --><path class="fa-secondary" style="fill:var(--fa-secondary-color,inherit);opacity:var(--fa-secondary-opacity,.4);" d="M192 192l0 48 0 32 0 48 48 0 32 0 48 0 0-48 0-32 0-48-48 0-32 0-48 0zm48 48l32 0 0 32-32 0 0-32z"/><path class="fa-primary" style="fill:var(--fa-primary-color,inherit);opacity:var(--fa-primary-opacity,1);" d="M80 272l32 0 0-32-32 0 0 32zM32 320l0-48 0-32 0-48 48 0 32 0 48 0 0 48 0 32 0 48-48 0-32 0-48 0zm368-48l32 0 0-32-32 0 0 32zm-48 48l0-48 0-32 0-48 48 0 32 0 48 0 0 48 0 32 0 48-48 0-32 0-48 0z"/></svg>