<svg xmlns="http://www.w3.org/2000/svg" viewBox="0 0 640 512"><!--! Font Awesome Pro 6.6.0 by @fontawesome - https://fontawesome.com License - https://fontawesome.com/license (Commercial License) Copyright 2024 Fonticons, Inc. --><path class="fa-secondary" style="fill:var(--fa-secondary-color,inherit);opacity:var(--fa-secondary-opacity,.4);" d="M32 384l0 128 64 0 96 0 24 0 18.1-15.8L472 288l72 0 64 0 0-128-64 0-96 0-24 0-18.1 15.8L168 384l-72 0-64 0z"/><path class="fa-primary" style="fill:var(--fa-primary-color,inherit);opacity:var(--fa-primary-opacity,1);" d="M256 0a48 48 0 1 1 0 96 48 48 0 1 1 0-96zm64 128l0 80.4-128 112L192 128l128 0z"/></svg>