<svg xmlns="http://www.w3.org/2000/svg" viewBox="0 0 512 512"><!--! Font Awesome Pro 6.6.0 by @fontawesome - https://fontawesome.com License - https://fontawesome.com/license (Commercial License) Copyright 2024 Fonticons, Inc. --><path class="fa-secondary" style="fill:var(--fa-secondary-color,inherit);opacity:var(--fa-secondary-opacity,.4);" d="M0 192l64 0 0-64 64 0 0-64 256 0 0 64 64 0 0 64 64 0 0 256-96 0 0-112 0-16-32 0 0 16 0 112-64 0 0-112 0-16-32 0 0 16 0 112-64 0 0-112 0-16-32 0 0 16 0 112-64 0 0-112 0-16-32 0 0 16 0 112L0 448 0 192z"/><path class="fa-primary" style="fill:var(--fa-primary-color,inherit);opacity:var(--fa-primary-opacity,1);" d="M128 320l0 16 0 112-32 0 0-112 0-16 32 0zm96 0l0 16 0 112-32 0 0-112 0-16 32 0zm96 0l0 16 0 112-32 0 0-112 0-16 32 0zm96 0l0 16 0 112-32 0 0-112 0-16 32 0z"/></svg>