<svg xmlns="http://www.w3.org/2000/svg" viewBox="0 0 512 512"><!--! Font Awesome Pro 6.6.0 by @fontawesome - https://fontawesome.com License - https://fontawesome.com/license (Commercial License) Copyright 2024 Fonticons, Inc. --><path class="fa-secondary" style="fill:var(--fa-secondary-color,inherit);opacity:var(--fa-secondary-opacity,.4);" d="M0 288l0 32 0 96 0 32 32 0 96 0 32 0 0-64-32 0-64 0 0-64 0-32L0 288zM352 64l0 64 32 0 64 0 0 64 0 32 64 0 0-32 0-96 0-32-32 0-96 0-32 0z"/><path class="fa-primary" style="fill:var(--fa-primary-color,inherit);opacity:var(--fa-primary-opacity,1);" d="M0 192l0 32 64 0 0-32 0-64 64 0 32 0 0-64-32 0L32 64 0 64 0 96l0 96zM512 320l0-32-64 0 0 32 0 64-64 0-32 0 0 64 32 0 96 0 32 0 0-32 0-96z"/></svg>