<svg xmlns="http://www.w3.org/2000/svg" viewBox="0 0 512 512"><!--! Font Awesome Pro 6.6.0 by @fontawesome - https://fontawesome.com License - https://fontawesome.com/license (Commercial License) Copyright 2024 Fonticons, Inc. --><path class="fa-secondary" style="fill:var(--fa-secondary-color,inherit);opacity:var(--fa-secondary-opacity,.4);" d="M0 256a256 256 0 1 0 512 0A256 256 0 1 0 0 256zm232-32A72 72 0 1 1 88 224a72 72 0 1 1 144 0zM176 368l16 0 128 0 16 0 0 32-16 0-128 0-16 0 0-32zM424 224a72 72 0 1 1 -144 0 72 72 0 1 1 144 0z"/><path class="fa-primary" style="fill:var(--fa-primary-color,inherit);opacity:var(--fa-primary-opacity,1);" d="M160 248a24 24 0 1 0 0-48 24 24 0 1 0 0 48zm192 0a24 24 0 1 0 0-48 24 24 0 1 0 0 48z"/></svg>