<svg xmlns="http://www.w3.org/2000/svg" viewBox="0 0 576 512"><!--! Font Awesome Pro 6.6.0 by @fontawesome - https://fontawesome.com License - https://fontawesome.com/license (Commercial License) Copyright 2024 Fonticons, Inc. --><path class="fa-secondary" style="fill:var(--fa-secondary-color,inherit);opacity:var(--fa-secondary-opacity,.4);" d="M160 264l56-136L368 64l152 64 56 136 0 248-144 0 0-112-128 0 0 112-144 0 0-248zm160-40l0 96c32 0 64 0 96 0l0-96c-32 0-64 0-96 0z"/><path class="fa-primary" style="fill:var(--fa-primary-color,inherit);opacity:var(--fa-primary-opacity,1);" d="M0 96C0 43 43 0 96 0s96 43 96 96L0 96zM0 512L0 128l181.4 0-51 123.8c-1.6 3.9-2.4 8-2.4 12.2l0 248L0 512zM416 224l0 96-96 0 0-96 96 0z"/></svg>