<svg xmlns="http://www.w3.org/2000/svg" viewBox="0 0 512 512"><!--! Font Awesome Pro 6.6.0 by @fontawesome - https://fontawesome.com License - https://fontawesome.com/license (Commercial License) Copyright 2024 Fonticons, Inc. --><path class="fa-secondary" style="fill:var(--fa-secondary-color,inherit);opacity:var(--fa-secondary-opacity,.4);" d="M128 0l0 192 352 0 0-128L416 0 128 0zm96 256l0 64 64 0 0-64-64 0zm0 128l0 64 64 0 0-64-64 0zM352 256l0 64 64 0 0-64-64 0zm0 128l0 64 64 0 0-64-64 0z"/><path class="fa-primary" style="fill:var(--fa-primary-color,inherit);opacity:var(--fa-primary-opacity,1);" d="M96 128L0 128 0 512l96 0 0-384zm416 64l-384 0 0 320 384 0 0-320zM288 256l0 64-64 0 0-64 64 0zM224 384l64 0 0 64-64 0 0-64zM416 256l0 64-64 0 0-64 64 0zM352 384l64 0 0 64-64 0 0-64z"/></svg>