<svg xmlns="http://www.w3.org/2000/svg" viewBox="0 0 576 512"><!--! Font Awesome Pro 6.6.0 by @fontawesome - https://fontawesome.com License - https://fontawesome.com/license (Commercial License) Copyright 2024 Fonticons, Inc. --><path class="fa-secondary" style="fill:var(--fa-secondary-color,inherit);opacity:var(--fa-secondary-opacity,.4);" d="M0 0L224 0l0 160 160 0 0 128-168 0-24 0 0 48 24 0 168 0 0 176L0 512 0 0z"/><path class="fa-primary" style="fill:var(--fa-primary-color,inherit);opacity:var(--fa-primary-opacity,1);" d="M384 160L224 0l0 160 160 0zm105 55l-17-17L438.1 232l17 17 39 39L216 288l-24 0 0 48 24 0 278.1 0-39 39-17 17L472 425.9l17-17 80-80 17-17-17-17-80-80z"/></svg>