<svg xmlns="http://www.w3.org/2000/svg" viewBox="0 0 384 512"><!--! Font Awesome Pro 6.6.0 by @fontawesome - https://fontawesome.com License - https://fontawesome.com/license (Commercial License) Copyright 2024 Fonticons, Inc. --><path class="fa-secondary" style="fill:var(--fa-secondary-color,inherit);opacity:var(--fa-secondary-opacity,.4);" d="M0 0L224 0l0 160 160 0 0 352L0 512 0 0zM64 256l0 160 160 0 0-160L64 256zm192 48l0 64 64 32 0-128-64 32z"/><path class="fa-primary" style="fill:var(--fa-primary-color,inherit);opacity:var(--fa-primary-opacity,1);" d="M384 160L224 0l0 160 160 0zM64 256l0 160 160 0 0-160L64 256zM320 400l0-128-64 32 0 64 64 32z"/></svg>