<svg xmlns="http://www.w3.org/2000/svg" viewBox="0 0 384 512"><!--! Font Awesome Pro 6.6.0 by @fontawesome - https://fontawesome.com License - https://fontawesome.com/license (Commercial License) Copyright 2024 Fonticons, Inc. --><path class="fa-secondary" style="fill:var(--fa-secondary-color,inherit);opacity:var(--fa-secondary-opacity,.4);" d="M0 0L224 0l0 160 160 0 0 352L0 512 0 0zM96 312l0 48 24 0 48 0 0 48 0 24 48 0 0-24 0-48 48 0 24 0 0-48-24 0-48 0 0-48 0-24-48 0 0 24 0 48-48 0-24 0z"/><path class="fa-primary" style="fill:var(--fa-primary-color,inherit);opacity:var(--fa-primary-opacity,1);" d="M384 160l-160 0L224 0 384 160zM216 240l0 24 0 48 48 0 24 0 0 48-24 0-48 0 0 48 0 24-48 0 0-24 0-48-48 0-24 0 0-48 24 0 48 0 0-48 0-24 48 0z"/></svg>