<svg xmlns="http://www.w3.org/2000/svg" viewBox="0 0 576 512"><!--! Font Awesome Pro 6.6.0 by @fontawesome - https://fontawesome.com License - https://fontawesome.com/license (Commercial License) Copyright 2024 Fonticons, Inc. --><path class="fa-secondary" style="fill:var(--fa-secondary-color,inherit);opacity:var(--fa-secondary-opacity,.4);" d="M32 96l288 0 0 32 0 288 0 32L32 448 32 96z"/><path class="fa-primary" style="fill:var(--fa-primary-color,inherit);opacity:var(--fa-primary-opacity,1);" d="M96 0L256 0l0 32 64 0 32 0 0 64-32 0L32 96 0 96 0 32l32 0 64 0L96 0zM0 448l32 0 288 0 32 0 0 64-32 0L32 512 0 512l0-64zM320 128l256 0 0 192-64 0 0 96-192 0 0-288zm72 40l0 48 48 0 0-48-48 0zm144 0l-48 0 0 48 48 0 0-48zM392 328l0 48 48 0 0-48-48 0z"/></svg>