<svg xmlns="http://www.w3.org/2000/svg" viewBox="0 0 512 512"><!--! Font Awesome Pro 6.6.0 by @fontawesome - https://fontawesome.com License - https://fontawesome.com/license (Commercial License) Copyright 2024 Fonticons, Inc. --><path class="fa-secondary" style="fill:var(--fa-secondary-color,inherit);opacity:var(--fa-secondary-opacity,.4);" d="M0 64l0 64L112 256l0 128 128 96 0-224L352 128l0-64L0 64z"/><path class="fa-primary" style="fill:var(--fa-primary-color,inherit);opacity:var(--fa-primary-opacity,1);" d="M416 64l64 0 32 0 0 64-32 0-64 0-32 0 0-64 32 0zM320 224l32 0 128 0 32 0 0 64-32 0-128 0-32 0 0-64zm0 160l32 0 128 0 32 0 0 64-32 0-128 0-32 0 0-64z"/></svg>