<svg xmlns="http://www.w3.org/2000/svg" viewBox="0 0 576 512"><!--! Font Awesome Pro 6.6.0 by @fontawesome - https://fontawesome.com License - https://fontawesome.com/license (Commercial License) Copyright 2024 Fonticons, Inc. --><path class="fa-secondary" style="fill:var(--fa-secondary-color,inherit);opacity:var(--fa-secondary-opacity,.4);" d="M0 160l48 96L0 352l32 32 110.8-55.4C182.2 377.1 246.6 432 336 432c160 0 240-176 240-176s-80-176-240-176c-89.4 0-153.8 54.9-193.2 103.4L32 128 0 160zm448 96a32 32 0 1 1 -64 0 32 32 0 1 1 64 0z"/><path class="fa-primary" style="fill:var(--fa-primary-color,inherit);opacity:var(--fa-primary-opacity,1);" d="M416 224a32 32 0 1 0 0 64 32 32 0 1 0 0-64z"/></svg>