<svg xmlns="http://www.w3.org/2000/svg" viewBox="0 0 576 512"><!--! Font Awesome Pro 6.6.0 by @fontawesome - https://fontawesome.com License - https://fontawesome.com/license (Commercial License) Copyright 2024 Fonticons, Inc. --><path class="fa-secondary" style="fill:var(--fa-secondary-color,inherit);opacity:var(--fa-secondary-opacity,.4);" d="M0 128L64 256 0 384l32 32 64-64 0-48 0-24 0-48 0-24 0-48L32 96 0 128zm416-16l0 120 64 0 0 48-64 0 0 120 32 0L576 256 448 112l-32 0z"/><path class="fa-primary" style="fill:var(--fa-primary-color,inherit);opacity:var(--fa-primary-opacity,1);" d="M184 160l0-24-48 0 0 24 0 72-40 0 0 48 40 0 0 72 0 24 48 0 0-24 0-72 48 0 0 72 0 24 48 0 0-24 0-72 48 0 0 72 0 24 48 0 0-24 0-72 104 0 0-48-104 0 0-72 0-24-48 0 0 24 0 72-48 0 0-72 0-24-48 0 0 24 0 72-48 0 0-72z"/></svg>