<svg xmlns="http://www.w3.org/2000/svg" viewBox="0 0 448 512"><!--! Font Awesome Pro 6.6.0 by @fontawesome - https://fontawesome.com License - https://fontawesome.com/license (Commercial License) Copyright 2024 Fonticons, Inc. --><path class="fa-secondary" style="fill:var(--fa-secondary-color,inherit);opacity:var(--fa-secondary-opacity,.4);" d="M0 32L0 64 0 448l0 32 32 0 384 0 32 0 0-32 0-288 0-13.3-9.4-9.4-96-96L333.3 32 320 32 32 32 0 32zM64 96l256 0 0 128L64 224 64 96zM288 352a64 64 0 1 1 -128 0 64 64 0 1 1 128 0z"/><path class="fa-primary" style="fill:var(--fa-primary-color,inherit);opacity:var(--fa-primary-opacity,1);" d="M224 288a64 64 0 1 0 0 128 64 64 0 1 0 0-128z"/></svg>