<svg xmlns="http://www.w3.org/2000/svg" viewBox="0 0 576 512"><!--! Font Awesome Pro 6.6.0 by @fontawesome - https://fontawesome.com License - https://fontawesome.com/license (Commercial License) Copyright 2024 Fonticons, Inc. --><path class="fa-secondary" style="fill:var(--fa-secondary-color,inherit);opacity:var(--fa-secondary-opacity,.4);" d="M0 0L0 32l0 96L0 416l0 32 32 0 256 0 0-64L64 384l0-224 224 0 0-64L64 96l0-64L64 0 0 0z"/><path class="fa-primary" style="fill:var(--fa-primary-color,inherit);opacity:var(--fa-primary-opacity,1);" d="M288 0l0 224 288 0 0-192L432 32 400 0 288 0zm0 288l0 224 288 0 0-192-144 0-32-32-112 0z"/></svg>