<svg xmlns="http://www.w3.org/2000/svg" viewBox="0 0 512 512"><!--! Font Awesome Pro 6.6.0 by @fontawesome - https://fontawesome.com License - https://fontawesome.com/license (Commercial License) Copyright 2024 Fonticons, Inc. --><path class="fa-secondary" style="fill:var(--fa-secondary-color,inherit);opacity:var(--fa-secondary-opacity,.4);" d="M0 32L0 480l512 0 0-384L272 96 224 32 0 32zM152 416l24-64 160 0 24 64-208 0zM320 256a64 64 0 1 1 -128 0 64 64 0 1 1 128 0z"/><path class="fa-primary" style="fill:var(--fa-primary-color,inherit);opacity:var(--fa-primary-opacity,1);" d="M256 320a64 64 0 1 0 0-128 64 64 0 1 0 0 128zm104 96l-24-64-160 0-24 64 208 0z"/></svg>