<svg xmlns="http://www.w3.org/2000/svg" viewBox="0 0 384 512"><!--! Font Awesome Pro 6.6.0 by @fontawesome - https://fontawesome.com License - https://fontawesome.com/license (Commercial License) Copyright 2024 Fonticons, Inc. --><path class="fa-secondary" style="fill:var(--fa-secondary-color,inherit);opacity:var(--fa-secondary-opacity,.4);" d="M0 0L384 0l0 512L0 512 0 0zM64 320l0 32 32 0 0 32 32 0 0-32 32 0 0-32-32 0 0-32-32 0 0 32-32 0zM96 64l0 160 192 0 0-160L96 64zM208 360a24 24 0 1 0 48 0 24 24 0 1 0 -48 0zm64-48a24 24 0 1 0 48 0 24 24 0 1 0 -48 0z"/><path class="fa-primary" style="fill:var(--fa-primary-color,inherit);opacity:var(--fa-primary-opacity,1);" d="M96 64H288V224H96V64z"/></svg>