<svg xmlns="http://www.w3.org/2000/svg" viewBox="0 0 384 512"><!--! Font Awesome Pro 6.6.0 by @fontawesome - https://fontawesome.com License - https://fontawesome.com/license (Commercial License) Copyright 2024 Fonticons, Inc. --><path class="fa-secondary" style="fill:var(--fa-secondary-color,inherit);opacity:var(--fa-secondary-opacity,.4);" d="M0 192L0 480l48-32 72 64 72-64 72 64 72-64 48 32 0-288C384 86 298 0 192 0S0 86 0 192zm160 0a32 32 0 1 1 -64 0 32 32 0 1 1 64 0zm128 0a32 32 0 1 1 -64 0 32 32 0 1 1 64 0z"/><path class="fa-primary" style="fill:var(--fa-primary-color,inherit);opacity:var(--fa-primary-opacity,1);" d="M128 224a32 32 0 1 0 0-64 32 32 0 1 0 0 64zm128 0a32 32 0 1 0 0-64 32 32 0 1 0 0 64z"/></svg>