<svg xmlns="http://www.w3.org/2000/svg" viewBox="0 0 448 512"><!--! Font Awesome Pro 6.6.0 by @fontawesome - https://fontawesome.com License - https://fontawesome.com/license (Commercial License) Copyright 2024 Fonticons, Inc. --><path class="fa-secondary" style="fill:var(--fa-secondary-color,inherit);opacity:var(--fa-secondary-opacity,.4);" d="M64 224l0 64 32 0 0 128 64 0 0-128 32 0 0 128 64 0 0-128 32 0 0 128 64 0 0-128 32 0 0-64-32 0 0-128-64 0 0 128-32 0 0-128-64 0 0 128-32 0 0-128L96 96l0 128-32 0z"/><path class="fa-primary" style="fill:var(--fa-primary-color,inherit);opacity:var(--fa-primary-opacity,1);" d="M0 32l448 0 0 448L0 480 0 32zM64 96l0 320 320 0 0-320L64 96z"/></svg>