<svg xmlns="http://www.w3.org/2000/svg" viewBox="0 0 512 512"><!--! Font Awesome Pro 6.6.0 by @fontawesome - https://fontawesome.com License - https://fontawesome.com/license (Commercial License) Copyright 2024 Fonticons, Inc. --><path class="fa-secondary" style="fill:var(--fa-secondary-color,inherit);opacity:var(--fa-secondary-opacity,.4);" d="M224 128A96 96 0 1 1 32 128a96 96 0 1 1 192 0zm0 256A96 96 0 1 1 32 384a96 96 0 1 1 192 0zM480 128a96 96 0 1 1 -192 0 96 96 0 1 1 192 0z"/><path class="fa-primary" style="fill:var(--fa-primary-color,inherit);opacity:var(--fa-primary-opacity,1);" d="M408 296c0-13.3-10.7-24-24-24s-24 10.7-24 24l0 64-64 0c-13.3 0-24 10.7-24 24s10.7 24 24 24l64 0 0 64c0 13.3 10.7 24 24 24s24-10.7 24-24l0-64 64 0c13.3 0 24-10.7 24-24s-10.7-24-24-24l-64 0 0-64z"/></svg>