<svg xmlns="http://www.w3.org/2000/svg" viewBox="0 0 512 512"><!--! Font Awesome Pro 6.6.0 by @fontawesome - https://fontawesome.com License - https://fontawesome.com/license (Commercial License) Copyright 2024 Fonticons, Inc. --><path class="fa-secondary" style="fill:var(--fa-secondary-color,inherit);opacity:var(--fa-secondary-opacity,.4);" d="M32 32l192 0 0 192L32 224 32 32zm0 256l192 0 0 192L32 480l0-192zM288 32l192 0 0 192-192 0 0-192z"/><path class="fa-primary" style="fill:var(--fa-primary-color,inherit);opacity:var(--fa-primary-opacity,1);" d="M408 296l0-24-48 0 0 24 0 64-64 0-24 0 0 48 24 0 64 0 0 64 0 24 48 0 0-24 0-64 64 0 24 0 0-48-24 0-64 0 0-64z"/></svg>