<svg xmlns="http://www.w3.org/2000/svg" viewBox="0 0 512 512"><!--! Font Awesome Pro 6.6.0 by @fontawesome - https://fontawesome.com License - https://fontawesome.com/license (Commercial License) Copyright 2024 Fonticons, Inc. --><path class="fa-secondary" style="fill:var(--fa-secondary-color,inherit);opacity:var(--fa-secondary-opacity,.4);" d="M32 384a96 96 0 1 0 192 0A96 96 0 1 0 32 384zM288 128a96 96 0 1 0 192 0 96 96 0 1 0 -192 0z"/><path class="fa-primary" style="fill:var(--fa-primary-color,inherit);opacity:var(--fa-primary-opacity,1);" d="M128 32a96 96 0 1 0 0 192 96 96 0 1 0 0-192zM384 288a96 96 0 1 0 0 192 96 96 0 1 0 0-192z"/></svg>