<svg xmlns="http://www.w3.org/2000/svg" viewBox="0 0 448 512"><!--! Font Awesome Pro 6.6.0 by @fontawesome - https://fontawesome.com License - https://fontawesome.com/license (Commercial License) Copyright 2024 Fonticons, Inc. --><path class="fa-secondary" style="fill:var(--fa-secondary-color,inherit);opacity:var(--fa-secondary-opacity,.4);" d="M0 192L0 320l128 0 0-128L0 192zM160 32l0 128 128 0 0-128L160 32zm0 320l0 128 128 0 0-128-128 0zM320 192l0 128 128 0 0-128-128 0z"/><path class="fa-primary" style="fill:var(--fa-primary-color,inherit);opacity:var(--fa-primary-opacity,1);" d="M0 32l128 0 0 128L0 160 0 32zM0 352l128 0 0 128L0 480 0 352zM288 192l0 128-128 0 0-128 128 0zM320 32l128 0 0 128-128 0 0-128zM448 352l0 128-128 0 0-128 128 0z"/></svg>