<svg xmlns="http://www.w3.org/2000/svg" viewBox="0 0 512 512"><!--! Font Awesome Pro 6.6.0 by @fontawesome - https://fontawesome.com License - https://fontawesome.com/license (Commercial License) Copyright 2024 Fonticons, Inc. --><path class="fa-secondary" style="fill:var(--fa-secondary-color,inherit);opacity:var(--fa-secondary-opacity,.4);" d="M32 96l0 128 128 0 0-128L32 96zm0 288l0 128 128 0 0-128L32 384zM192 96l0 128 128 0 0-128L192 96zm0 288l0 128 128 0 0-128-128 0zM352 96l0 128 128 0 0-128L352 96zm0 288l0 128 128 0 0-128-128 0z"/><path class="fa-primary" style="fill:var(--fa-primary-color,inherit);opacity:var(--fa-primary-opacity,1);" d="M512 0L0 0 0 48l512 0 0-48zm0 288L0 288l0 48 512 0 0-48z"/></svg>