<svg xmlns="http://www.w3.org/2000/svg" viewBox="0 0 640 512"><!--! Font Awesome Pro 6.6.0 by @fontawesome - https://fontawesome.com License - https://fontawesome.com/license (Commercial License) Copyright 2024 Fonticons, Inc. --><path class="fa-secondary" style="fill:var(--fa-secondary-color,inherit);opacity:var(--fa-secondary-opacity,.4);" d="M0 64L0 96 0 256 0 416l0 32 64 0 0-32 0-128 192 0 0 128 0 32 64 0 0-32 0-160 0-160 0-32-64 0 0 32 0 128L64 224 64 96l0-32L0 64z"/><path class="fa-primary" style="fill:var(--fa-primary-color,inherit);opacity:var(--fa-primary-opacity,1);" d="M384.5 282.2L424.5 64l65.1 0L454.4 256 576 256l0-160 0-32 64 0 0 32 0 320 0 32-64 0 0-32 0-96-160 0-38.4 0 6.9-37.8z"/></svg>