<svg xmlns="http://www.w3.org/2000/svg" viewBox="0 0 640 512"><!--! Font Awesome Pro 6.6.0 by @fontawesome - https://fontawesome.com License - https://fontawesome.com/license (Commercial License) Copyright 2024 Fonticons, Inc. --><path class="fa-secondary" style="fill:var(--fa-secondary-color,inherit);opacity:var(--fa-secondary-opacity,.4);" d="M224 64l0 64 0 96c0 26.7 0 53.3 0 80l96 0 0-112 192 0 0 112 0-32 32-32 96-96L496 0 432 64 224 64z"/><path class="fa-primary" style="fill:var(--fa-primary-color,inherit);opacity:var(--fa-primary-opacity,1);" d="M224 128L96 128l0 144L0 368 144 512l64-64 224 0 0-64 48 0 0-80 32 0 0-112-192 0 0 112-96 0 0-176z"/></svg>