<svg xmlns="http://www.w3.org/2000/svg" viewBox="0 0 576 512"><!--! Font Awesome Pro 6.6.0 by @fontawesome - https://fontawesome.com License - https://fontawesome.com/license (Commercial License) Copyright 2024 Fonticons, Inc. --><path class="fa-secondary" style="fill:var(--fa-secondary-color,inherit);opacity:var(--fa-secondary-opacity,.4);" d="M0 416l96 0 128 0 32 0 64 0 32 0 128 0 96 0 0 32L448 512l-320 0L0 448l0-32z"/><path class="fa-primary" style="fill:var(--fa-primary-color,inherit);opacity:var(--fa-primary-opacity,1);" d="M96 416L224 128 440 0 544 88 512 192l-32-64-64 0-32 64 96 224-128 0 0-80 0-16-16 0-96 0-16 0 0 16 0 80L96 416zm160 0l0-64 64 0 0 64-64 0z"/></svg>