<svg xmlns="http://www.w3.org/2000/svg" viewBox="0 0 512 512"><!--! Font Awesome Pro 6.6.0 by @fontawesome - https://fontawesome.com License - https://fontawesome.com/license (Commercial License) Copyright 2024 Fonticons, Inc. --><path class="fa-secondary" style="fill:var(--fa-secondary-color,inherit);opacity:var(--fa-secondary-opacity,.4);" d="M0 448l0 64 32 0 448 0 32 0 0-64-32 0-16 0L48 448l-16 0L0 448zM224 176l32 16 16 32 16-32 32-16-32-16-16-32-16 32-32 16z"/><path class="fa-primary" style="fill:var(--fa-primary-color,inherit);opacity:var(--fa-primary-opacity,1);" d="M192 128L48 448l416 0L352 192 416 0 192 128zm8 200l24-56 24 56 56 24-56 24-24 56-24-56-56-24 56-24zm72-104l-16-32-32-16 32-16 16-32 16 32 32 16-32 16-16 32z"/></svg>