<svg xmlns="http://www.w3.org/2000/svg" viewBox="0 0 512 512"><!--! Font Awesome Pro 6.6.0 by @fontawesome - https://fontawesome.com License - https://fontawesome.com/license (Commercial License) Copyright 2024 Fonticons, Inc. --><path class="fa-secondary" style="fill:var(--fa-secondary-color,inherit);opacity:var(--fa-secondary-opacity,.4);" d="M0 256L128 32l256 0L512 256 384 480l-256 0L0 256zM232 128l0 24 0 112 0 24 48 0 0-24 0-112 0-24-48 0zm0 192l0 48 48 0 0-48-48 0z"/><path class="fa-primary" style="fill:var(--fa-primary-color,inherit);opacity:var(--fa-primary-opacity,1);" d="M280 152l0-24-48 0 0 24 0 112 0 24 48 0 0-24 0-112zm0 168l-48 0 0 48 48 0 0-48z"/></svg>