<svg xmlns="http://www.w3.org/2000/svg" viewBox="0 0 576 512"><!--! Font Awesome Pro 6.6.0 by @fontawesome - https://fontawesome.com License - https://fontawesome.com/license (Commercial License) Copyright 2024 Fonticons, Inc. --><path class="fa-secondary" style="fill:var(--fa-secondary-color,inherit);opacity:var(--fa-secondary-opacity,.4);" d="M0 0L320 0l0 359L253.1 512 0 512 0 384l144 0 16 0 0-32-16 0L0 352l0-64 144 0 16 0 0-32-16 0L0 256 0 0zM96 104l0 48 40 0 0 40 48 0 0-40 40 0 0-48-40 0 0-40-48 0 0 40-40 0z"/><path class="fa-primary" style="fill:var(--fa-primary-color,inherit);opacity:var(--fa-primary-opacity,1);" d="M432 352a80 80 0 1 0 0-160 80 80 0 1 0 0 160zM576 512L520 384l-176 0L288 512l288 0z"/></svg>