<svg xmlns="http://www.w3.org/2000/svg" viewBox="0 0 640 512"><!--! Font Awesome Pro 6.6.0 by @fontawesome - https://fontawesome.com License - https://fontawesome.com/license (Commercial License) Copyright 2024 Fonticons, Inc. --><path class="fa-secondary" style="fill:var(--fa-secondary-color,inherit);opacity:var(--fa-secondary-opacity,.4);" d="M320 0L640 0l0 512-224 0 0-160 32 0 0-64-32 0 0-32 32 0 0-64-64 0 0 22.3L320 161 320 0zm64 96l0 64 64 0 0-64-64 0zm128 0l0 64 64 0 0-64-64 0zm0 96l0 64 64 0 0-64-64 0zm0 96l0 64 64 0 0-64-64 0z"/><path class="fa-primary" style="fill:var(--fa-primary-color,inherit);opacity:var(--fa-primary-opacity,1);" d="M0 512L0 256 192 96 384 256l0 256L0 512zM240 368l0-96-96 0 0 96 96 0z"/></svg>