<svg xmlns="http://www.w3.org/2000/svg" viewBox="0 0 640 512"><!--! Font Awesome Pro 6.6.0 by @fontawesome - https://fontawesome.com License - https://fontawesome.com/license (Commercial License) Copyright 2024 Fonticons, Inc. --><path class="fa-secondary" style="fill:var(--fa-secondary-color,inherit);opacity:var(--fa-secondary-opacity,.4);" d="M0 240l0 47.6 64.1 0 0 224.4L224 512l0-160 96.7 0c8.1-89.7 83.5-160 175.3-160c8.3 0 16.5 .6 24.5 1.7L288.4 0 0 240z"/><path class="fa-primary" style="fill:var(--fa-primary-color,inherit);opacity:var(--fa-primary-opacity,1);" d="M352 368a144 144 0 1 1 288 0 144 144 0 1 1 -288 0zm160 48l-32 0 0 32 32 0 0-32zm0-128l0-16-32 0 0 16 0 80 0 16 32 0 0-16 0-80z"/></svg>