<svg xmlns="http://www.w3.org/2000/svg" viewBox="0 0 576 512"><!--! Font Awesome Pro 6.6.0 by @fontawesome - https://fontawesome.com License - https://fontawesome.com/license (Commercial License) Copyright 2024 Fonticons, Inc. --><path class="fa-secondary" style="fill:var(--fa-secondary-color,inherit);opacity:var(--fa-secondary-opacity,.4);" d="M64 272l.1 240 448.5 0-.5-224c-.1-5.3-.1-10.7-.1-16C437.3 210.7 362.7 149.3 288 88C213.3 149.3 138.7 210.6 64 272zm160-32l128 0 0 128-128 0 0-128z"/><path class="fa-primary" style="fill:var(--fa-primary-color,inherit);opacity:var(--fa-primary-opacity,1);" d="M288 0L0 240l0 32 64 0L288 88 512 272l64 0 0-32-64-53.3L512 32l-96 0 0 74.7L288 0z"/></svg>