<svg xmlns="http://www.w3.org/2000/svg" viewBox="0 0 640 512"><!--! Font Awesome Pro 6.6.0 by @fontawesome - https://fontawesome.com License - https://fontawesome.com/license (Commercial License) Copyright 2024 Fonticons, Inc. --><path class="fa-secondary" style="fill:var(--fa-secondary-color,inherit);opacity:var(--fa-secondary-opacity,.4);" d="M0 240l0 47.6 64.1 0 0 224.4L416 512l0-346.8L256.4 32 0 240zm160 16l64 0 0-64 64 0 0 64 64 0 0 64-64 0 0 64-64 0 0-64-64 0 0-64z"/><path class="fa-primary" style="fill:var(--fa-primary-color,inherit);opacity:var(--fa-primary-opacity,1);" d="M512 32l0-32L448 0l0 32 0 160 0 320 64 0 0-320 128 0 0-160L512 32z"/></svg>