<svg xmlns="http://www.w3.org/2000/svg" viewBox="0 0 384 512"><!--! Font Awesome Pro 6.6.0 by @fontawesome - https://fontawesome.com License - https://fontawesome.com/license (Commercial License) Copyright 2024 Fonticons, Inc. --><path class="fa-secondary" style="fill:var(--fa-secondary-color,inherit);opacity:var(--fa-secondary-opacity,.4);" d="M0 208C0 317.5 84.6 407.2 192 415.4l0 95.4c107.4-8.2 192-97.9 192-207.4S299.4 104.2 192 96L192 .6C84.6 8.8 0 98.5 0 208zm288 48A96 96 0 1 1 96 256a96 96 0 1 1 192 0z"/><path class="fa-primary" style="fill:var(--fa-primary-color,inherit);opacity:var(--fa-primary-opacity,1);" d="M192 352a96 96 0 1 0 0-192 96 96 0 1 0 0 192zm0-128a32 32 0 1 1 0 64 32 32 0 1 1 0-64z"/></svg>