<svg xmlns="http://www.w3.org/2000/svg" viewBox="0 0 576 512"><!--! Font Awesome Pro 6.6.0 by @fontawesome - https://fontawesome.com License - https://fontawesome.com/license (Commercial License) Copyright 2024 Fonticons, Inc. --><path class="fa-secondary" style="fill:var(--fa-secondary-color,inherit);opacity:var(--fa-secondary-opacity,.4);" d="M0 464l0 48 24 0 96 0 288 0 144 0 24 0 0-24 0-56 0-24-48 0 0 24 0 32-96 0 0-56 0-24-48 0 0 24 0 56-240 0 0-56 0-24-48 0 0 24 0 56-72 0L0 464z"/><path class="fa-primary" style="fill:var(--fa-primary-color,inherit);opacity:var(--fa-primary-opacity,1);" d="M32 96l0 288 480 0 0-144L320 192l-48 0-16 0 0-32 16 0 48 0 0-32-48 0-16 0 0-32 16 0 48 0 0-96L256 0l0 32L32 96z"/></svg>