<svg xmlns="http://www.w3.org/2000/svg" viewBox="0 0 448 512"><!--! Font Awesome Pro 6.6.0 by @fontawesome - https://fontawesome.com License - https://fontawesome.com/license (Commercial License) Copyright 2024 Fonticons, Inc. --><path class="fa-secondary" style="fill:var(--fa-secondary-color,inherit);opacity:var(--fa-secondary-opacity,.4);" d="M32 208l0 48 48 0 53.5 0 181 0 53.5 0 48 0 0-48c0-26.5-21.5-48-48-48l-.9 0c.6-5.3 .9-10.6 .9-16C368 64.5 303.5 0 224 0S80 64.5 80 144c0 5.4 .3 10.7 .9 16l-.9 0c-26.5 0-48 21.5-48 48z"/><path class="fa-primary" style="fill:var(--fa-primary-color,inherit);opacity:var(--fa-primary-opacity,1);" d="M224 512L80 256H368L224 512z"/></svg>