<svg xmlns="http://www.w3.org/2000/svg" viewBox="0 0 448 512"><!--! Font Awesome Pro 6.6.0 by @fontawesome - https://fontawesome.com License - https://fontawesome.com/license (Commercial License) Copyright 2024 Fonticons, Inc. --><path class="fa-secondary" style="fill:var(--fa-secondary-color,inherit);opacity:var(--fa-secondary-opacity,.4);" d="M0 32L0 480l448 0 0-448L0 32zM64 96l320 0 0 256L64 352 64 96z"/><path class="fa-primary" style="fill:var(--fa-primary-color,inherit);opacity:var(--fa-primary-opacity,1);" d="M384 96L64 96l0 256 320 0 0-256zM128 128a32 32 0 1 1 0 64 32 32 0 1 1 0-64zM352 320l-144 0-48 0-64 0 0-32 56-64 30.2 34.5L256 160l96 128 0 32z"/></svg>