<svg xmlns="http://www.w3.org/2000/svg" viewBox="0 0 512 512"><!--! Font Awesome Pro 6.6.0 by @fontawesome - https://fontawesome.com License - https://fontawesome.com/license (Commercial License) Copyright 2024 Fonticons, Inc. --><path class="fa-secondary" style="fill:var(--fa-secondary-color,inherit);opacity:var(--fa-secondary-opacity,.4);" d="M0 32L0 480l512 0 0-448L0 32zM144 384l32-96 160 0 32 96-224 0zM320 192a64 64 0 1 1 -128 0 64 64 0 1 1 128 0z"/><path class="fa-primary" style="fill:var(--fa-primary-color,inherit);opacity:var(--fa-primary-opacity,1);" d="M256 256a64 64 0 1 0 0-128 64 64 0 1 0 0 128zM368 384l-32-96-160 0-32 96 224 0z"/></svg>