<svg xmlns="http://www.w3.org/2000/svg" viewBox="0 0 576 512"><!--! Font Awesome Pro 6.6.0 by @fontawesome - https://fontawesome.com License - https://fontawesome.com/license (Commercial License) Copyright 2024 Fonticons, Inc. --><path class="fa-secondary" style="fill:var(--fa-secondary-color,inherit);opacity:var(--fa-secondary-opacity,.4);" d="M0 256a32 32 0 1 0 64 0A32 32 0 1 0 0 256zm0 96a32 32 0 1 0 64 0A32 32 0 1 0 0 352zm0 96a32 32 0 1 0 64 0A32 32 0 1 0 0 448zM96 304a32 32 0 1 0 64 0 32 32 0 1 0 -64 0zm0 96a32 32 0 1 0 64 0 32 32 0 1 0 -64 0zM385.7 145.7c44.4 44.4 88.8 88.8 133.2 133.2L576 72 416 32 385.7 145.7z"/><path class="fa-primary" style="fill:var(--fa-primary-color,inherit);opacity:var(--fa-primary-opacity,1);" d="M536.6 296.6L364.2 124.2 337.3 224 192 224l0 256 294.6 0 50-183.4z"/></svg>