<svg xmlns="http://www.w3.org/2000/svg" viewBox="0 0 576 512"><!--! Font Awesome Pro 6.6.0 by @fontawesome - https://fontawesome.com License - https://fontawesome.com/license (Commercial License) Copyright 2024 Fonticons, Inc. --><path class="fa-secondary" style="fill:var(--fa-secondary-color,inherit);opacity:var(--fa-secondary-opacity,.4);" d="M0 0L576 0l0 288L0 288 0 0zM64 64l0 64 64 0 0-64L64 64zm0 96l0 64 64 0 0-64-64 0zm96-96l0 64 64 0 0-64-64 0zm0 96l0 64 256 0 0-64-256 0zm96-96l0 64 64 0 0-64-64 0zm96 0l0 64 64 0 0-64-64 0zm96 0l0 64 64 0 0-64-64 0zm0 96l0 64 64 0 0-64-64 0z"/><path class="fa-primary" style="fill:var(--fa-primary-color,inherit);opacity:var(--fa-primary-opacity,1);" d="M128 64L64 64l0 64 64 0 0-64zm0 96l-64 0 0 64 64 0 0-64zm320 0l0 64 64 0 0-64-64 0zM224 64l-64 0 0 64 64 0 0-64zm32 0l0 64 64 0 0-64-64 0zm160 0l-64 0 0 64 64 0 0-64zm32 0l0 64 64 0 0-64-64 0zM160 352l0 32L288 512 416 384l0-32-256 0z"/></svg>