<svg xmlns="http://www.w3.org/2000/svg" viewBox="0 0 384 512"><!--! Font Awesome Pro 6.6.0 by @fontawesome - https://fontawesome.com License - https://fontawesome.com/license (Commercial License) Copyright 2024 Fonticons, Inc. --><path class="fa-secondary" style="fill:var(--fa-secondary-color,inherit);opacity:var(--fa-secondary-opacity,.4);" d="M0 224l0 64 32 0 32 0 0-32 0-32-32 0L0 224zm147 32c13.2 10.7 26.5 21.3 39.7 32L352 288l32 0 0-64-32 0-165.3 0L147 256z"/><path class="fa-primary" style="fill:var(--fa-primary-color,inherit);opacity:var(--fa-primary-opacity,1);" d="M64 256L64 64l0-32 64 0 0 32 0 125.1 195.9-158 40.2 49.8L147 256 364.1 431.1l-40.2 49.8L128 322.9 128 448l0 32-64 0 0-32 0-192z"/></svg>