<svg xmlns="http://www.w3.org/2000/svg" viewBox="0 0 640 512"><!--! Font Awesome Pro 6.6.0 by @fontawesome - https://fontawesome.com License - https://fontawesome.com/license (Commercial License) Copyright 2024 Fonticons, Inc. --><path class="fa-secondary" style="fill:var(--fa-secondary-color,inherit);opacity:var(--fa-secondary-opacity,.4);" d="M0 384l0 48 48 48 544 0 48-48 0-48L0 384zM64 32l0 32 0 288 64 0 0-256 384 0 0 256 64 0 0-288 0-32-32 0L96 32 64 32z"/><path class="fa-primary" style="fill:var(--fa-primary-color,inherit);opacity:var(--fa-primary-opacity,1);" d="M512 96L128 96l0 256 384 0 0-256zM281 193l-31 31 31 31 17 17L264 305.9l-17-17-48-48-17-17 17-17 48-48 17-17L297.9 176l-17 17zM393 159l48 48 17 17-17 17-48 48-17 17L342.1 272l17-17 31-31-31-31-17-17L376 142.1l17 17z"/></svg>