<svg xmlns="http://www.w3.org/2000/svg" viewBox="0 0 576 512"><!--! Font Awesome Pro 6.6.0 by @fontawesome - https://fontawesome.com License - https://fontawesome.com/license (Commercial License) Copyright 2024 Fonticons, Inc. --><path class="fa-secondary" style="fill:var(--fa-secondary-color,inherit);opacity:var(--fa-secondary-opacity,.4);" d="M0 256L288 384 576 256 288 128 0 256zM0 384L288 512 576 384 471.4 337.5 288 419 104.6 337.5 0 384z"/><path class="fa-primary" style="fill:var(--fa-primary-color,inherit);opacity:var(--fa-primary-opacity,1);" d="M488 24l0-24L440 0l0 24 0 32-32 0-24 0 0 48 24 0 32 0 0 32 0 24 48 0 0-24 0-32 32 0 24 0 0-48-24 0-32 0 0-32z"/></svg>