<svg xmlns="http://www.w3.org/2000/svg" viewBox="0 0 320 512"><!--! Font Awesome Pro 6.6.0 by @fontawesome - https://fontawesome.com License - https://fontawesome.com/license (Commercial License) Copyright 2024 Fonticons, Inc. --><path class="fa-secondary" style="fill:var(--fa-secondary-color,inherit);opacity:var(--fa-secondary-opacity,.4);" d="M0 32L0 96 160 64l0-64L0 32zm0 96l0 64 320-64 0-64L0 128zm0 96l0 64 320-64 0-64L0 224zm96 77.4L96 384l48 0 0-92.2-48 9.6zm80-16.6l0 35.2 0 28.8 0 35.2 48 0 0-44.8L320 320l0-64L176 284.8z"/><path class="fa-primary" style="fill:var(--fa-primary-color,inherit);opacity:var(--fa-primary-opacity,1);" d="M256 384L64 384l0 96 64 0 0 32 64 0 0-32 64 0 0-96z"/></svg>