<svg xmlns="http://www.w3.org/2000/svg" viewBox="0 0 512 512"><!--! Font Awesome Pro 6.6.0 by @fontawesome - https://fontawesome.com License - https://fontawesome.com/license (Commercial License) Copyright 2024 Fonticons, Inc. --><path class="fa-secondary" style="fill:var(--fa-secondary-color,inherit);opacity:var(--fa-secondary-opacity,.4);" d="M104 232l0 48 24 0 256 0 24 0 0-48-24 0-256 0-24 0zm0 88l0 48 24 0 256 0 24 0 0-48-24 0-256 0-24 0z"/><path class="fa-primary" style="fill:var(--fa-primary-color,inherit);opacity:var(--fa-primary-opacity,1);" d="M0 32l512 0 0 448L0 480 0 32zM64 192l0 224 384 0 0-224L64 192zm336-48l48-48-96 0 48 48z"/></svg>