<svg xmlns="http://www.w3.org/2000/svg" viewBox="0 0 512 512"><!--! Font Awesome Pro 6.6.0 by @fontawesome - https://fontawesome.com License - https://fontawesome.com/license (Commercial License) Copyright 2024 Fonticons, Inc. --><path class="fa-secondary" style="fill:var(--fa-secondary-color,inherit);opacity:var(--fa-secondary-opacity,.4);" d="M160 64l32 0 288 0 32 0 0 64-32 0-288 0-32 0 0-64zm0 160l32 0 288 0 32 0 0 64-32 0-288 0-32 0 0-64zm0 160l32 0 288 0 32 0 0 64-32 0-288 0-32 0 0-64z"/><path class="fa-primary" style="fill:var(--fa-primary-color,inherit);opacity:var(--fa-primary-opacity,1);" d="M64 144a48 48 0 1 0 0-96 48 48 0 1 0 0 96zm48 112a48 48 0 1 0 -96 0 48 48 0 1 0 96 0zm0 160a48 48 0 1 0 -96 0 48 48 0 1 0 96 0z"/></svg>