<svg xmlns="http://www.w3.org/2000/svg" viewBox="0 0 640 512"><!--! Font Awesome Pro 6.6.0 by @fontawesome - https://fontawesome.com License - https://fontawesome.com/license (Commercial License) Copyright 2024 Fonticons, Inc. --><path class="fa-secondary" style="fill:var(--fa-secondary-color,inherit);opacity:var(--fa-secondary-opacity,.4);" d="M128 256a80 80 0 1 0 160 0 80 80 0 1 0 -160 0z"/><path class="fa-primary" style="fill:var(--fa-primary-color,inherit);opacity:var(--fa-primary-opacity,1);" d="M320 256A112 112 0 1 0 96 256a112 112 0 1 0 224 0zm62.4 24C370.7 365.8 297.1 432 208 432c-97.2 0-176-78.8-176-176s78.8-176 176-176c89.1 0 162.7 66.2 174.4 152l33.6 0 0-48 0-24 48 0 0 24 0 48 32 0 0-72 32 0 96 96-96 96-32 0 0-72-32 0 0 48 0 24-48 0 0-24 0-48-33.6 0z"/></svg>