<svg xmlns="http://www.w3.org/2000/svg" viewBox="0 0 576 512"><!--! Font Awesome Pro 6.6.0 by @fontawesome - https://fontawesome.com License - https://fontawesome.com/license (Commercial License) Copyright 2024 Fonticons, Inc. --><path class="fa-secondary" style="fill:var(--fa-secondary-color,inherit);opacity:var(--fa-secondary-opacity,.4);" d="M0 272C0 384 80 448 176 448l48 0 32-96 64 0 32 96 48 0c96 0 176-64 176-176s-64-208-288-208S0 160 0 272zm224-16A64 64 0 1 1 96 256a64 64 0 1 1 128 0zm256 0a64 64 0 1 1 -128 0 64 64 0 1 1 128 0z"/><path class="fa-primary" style="fill:var(--fa-primary-color,inherit);opacity:var(--fa-primary-opacity,1);" d="M160 320a64 64 0 1 0 0-128 64 64 0 1 0 0 128zm256 0a64 64 0 1 0 0-128 64 64 0 1 0 0 128z"/></svg>