<svg xmlns="http://www.w3.org/2000/svg" viewBox="0 0 512 512"><!--! Font Awesome Pro 6.6.0 by @fontawesome - https://fontawesome.com License - https://fontawesome.com/license (Commercial License) Copyright 2024 Fonticons, Inc. --><path class="fa-secondary" style="fill:var(--fa-secondary-color,inherit);opacity:var(--fa-secondary-opacity,.4);" d="M32 32l0 160 32 32 52-52 84 84 56-56-84-84 52-52L192 32 32 32zM256 312l84 84-52 52 32 32 160 0 0-160-32-32-52 52-84-84-56 56z"/><path class="fa-primary" style="fill:var(--fa-primary-color,inherit);opacity:var(--fa-primary-opacity,1);" d="M480 192l-32 32-52-52L172 396l52 52-32 32L32 480l0-160 32-32 52 52L340 116 288 64l32-32 160 0 0 160z"/></svg>