<svg xmlns="http://www.w3.org/2000/svg" viewBox="0 0 512 512"><!--! Font Awesome Pro 6.6.0 by @fontawesome - https://fontawesome.com License - https://fontawesome.com/license (Commercial License) Copyright 2024 Fonticons, Inc. --><path class="fa-secondary" style="fill:var(--fa-secondary-color,inherit);opacity:var(--fa-secondary-opacity,.4);" d="M0 384l0 64 32 0 128 0 15.4 0 9.6-12L303.4 288 288 288l-15.4 0L263 276c-5.3-6.7-10.7-13.3-16-20L144.6 384 32 384 0 384z"/><path class="fa-primary" style="fill:var(--fa-primary-color,inherit);opacity:var(--fa-primary-opacity,1);" d="M160 64l15.4 0L185 76 303.4 224l80.6 0 0-64 32 0 96 96-96 96-32 0 0-64-96 0-15.4 0L263 276 144.6 128 32 128 0 128 0 64l32 0 128 0z"/></svg>