<svg xmlns="http://www.w3.org/2000/svg" viewBox="0 0 512 512"><!--! Font Awesome Pro 6.6.0 by @fontawesome - https://fontawesome.com License - https://fontawesome.com/license (Commercial License) Copyright 2024 Fonticons, Inc. --><path class="fa-secondary" style="fill:var(--fa-secondary-color,inherit);opacity:var(--fa-secondary-opacity,.4);" d="M0 0L512 0l0 416-208 0L160 512l0-96L0 416 0 0zM96 208a32 32 0 1 0 64 0 32 32 0 1 0 -64 0zm128 0a32 32 0 1 0 64 0 32 32 0 1 0 -64 0zm128 0a32 32 0 1 0 64 0 32 32 0 1 0 -64 0z"/><path class="fa-primary" style="fill:var(--fa-primary-color,inherit);opacity:var(--fa-primary-opacity,1);" d="M96 208a32 32 0 1 1 64 0 32 32 0 1 1 -64 0zm128 0a32 32 0 1 1 64 0 32 32 0 1 1 -64 0zm160-32a32 32 0 1 1 0 64 32 32 0 1 1 0-64z"/></svg>