<svg xmlns="http://www.w3.org/2000/svg" viewBox="0 0 576 512"><!--! Font Awesome Pro 6.6.0 by @fontawesome - https://fontawesome.com License - https://fontawesome.com/license (Commercial License) Copyright 2024 Fonticons, Inc. --><path class="fa-secondary" style="fill:var(--fa-secondary-color,inherit);opacity:var(--fa-secondary-opacity,.4);" d="M0 64L0 448l576 0 0-384L0 64zM96 224l224 0 0 32L96 256l0-32zm0 96l384 0 0 32L96 352l0-32zM384 160l96 0 0 96-96 0 0-96z"/><path class="fa-primary" style="fill:var(--fa-primary-color,inherit);opacity:var(--fa-primary-opacity,1);" d="M480 160l-96 0 0 96 96 0 0-96zM320 224L96 224l0 32 224 0 0-32z"/></svg>