<svg xmlns="http://www.w3.org/2000/svg" viewBox="0 0 640 512"><!--! Font Awesome Pro 6.6.0 by @fontawesome - https://fontawesome.com License - https://fontawesome.com/license (Commercial License) Copyright 2024 Fonticons, Inc. --><path class="fa-secondary" style="fill:var(--fa-secondary-color,inherit);opacity:var(--fa-secondary-opacity,.4);" d="M128 96l0 416 384 0 0-416L128 96zm96 176c0-44.2 43-80 96-80s96 35.8 96 80s-43 80-96 80s-96-35.8-96-80z"/><path class="fa-primary" style="fill:var(--fa-primary-color,inherit);opacity:var(--fa-primary-opacity,1);" d="M0 0L32 0 608 0l32 0 0 32 0 128 0 32-64 0 0-32 0-96L64 64l0 96 0 32L0 192l0-32L0 32 0 0z"/></svg>