<svg xmlns="http://www.w3.org/2000/svg" viewBox="0 0 576 512"><!--! Font Awesome Pro 6.6.0 by @fontawesome - https://fontawesome.com License - https://fontawesome.com/license (Commercial License) Copyright 2024 Fonticons, Inc. --><path class="fa-secondary" style="fill:var(--fa-secondary-color,inherit);opacity:var(--fa-secondary-opacity,.4);" d="M64 192l0 128c35.3 0 64 28.7 64 64l320 0c0-35.3 28.7-64 64-64l0-128c-35.3 0-64-28.7-64-64l-320 0c0 35.3-28.7 64-64 64zm320 64a96 96 0 1 1 -192 0 96 96 0 1 1 192 0z"/><path class="fa-primary" style="fill:var(--fa-primary-color,inherit);opacity:var(--fa-primary-opacity,1);" d="M576 64L0 64 0 448l576 0 0-384zM448 128c0 35.3 28.7 64 64 64l0 128c-35.3 0-64 28.7-64 64l-320 0c0-35.3-28.7-64-64-64l0-128c35.3 0 64-28.7 64-64l320 0z"/></svg>