<svg xmlns="http://www.w3.org/2000/svg" viewBox="0 0 384 512"><!--! Font Awesome Pro 6.6.0 by @fontawesome - https://fontawesome.com License - https://fontawesome.com/license (Commercial License) Copyright 2024 Fonticons, Inc. --><path class="fa-secondary" style="fill:var(--fa-secondary-color,inherit);opacity:var(--fa-secondary-opacity,.4);" d="M0 0L384 0l0 512L0 512 0 0zM64 64l0 128 256 0 0-128L64 64zM96 352a96 96 0 1 0 192 0A96 96 0 1 0 96 352z"/><path class="fa-primary" style="fill:var(--fa-primary-color,inherit);opacity:var(--fa-primary-opacity,1);" d="M320 64l0 128L64 192 64 64l256 0zM224 352a32 32 0 1 0 -64 0 32 32 0 1 0 64 0zM96 352a96 96 0 1 1 192 0A96 96 0 1 1 96 352z"/></svg>