<svg xmlns="http://www.w3.org/2000/svg" viewBox="0 0 512 512"><!--! Font Awesome Pro 6.6.0 by @fontawesome - https://fontawesome.com License - https://fontawesome.com/license (Commercial License) Copyright 2024 Fonticons, Inc. --><path class="fa-secondary" style="fill:var(--fa-secondary-color,inherit);opacity:var(--fa-secondary-opacity,.4);" d="M32 32l194.7 0-73.4 73.4L130.7 128 32 128l0-96zM96 160l64 0 0 96-64 0 0-96zm80-32l96-96 96 96-192 0z"/><path class="fa-primary" style="fill:var(--fa-primary-color,inherit);opacity:var(--fa-primary-opacity,1);" d="M96 160L0 160 0 480l384 0 0-96 16 0c61.9 0 112-50.1 112-112s-50.1-112-112-112l-16 0-32 0-192 0 0 96-64 0 0-96zM384 320l0-96 16 0c26.5 0 48 21.5 48 48s-21.5 48-48 48l-16 0z"/></svg>