<svg xmlns="http://www.w3.org/2000/svg" viewBox="0 0 448 512"><!--! Font Awesome Pro 6.6.0 by @fontawesome - https://fontawesome.com License - https://fontawesome.com/license (Commercial License) Copyright 2024 Fonticons, Inc. --><path class="fa-secondary" style="fill:var(--fa-secondary-color,inherit);opacity:var(--fa-secondary-opacity,.4);" d="M0 32l448 0 0 288-32 0-32 0-96 0 0 96 0 32 0 32L0 480 0 32zM128 192l0 64 64 0 0 64 64 0 0-64 64 0 0-64-64 0 0-64-64 0 0 64-64 0z"/><path class="fa-primary" style="fill:var(--fa-primary-color,inherit);opacity:var(--fa-primary-opacity,1);" d="M192 128l64 0 0 64 64 0 0 64-64 0 0 64-64 0 0-64-64 0 0-64 64 0 0-64zm96 288l0-96 96 0 32 0 32 0 0 16 0 13.3-9.4 9.4-112 112-9.4 9.4L304 480l-16 0 0-32 0-32z"/></svg>