<svg xmlns="http://www.w3.org/2000/svg" viewBox="0 0 512 512"><!--! Font Awesome Pro 6.6.0 by @fontawesome - https://fontawesome.com License - https://fontawesome.com/license (Commercial License) Copyright 2024 Fonticons, Inc. --><path class="fa-secondary" style="fill:var(--fa-secondary-color,inherit);opacity:var(--fa-secondary-opacity,.4);" d="M64 32l160 0 0 200 0 48 0 200L64 480l0-200 0-48L64 32zM288 96l160 0 0 136 0 48 0 136-160 0 0-136 0-48 0-136z"/><path class="fa-primary" style="fill:var(--fa-primary-color,inherit);opacity:var(--fa-primary-opacity,1);" d="M0 280l0-48 64 0 0 48L0 280zm224 0l0-48 64 0 0 48-64 0zm224 0l0-48 64 0 0 48-64 0z"/></svg>