<svg xmlns="http://www.w3.org/2000/svg" viewBox="0 0 512 512"><!--! Font Awesome Pro 6.6.0 by @fontawesome - https://fontawesome.com License - https://fontawesome.com/license (Commercial License) Copyright 2024 Fonticons, Inc. --><path class="fa-secondary" style="fill:var(--fa-secondary-color,inherit);opacity:var(--fa-secondary-opacity,.4);" d="M32 64l200 0 48 0 200 0 0 160-200 0-48 0L32 224 32 64zM96 288l136 0 48 0 136 0 0 160-136 0-48 0L96 448l0-160z"/><path class="fa-primary" style="fill:var(--fa-primary-color,inherit);opacity:var(--fa-primary-opacity,1);" d="M232 0l48 0 0 64-48 0 0-64zm0 224l48 0 0 64-48 0 0-64zm0 224l48 0 0 64-48 0 0-64z"/></svg>