<svg xmlns="http://www.w3.org/2000/svg" viewBox="0 0 640 512"><!--! Font Awesome Pro 6.6.0 by @fontawesome - https://fontawesome.com License - https://fontawesome.com/license (Commercial License) Copyright 2024 Fonticons, Inc. --><path class="fa-secondary" style="fill:var(--fa-secondary-color,inherit);opacity:var(--fa-secondary-opacity,.4);" d="M0 320l0 64 32 0 32 0 0 64-32 0L0 448l0 64 32 0 64 0 224 0 224 0 64 0 32 0 0-64-32 0-32 0 0-64 32 0 32 0 0-64-32 0-64 0-224 0L96 320l-64 0L0 320zm128 64l160 0 0 64-160 0 0-64zM256 0l0 128 64-48 64 48L384 0 256 0zm96 384l160 0 0 64-160 0 0-64z"/><path class="fa-primary" style="fill:var(--fa-primary-color,inherit);opacity:var(--fa-primary-opacity,1);" d="M256 0L128 0l0 256 384 0L512 0 384 0l0 128L320 80l-64 48L256 0z"/></svg>