<svg xmlns="http://www.w3.org/2000/svg" viewBox="0 0 640 512"><!--! Font Awesome Pro 6.6.0 by @fontawesome - https://fontawesome.com License - https://fontawesome.com/license (Commercial License) Copyright 2024 Fonticons, Inc. --><path class="fa-secondary" style="fill:var(--fa-secondary-color,inherit);opacity:var(--fa-secondary-opacity,.4);" d="M0 320l0 64 32 0 32 0 0 64-32 0L0 448l0 64 32 0 32 0 32 0 32 0 160 0 32 0 32 0 160 0 32 0 32 0 32 0 32 0 0-64-32 0-32 0 0-64 32 0 32 0 0-64-32 0-32 0-32 0-32 0-160 0-32 0-32 0-160 0-32 0-32 0-32 0L0 320zm128 64l160 0 0 64-160 0 0-64zm224 0l160 0 0 64-160 0 0-64z"/><path class="fa-primary" style="fill:var(--fa-primary-color,inherit);opacity:var(--fa-primary-opacity,1);" d="M320 0L64 0l0 256 256 0L320 0zM576 64L384 64l0 192 192 0 0-192z"/></svg>