<svg xmlns="http://www.w3.org/2000/svg" viewBox="0 0 512 512"><!--! Font Awesome Pro 6.6.0 by @fontawesome - https://fontawesome.com License - https://fontawesome.com/license (Commercial License) Copyright 2024 Fonticons, Inc. --><path class="fa-secondary" style="fill:var(--fa-secondary-color,inherit);opacity:var(--fa-secondary-opacity,.4);" d="M64 64a64 64 0 1 0 128 0A64 64 0 1 0 64 64zm256 0a64 64 0 1 0 128 0A64 64 0 1 0 320 64z"/><path class="fa-primary" style="fill:var(--fa-primary-color,inherit);opacity:var(--fa-primary-opacity,1);" d="M32 160l192 0 8 192-40 0 0 160L64 512l0-160-40 0 8-192zm256 0l192 0 8 192-40 0 0 160-128 0 0-160-40 0 8-192z"/></svg>