<svg xmlns="http://www.w3.org/2000/svg" viewBox="0 0 640 512"><!--! Font Awesome Pro 6.6.0 by @fontawesome - https://fontawesome.com License - https://fontawesome.com/license (Commercial License) Copyright 2024 Fonticons, Inc. --><path class="fa-secondary" style="fill:var(--fa-secondary-color,inherit);opacity:var(--fa-secondary-opacity,.4);" d="M24 352l40 0 0 160 128 0 0-160 16 0-48-48 67.2-67.2L224 160 32 160 24 352zM64 64a64 64 0 1 0 128 0A64 64 0 1 0 64 64zM412.8 236.8L480 304l-48 48 16 0 0 160 128 0 0-160 40 0-8-192-192 0-3.2 76.8zM448 64a64 64 0 1 0 128 0A64 64 0 1 0 448 64z"/><path class="fa-primary" style="fill:var(--fa-primary-color,inherit);opacity:var(--fa-primary-opacity,1);" d="M160 304L272 192l0 80 96 0 0-80L480 304 368 416l0-80-96 0 0 80L160 304z"/></svg>