<svg xmlns="http://www.w3.org/2000/svg" viewBox="0 0 640 512"><!--! Font Awesome Pro 6.6.0 by @fontawesome - https://fontawesome.com License - https://fontawesome.com/license (Commercial License) Copyright 2024 Fonticons, Inc. --><path class="fa-secondary" style="fill:var(--fa-secondary-color,inherit);opacity:var(--fa-secondary-opacity,.4);" d="M0 384a128 128 0 1 0 256 0A128 128 0 1 0 0 384zm200 0A72 72 0 1 1 56 384a72 72 0 1 1 144 0zm184 0a128 128 0 1 0 256 0 128 128 0 1 0 -256 0zm200 0a72 72 0 1 1 -144 0 72 72 0 1 1 144 0z"/><path class="fa-primary" style="fill:var(--fa-primary-color,inherit);opacity:var(--fa-primary-opacity,1);" d="M400 0a48 48 0 1 1 0 96 48 48 0 1 1 0-96zM336 88l91.2 72 84.8 0 0 64-107.2 0-49.5-39.6L295 232.9l57 38L352 448l-64 0 0-142.9-60.5-38.4c-32.8-20.8-35-67.9-4.3-91.6L336 88z"/></svg>