<svg xmlns="http://www.w3.org/2000/svg" viewBox="0 0 512 512"><!--! Font Awesome Pro 6.6.0 by @fontawesome - https://fontawesome.com License - https://fontawesome.com/license (Commercial License) Copyright 2024 Fonticons, Inc. --><path class="fa-secondary" style="fill:var(--fa-secondary-color,inherit);opacity:var(--fa-secondary-opacity,.4);" d="M0 32L144 0l80 144-83.8 67c36.1 68.4 92.3 124.6 160.8 160.8L368 288l144 80L480 512l-32 0C200.6 512 0 311.4 0 64L0 32z"/><path class="fa-primary" style="fill:var(--fa-primary-color,inherit);opacity:var(--fa-primary-opacity,1);" d="M505.9 40L489 57l-119 119 54.1 0 24 0 0 48-24 0-112 0-24 0 0-24 0-112 0-24 48 0 0 24 0 54.1L455 23l17-17L505.9 40z"/></svg>