<svg xmlns="http://www.w3.org/2000/svg" viewBox="0 0 512 512"><!--! Font Awesome Pro 6.6.0 by @fontawesome - https://fontawesome.com License - https://fontawesome.com/license (Commercial License) Copyright 2024 Fonticons, Inc. --><path class="fa-secondary" style="fill:var(--fa-secondary-color,inherit);opacity:var(--fa-secondary-opacity,.4);" d="M0 128s96-96 256-96s256 96 256 96l0 80-96 0-32-80s-48-24-128-24s-128 24-128 24L96 208 0 208l0-80zM328 312a72 72 0 1 1 -144 0 72 72 0 1 1 144 0z"/><path class="fa-primary" style="fill:var(--fa-primary-color,inherit);opacity:var(--fa-primary-opacity,1);" d="M32 384l0 96 448 0 0-96L352 160l-192 0L32 384zM256 240a72 72 0 1 1 0 144 72 72 0 1 1 0-144z"/></svg>