<svg xmlns="http://www.w3.org/2000/svg" viewBox="0 0 384 512"><!--! Font Awesome Pro 6.6.0 by @fontawesome - https://fontawesome.com License - https://fontawesome.com/license (Commercial License) Copyright 2024 Fonticons, Inc. --><path class="fa-secondary" style="fill:var(--fa-secondary-color,inherit);opacity:var(--fa-secondary-opacity,.4);" d="M0 448l32 0 320 0 32 0 0 64-32 0L32 512 0 512l0-64z"/><path class="fa-primary" style="fill:var(--fa-primary-color,inherit);opacity:var(--fa-primary-opacity,1);" d="M224 32l0-32L160 0l0 32 0 112L48 144l-32 0 0 64 32 0 112 0 0 112 0 32 64 0 0-32 0-112 112 0 32 0 0-64-32 0-112 0 0-112z"/></svg>