<svg xmlns="http://www.w3.org/2000/svg" viewBox="0 0 448 512"><!--! Font Awesome Pro 6.6.0 by @fontawesome - https://fontawesome.com License - https://fontawesome.com/license (Commercial License) Copyright 2024 Fonticons, Inc. --><path class="fa-secondary" style="fill:var(--fa-secondary-color,inherit);opacity:var(--fa-secondary-opacity,.4);" d="M256 216l0 8 0 96 0 96 192 0 0-192-128 0 0-8c0-30.9 25.1-56 56-56l8 0 32 0 0-64-32 0-8 0c-66.3 0-120 53.7-120 120z"/><path class="fa-primary" style="fill:var(--fa-primary-color,inherit);opacity:var(--fa-primary-opacity,1);" d="M120 96C53.7 96 0 149.7 0 216l0 8 0 96 0 96 192 0 0-192L64 224l0-8c0-30.9 25.1-56 56-56l8 0 32 0 0-64-32 0-8 0z"/></svg>