<svg xmlns="http://www.w3.org/2000/svg" viewBox="0 0 576 512"><!--! Font Awesome Pro 6.6.0 by @fontawesome - https://fontawesome.com License - https://fontawesome.com/license (Commercial License) Copyright 2024 Fonticons, Inc. --><path class="fa-secondary" style="fill:var(--fa-secondary-color,inherit);opacity:var(--fa-secondary-opacity,.4);" d="M0 32l576 0 0 448L0 480 0 32zM96 160a32 32 0 1 0 64 0 32 32 0 1 0 -64 0zm0 96a32 32 0 1 0 64 0 32 32 0 1 0 -64 0zm0 96a32 32 0 1 0 64 0 32 32 0 1 0 -64 0zM200 136l0 48 24 0 224 0 24 0 0-48-24 0-224 0-24 0zm0 96l0 48 24 0 224 0 24 0 0-48-24 0-224 0-24 0zm0 96l0 48 24 0 224 0 24 0 0-48-24 0-224 0-24 0z"/><path class="fa-primary" style="fill:var(--fa-primary-color,inherit);opacity:var(--fa-primary-opacity,1);" d="M200 136l24 0 224 0 24 0 0 48-24 0-224 0-24 0 0-48zm0 192l24 0 224 0 24 0 0 48-24 0-224 0-24 0 0-48zm24-96l224 0 24 0 0 48-24 0-224 0-24 0 0-48 24 0z"/></svg>