<svg xmlns="http://www.w3.org/2000/svg" viewBox="0 0 576 512"><!--! Font Awesome Pro 6.6.0 by @fontawesome - https://fontawesome.com License - https://fontawesome.com/license (Commercial License) Copyright 2024 Fonticons, Inc. --><path class="fa-secondary" style="fill:var(--fa-secondary-color,inherit);opacity:var(--fa-secondary-opacity,.4);" d="M0 32L0 480l576 0 0-448L0 32zm96 96l48 0 0 256-48 0 0-256zm80 0l32 0 0 256-32 0 0-256zm64 0l48 0 0 256-48 0 0-256zm112 0l48 0 0 256-48 0 0-256zm96 0l32 0 0 256-32 0 0-256z"/><path class="fa-primary" style="fill:var(--fa-primary-color,inherit);opacity:var(--fa-primary-opacity,1);" d="M96 128l48 0 0 256-48 0 0-256zm80 0l32 0 0 256-32 0 0-256zm112 0l0 256-48 0 0-256 48 0zm64 0l48 0 0 256-48 0 0-256zm128 0l0 256-32 0 0-256 32 0z"/></svg>