<svg xmlns="http://www.w3.org/2000/svg" viewBox="0 0 448 512"><!--! Font Awesome Pro 6.6.0 by @fontawesome - https://fontawesome.com License - https://fontawesome.com/license (Commercial License) Copyright 2024 Fonticons, Inc. --><path class="fa-secondary" style="fill:var(--fa-secondary-color,inherit);opacity:var(--fa-secondary-opacity,.4);" d="M64 64l0 48 320 0 0-48L64 64zm0 80l0 32 320 0 0-32L64 144zm0 64l0 32 368 0 16 0 0-32-16 0L64 208zm0 64l0 32 320 0 0-32L64 272zm0 64l0 32 320 0 0-32L64 336zm0 64l0 48 320 0 0-48L64 400z"/><path class="fa-primary" style="fill:var(--fa-primary-color,inherit);opacity:var(--fa-primary-opacity,1);" d="M0 0L32 0 416 0l32 0 0 64-32 0L32 64 0 64 0 0zM0 448l32 0 384 0 32 0 0 64-32 0L32 512 0 512l0-64z"/></svg>