<svg xmlns="http://www.w3.org/2000/svg" viewBox="0 0 384 512"><!--! Font Awesome Pro 6.6.0 by @fontawesome - https://fontawesome.com License - https://fontawesome.com/license (Commercial License) Copyright 2024 Fonticons, Inc. --><path class="fa-secondary" style="fill:var(--fa-secondary-color,inherit);opacity:var(--fa-secondary-opacity,.4);" d="M0 160l0 32 288 0 0-32L0 160zm320 0l0 32 64 0 0-32-64 0z"/><path class="fa-primary" style="fill:var(--fa-primary-color,inherit);opacity:var(--fa-primary-opacity,1);" d="M384 0L0 0 0 160l288 0 0-48 0-16 32 0 0 16 0 48 64 0L384 0zm0 192l-64 0 0 176 0 16-32 0 0-16 0-176L0 192 0 512l384 0 0-320z"/></svg>