<svg xmlns="http://www.w3.org/2000/svg" viewBox="0 0 512 512"><!--! Font Awesome Pro 6.6.0 by @fontawesome - https://fontawesome.com License - https://fontawesome.com/license (Commercial License) Copyright 2024 Fonticons, Inc. --><path class="fa-secondary" style="fill:var(--fa-secondary-color,inherit);opacity:var(--fa-secondary-opacity,.4);" d="M0 64L0 96 0 224l0 32 64 0 0-32 0-96 256 0 0 64 32 0 96-96L352 0 320 0l0 64L32 64 0 64zM64 416l96 96 32 0 0-64 288 0 32 0 0-32 0-128 0-32-64 0 0 32 0 96-256 0 0-64-32 0L64 416z"/><path class="fa-primary" style="fill:var(--fa-primary-color,inherit);opacity:var(--fa-primary-opacity,1);" d="M216 192l24 0 24 0 24 0 0 24 0 80 0 24-48 0 0-24 0-56-24 0 0-48z"/></svg>