<svg xmlns="http://www.w3.org/2000/svg" viewBox="0 0 576 512"><!--! Font Awesome Pro 6.6.0 by @fontawesome - https://fontawesome.com License - https://fontawesome.com/license (Commercial License) Copyright 2024 Fonticons, Inc. --><path class="fa-secondary" style="fill:var(--fa-secondary-color,inherit);opacity:var(--fa-secondary-opacity,.4);" d="M256 32l0 64 0 32 64 0 0-32 0-64-64 0zm0 160l0 32 0 64 0 32 64 0 0-32 0-64 0-32-64 0zm0 192l0 32 0 64 64 0 0-64 0-32-64 0z"/><path class="fa-primary" style="fill:var(--fa-primary-color,inherit);opacity:var(--fa-primary-opacity,1);" d="M256 32L128 32 0 480l256 0 0-64 0-32 64 0 0 32 0 64 256 0L448 32 320 32l0 64 0 32-64 0 0-32 0-64zm64 192l0 64 0 32-64 0 0-32 0-64 0-32 64 0 0 32z"/></svg>