<svg xmlns="http://www.w3.org/2000/svg" viewBox="0 0 640 512"><!--! Font Awesome Pro 6.6.0 by @fontawesome - https://fontawesome.com License - https://fontawesome.com/license (Commercial License) Copyright 2024 Fonticons, Inc. --><path class="fa-secondary" style="fill:var(--fa-secondary-color,inherit);opacity:var(--fa-secondary-opacity,.4);" d="M32 224l0 192 64 0 0-192-64 0zM192 384l0 32 16 0 32 0 16 0 0-32-16 0-32 0-16 0zM288 0l0 32 0 64 64 0 0-64 0-32L288 0zm0 384l0 32 16 0 32 0 16 0 0-32-16 0-32 0-16 0zm96 0l0 32 16 0 32 0 16 0 0-32-16 0-32 0-16 0zM544 224l0 192 64 0 0-192-64 0z"/><path class="fa-primary" style="fill:var(--fa-primary-color,inherit);opacity:var(--fa-primary-opacity,1);" d="M544 96L96 96l0 416 448 0 0-416zM208 384l32 0 16 0 0 32-16 0-32 0-16 0 0-32 16 0zm96 0l32 0 16 0 0 32-16 0-32 0-16 0 0-32 16 0zm96 0l32 0 16 0 0 32-16 0-32 0-16 0 0-32 16 0zM184 256a40 40 0 1 1 80 0 40 40 0 1 1 -80 0zm232-40a40 40 0 1 1 0 80 40 40 0 1 1 0-80z"/></svg>