<svg xmlns="http://www.w3.org/2000/svg" viewBox="0 0 640 512"><!--! Font Awesome Pro 6.6.0 by @fontawesome - https://fontawesome.com License - https://fontawesome.com/license (Commercial License) Copyright 2024 Fonticons, Inc. --><path class="fa-secondary" style="fill:var(--fa-secondary-color,inherit);opacity:var(--fa-secondary-opacity,.4);" d="M80 64l0 24 0 64 0 48 0 32 0 48 0 32 0 48 0 64 0 24 80 0 0-384L80 64zm112 0l0 384 256 0 0-384L192 64zm288 0l0 384 80 0 0-24 0-64 0-48 0-32 0-48 0-32 0-48 0-64 0-24-80 0z"/><path class="fa-primary" style="fill:var(--fa-primary-color,inherit);opacity:var(--fa-primary-opacity,1);" d="M24 64L0 64l0 48 24 0 8 0 0 40-8 0L0 152l0 48 24 0 8 0 0 32-8 0L0 232l0 48 24 0 8 0 0 32-8 0L0 312l0 48 24 0 8 0 0 40-8 0L0 400l0 48 24 0 32 0 24 0 0-24 0-64 0-48 0-32 0-48 0-32 0-48 0-64 0-24L56 64 24 64zm592 0l-32 0-24 0 0 24 0 64 0 48 0 32 0 48 0 32 0 48 0 64 0 24 24 0 32 0 24 0 0-48-24 0-8 0 0-40 8 0 24 0 0-48-24 0-8 0 0-32 8 0 24 0 0-48-24 0-8 0 0-32 8 0 24 0 0-48-24 0-8 0 0-40 8 0 24 0 0-48-24 0zM160 64l0 384 32 0 0-384-32 0zm320 0l-32 0 0 384 32 0 0-384z"/></svg>