<svg xmlns="http://www.w3.org/2000/svg" viewBox="0 0 512 512"><!--! Font Awesome Pro 6.6.0 by @fontawesome - https://fontawesome.com License - https://fontawesome.com/license (Commercial License) Copyright 2024 Fonticons, Inc. --><path class="fa-secondary" style="fill:var(--fa-secondary-color,inherit);opacity:var(--fa-secondary-opacity,.4);" d="M0 0L0 320 0 512l192 0 320 0 0-192-96 0 0 80 0 16-32 0 0-16 0-80-64 0 0 80 0 16-32 0 0-16 0-80-64 0 0 80 0 16-32 0 0-16 0-80-80 0-16 0 0-32 16 0 80 0 0-64-80 0-16 0 0-32 16 0 80 0 0-64-80 0-16 0 0-32 16 0 80 0 0-96L0 0z"/><path class="fa-primary" style="fill:var(--fa-primary-color,inherit);opacity:var(--fa-primary-opacity,1);" d="M112 96L96 96l0 32 16 0 80 0 0-32-80 0zm80 96l-80 0-16 0 0 32 16 0 80 0 0-32zm0 96l-80 0-16 0 0 32 16 0 80 0 0 80 0 16 32 0 0-16 0-80-32 0 0-32zm128 32l-32 0 0 80 0 16 32 0 0-16 0-80zm96 80l0-80-32 0 0 80 0 16 32 0 0-16z"/></svg>