<svg xmlns="http://www.w3.org/2000/svg" viewBox="0 0 640 512"><!--! Font Awesome Pro 6.6.0 by @fontawesome - https://fontawesome.com License - https://fontawesome.com/license (Commercial License) Copyright 2024 Fonticons, Inc. --><path class="fa-secondary" style="fill:var(--fa-secondary-color,inherit);opacity:var(--fa-secondary-opacity,.4);" d="M0 128l112 0 0 80 0 16 32 0 0-16 0-80 64 0 0 80 0 16 32 0 0-16 0-80 64 0 0 80 0 16 32 0 0-16 0-80 64 0 0 80 0 16 32 0 0-16 0-80 64 0 0 80 0 16 32 0 0-16 0-80 112 0 0 256L0 384 0 128z"/><path class="fa-primary" style="fill:var(--fa-primary-color,inherit);opacity:var(--fa-primary-opacity,1);" d="M144 208l0-80-32 0 0 80 0 16 32 0 0-16zm96-80l-32 0 0 80 0 16 32 0 0-16 0-80zm96 80l0-80-32 0 0 80 0 16 32 0 0-16zm96-80l-32 0 0 80 0 16 32 0 0-16 0-80zm96 0l-32 0 0 80 0 16 32 0 0-16 0-80z"/></svg>