<svg xmlns="http://www.w3.org/2000/svg" viewBox="0 0 512 512"><!--! Font Awesome Pro 6.6.0 by @fontawesome - https://fontawesome.com License - https://fontawesome.com/license (Commercial License) Copyright 2024 Fonticons, Inc. --><path class="fa-secondary" style="fill:var(--fa-secondary-color,inherit);opacity:var(--fa-secondary-opacity,.4);" d="M0 416l0 96 512 0 0-96c0-165.1-122.3-243.3-179-279.6c-4.8-3.1-9.2-5.9-13-8.4l-128 0c-3.8 2.5-8.1 5.3-13 8.4C122.3 172.7 0 250.9 0 416zM128 0l64 96 128 0L384 0 128 0z"/><path class="fa-primary" style="fill:var(--fa-primary-color,inherit);opacity:var(--fa-primary-opacity,1);" d="M176 96l16 0 128 0 16 0 0 32-16 0-128 0-16 0 0-32z"/></svg>