<svg xmlns="http://www.w3.org/2000/svg" viewBox="0 0 640 512"><!--! Font Awesome Pro 6.6.0 by @fontawesome - https://fontawesome.com License - https://fontawesome.com/license (Commercial License) Copyright 2024 Fonticons, Inc. --><path class="fa-secondary" style="fill:var(--fa-secondary-color,inherit);opacity:var(--fa-secondary-opacity,.4);" d="M32 0L64 0 576 0l32 0 0 32 0 216.4c-17-15.2-39.4-24.4-64-24.4l0-160L96 64l0 160c-24.6 0-47 9.2-64 24.4L32 32 32 0z"/><path class="fa-primary" style="fill:var(--fa-primary-color,inherit);opacity:var(--fa-primary-opacity,1);" d="M96 384a64 64 0 1 0 0-128 64 64 0 1 0 0 128zm224 0a64 64 0 1 0 0-128 64 64 0 1 0 0 128zm288-64a64 64 0 1 0 -128 0 64 64 0 1 0 128 0zM416 512l-32-96-128 0-32 96 192 0zM32 416L0 512l192 0-32-96L32 416zm608 96l-32-96-128 0-32 96 192 0z"/></svg>