<svg xmlns="http://www.w3.org/2000/svg" viewBox="0 0 512 512"><!--! Font Awesome Pro 6.6.0 by @fontawesome - https://fontawesome.com License - https://fontawesome.com/license (Commercial License) Copyright 2024 Fonticons, Inc. --><path class="fa-secondary" style="fill:var(--fa-secondary-color,inherit);opacity:var(--fa-secondary-opacity,.4);" d="M0 288L0 480l512 0 0-192L0 288zm368 96a24 24 0 1 1 -48 0 24 24 0 1 1 48 0zm24-256a24 24 0 1 0 48 0 24 24 0 1 0 -48 0zm56 256a24 24 0 1 1 -48 0 24 24 0 1 1 48 0z"/><path class="fa-primary" style="fill:var(--fa-primary-color,inherit);opacity:var(--fa-primary-opacity,1);" d="M512 32L0 32 0 224l512 0 0-192zM344 104a24 24 0 1 1 0 48 24 24 0 1 1 0-48zm48 24a24 24 0 1 1 48 0 24 24 0 1 1 -48 0zm32 280a24 24 0 1 0 0-48 24 24 0 1 0 0 48z"/></svg>