<svg xmlns="http://www.w3.org/2000/svg" viewBox="0 0 448 512"><!--! Font Awesome Pro 6.6.0 by @fontawesome - https://fontawesome.com License - https://fontawesome.com/license (Commercial License) Copyright 2024 Fonticons, Inc. --><path class="fa-secondary" style="fill:var(--fa-secondary-color,inherit);opacity:var(--fa-secondary-opacity,.4);" d="M128 160l0 288 0 32 32 0 160 0c70.7 0 128-57.3 128-128l0-320-64 0 0 320c0 35.3-28.7 64-64 64l-128 0 0-256-64 0z"/><path class="fa-primary" style="fill:var(--fa-primary-color,inherit);opacity:var(--fa-primary-opacity,1);" d="M0 32l32 0 160 0c70.7 0 128 57.3 128 128l0 192-64 0 0-192c0-35.3-28.7-64-64-64L64 96l0 384L0 480 0 64 0 32z"/></svg>