<svg xmlns="http://www.w3.org/2000/svg" viewBox="0 0 512 512"><!--! Font Awesome Pro 6.6.0 by @fontawesome - https://fontawesome.com License - https://fontawesome.com/license (Commercial License) Copyright 2024 Fonticons, Inc. --><path class="fa-secondary" style="fill:var(--fa-secondary-color,inherit);opacity:var(--fa-secondary-opacity,.4);" d="M40 384l0 104 0 24 48 0 0-24 0-104-48 0zM64 0l0 192 384 0 0-128L384 0 64 0zm72 384l0 104 0 24 48 0 0-24 0-104-48 0zm96 0l0 104 0 24 48 0 0-24 0-104-48 0zm96 0l0 104 0 24 48 0 0-24 0-104-48 0zm96 0l0 104 0 24 48 0 0-24 0-104-48 0z"/><path class="fa-primary" style="fill:var(--fa-primary-color,inherit);opacity:var(--fa-primary-opacity,1);" d="M512 192L0 192 0 384l512 0 0-192zm-56 56l0 48-48 0 0-48 48 0z"/></svg>