<svg xmlns="http://www.w3.org/2000/svg" viewBox="0 0 512 512"><!--! Font Awesome Pro 6.6.0 by @fontawesome - https://fontawesome.com License - https://fontawesome.com/license (Commercial License) Copyright 2024 Fonticons, Inc. --><path class="fa-secondary" style="fill:var(--fa-secondary-color,inherit);opacity:var(--fa-secondary-opacity,.4);" d="M0 352l0 64 32 0 96 0 16 0 9.6-12.8L224 309.3c-13.3-17.8-26.7-35.6-40-53.3l-72 96-80 0L0 352zM224 202.7L264 256l72-96 48 0 0 64 32 0 96-96L416 32l-32 0 0 64-64 0-16 0-9.6 12.8L224 202.7z"/><path class="fa-primary" style="fill:var(--fa-primary-color,inherit);opacity:var(--fa-primary-opacity,1);" d="M320 416l-16 0-9.6-12.8L112 160l-80 0L0 160 0 96l32 0 96 0 16 0 9.6 12.8L336 352l48 0 0-64 32 0 96 96-96 96-32 0 0-64-64 0z"/></svg>