<svg xmlns="http://www.w3.org/2000/svg" viewBox="0 0 640 512"><!--! Font Awesome Pro 6.6.0 by @fontawesome - https://fontawesome.com License - https://fontawesome.com/license (Commercial License) Copyright 2024 Fonticons, Inc. --><path class="fa-secondary" style="fill:var(--fa-secondary-color,inherit);opacity:var(--fa-secondary-opacity,.4);" d="M288 192l0 32 0 256 0 32 64 0 0-32 0-256 0-32-64 0zM416 96l0 32 0 352 0 32 64 0 0-32 0-352 0-32-64 0zM544 0l0 32 0 448 0 32 64 0 0-32 0-448 0-32L544 0z"/><path class="fa-primary" style="fill:var(--fa-primary-color,inherit);opacity:var(--fa-primary-opacity,1);" d="M224 320l0-32-64 0 0 32 0 160 0 32 64 0 0-32 0-160zM96 416l0-32-64 0 0 32 0 64 0 32 64 0 0-32 0-64z"/></svg>