<svg xmlns="http://www.w3.org/2000/svg" viewBox="0 0 512 512"><!--! Font Awesome Pro 6.6.0 by @fontawesome - https://fontawesome.com License - https://fontawesome.com/license (Commercial License) Copyright 2024 Fonticons, Inc. --><path class="fa-secondary" style="fill:var(--fa-secondary-color,inherit);opacity:var(--fa-secondary-opacity,.4);" d="M0 224c0 70.7 37.5 133.8 96 174.9L96 512l96 0 0-48 0-16 32 0 0 16 0 48 64 0 0-48 0-16 32 0 0 16 0 48 96 0 0-113.1c58.5-41.1 96-104.1 96-174.9C512 100.3 397.4 0 256 0S0 100.3 0 224zm224 32A64 64 0 1 1 96 256a64 64 0 1 1 128 0zm192 0a64 64 0 1 1 -128 0 64 64 0 1 1 128 0z"/><path class="fa-primary" style="fill:var(--fa-primary-color,inherit);opacity:var(--fa-primary-opacity,1);" d="M160 320a64 64 0 1 0 0-128 64 64 0 1 0 0 128zm192 0a64 64 0 1 0 0-128 64 64 0 1 0 0 128z"/></svg>