<svg xmlns="http://www.w3.org/2000/svg" viewBox="0 0 512 512"><!--! Font Awesome Pro 6.6.0 by @fontawesome - https://fontawesome.com License - https://fontawesome.com/license (Commercial License) Copyright 2024 Fonticons, Inc. --><path class="fa-secondary" style="fill:var(--fa-secondary-color,inherit);opacity:var(--fa-secondary-opacity,.4);" d="M0 128l0 64 32 0 288 0 0-64L32 128 0 128zM192 320l0 64 288 0 32 0 0-64-32 0-288 0z"/><path class="fa-primary" style="fill:var(--fa-primary-color,inherit);opacity:var(--fa-primary-opacity,1);" d="M64 384l64 0 0-64-64 0 0 64zM0 448l0-64 0-64 0-64 64 0 64 0 64 0 0 64 0 64 0 64-64 0-64 0L0 448zM384 192l64 0 0-64-64 0 0 64zm-64 64l0-64 0-64 0-64 64 0 64 0 64 0 0 64 0 64 0 64-64 0-64 0-64 0z"/></svg>