<svg xmlns="http://www.w3.org/2000/svg" viewBox="0 0 512 512"><!--! Font Awesome Pro 6.6.0 by @fontawesome - https://fontawesome.com License - https://fontawesome.com/license (Commercial License) Copyright 2024 Fonticons, Inc. --><path class="fa-secondary" style="fill:var(--fa-secondary-color,inherit);opacity:var(--fa-secondary-opacity,.4);" d="M80 336a80 80 0 1 0 160 0A80 80 0 1 0 80 336zM256 64a32 32 0 1 0 64 0 32 32 0 1 0 -64 0zm96 0a32 32 0 1 0 64 0 32 32 0 1 0 -64 0zm0 96a32 32 0 1 0 64 0 32 32 0 1 0 -64 0zm96-96a32 32 0 1 0 64 0 32 32 0 1 0 -64 0zm0 96a32 32 0 1 0 64 0 32 32 0 1 0 -64 0zm0 96a32 32 0 1 0 64 0 32 32 0 1 0 -64 0z"/><path class="fa-primary" style="fill:var(--fa-primary-color,inherit);opacity:var(--fa-primary-opacity,1);" d="M224 0l0 128L96 128 96 0 224 0zM0 256c0-53 43-96 96-96l128 0c53 0 96 43 96 96l0 256L0 512 0 256zm240 80A80 80 0 1 0 80 336a80 80 0 1 0 160 0z"/></svg>