<svg xmlns="http://www.w3.org/2000/svg" viewBox="0 0 448 512"><!--! Font Awesome Pro 6.6.0 by @fontawesome - https://fontawesome.com License - https://fontawesome.com/license (Commercial License) Copyright 2024 Fonticons, Inc. --><path class="fa-secondary" style="fill:var(--fa-secondary-color,inherit);opacity:var(--fa-secondary-opacity,.4);" d="M0 32L0 480l448 0 0-448L0 32zM96 144l24 0 104 0 104 0 24 0 0 48-24 0-80 0 0 168 0 24-48 0 0-24 0-168-80 0-24 0 0-48z"/><path class="fa-primary" style="fill:var(--fa-primary-color,inherit);opacity:var(--fa-primary-opacity,1);" d="M96 144l24 0 104 0 104 0 24 0 0 48-24 0-80 0 0 168 0 24-48 0 0-24 0-168-80 0-24 0 0-48z"/></svg>