<svg xmlns="http://www.w3.org/2000/svg" viewBox="0 0 448 512"><!--! Font Awesome Pro 6.6.0 by @fontawesome - https://fontawesome.com License - https://fontawesome.com/license (Commercial License) Copyright 2024 Fonticons, Inc. --><path class="fa-secondary" style="fill:var(--fa-secondary-color,inherit);opacity:var(--fa-secondary-opacity,.4);" d="M0 32L0 480l448 0 0-448L0 32zm96 96l160 0 0 64L96 192l0-64zm0 96l256 0 0 64L96 288l0-64zm0 96l96 0 0 64-96 0 0-64z"/><path class="fa-primary" style="fill:var(--fa-primary-color,inherit);opacity:var(--fa-primary-opacity,1);" d="M256 128l0 64L96 192l0-64 160 0zm96 96l0 64L96 288l0-64 256 0zM192 384l-96 0 0-64 96 0 0 64z"/></svg>