<svg xmlns="http://www.w3.org/2000/svg" viewBox="0 0 448 512"><!--! Font Awesome Pro 6.6.0 by @fontawesome - https://fontawesome.com License - https://fontawesome.com/license (Commercial License) Copyright 2024 Fonticons, Inc. --><path class="fa-secondary" style="fill:var(--fa-secondary-color,inherit);opacity:var(--fa-secondary-opacity,.4);" d="M0 32l64 0 320 0 64 0 0 64 0 320 0 64-64 0L64 480 0 480l0-64L0 96 0 32zM80 416l288 0-32-96-224 0L80 416zm72-216a72 72 0 1 0 144 0 72 72 0 1 0 -144 0z"/><path class="fa-primary" style="fill:var(--fa-primary-color,inherit);opacity:var(--fa-primary-opacity,1);" d="M224 128a72 72 0 1 1 0 144 72 72 0 1 1 0-144zM80 416l32-96 224 0 32 96L80 416z"/></svg>