<svg xmlns="http://www.w3.org/2000/svg" viewBox="0 0 448 512"><!--! Font Awesome Pro 6.6.0 by @fontawesome - https://fontawesome.com License - https://fontawesome.com/license (Commercial License) Copyright 2024 Fonticons, Inc. --><path class="fa-secondary" style="fill:var(--fa-secondary-color,inherit);opacity:var(--fa-secondary-opacity,.4);" d="M0 32L0 480l448 0 0-448L0 32zm128 96l24 0 144 0 24 0 0 48-24 0-120 0 0 64 88 0 24 0 0 48-24 0-88 0 0 72 0 24-48 0 0-24 0-96 0-112 0-24z"/><path class="fa-primary" style="fill:var(--fa-primary-color,inherit);opacity:var(--fa-primary-opacity,1);" d="M128 128l24 0 144 0 24 0 0 48-24 0-120 0 0 64 88 0 24 0 0 48-24 0-88 0 0 72 0 24-48 0 0-24 0-96 0-112 0-24z"/></svg>