<svg xmlns="http://www.w3.org/2000/svg" viewBox="0 0 448 512"><!--! Font Awesome Pro 6.6.0 by @fontawesome - https://fontawesome.com License - https://fontawesome.com/license (Commercial License) Copyright 2024 Fonticons, Inc. --><path class="fa-secondary" style="fill:var(--fa-secondary-color,inherit);opacity:var(--fa-secondary-opacity,.4);" d="M0 32L0 480l448 0 0-448L0 32zm98.9 96l59.8 0L224 215.8 289.3 128l59.8 0L253.9 256l95.2 128-59.8 0L224 296.2 158.7 384l-59.8 0 95.2-128L98.9 128z"/><path class="fa-primary" style="fill:var(--fa-primary-color,inherit);opacity:var(--fa-primary-opacity,1);" d="M289.3 128l59.8 0L253.9 256l95.2 128-59.8 0L224 296.2 158.7 384l-59.8 0 95.2-128L98.9 128l59.8 0L224 215.8 289.3 128z"/></svg>