<svg xmlns="http://www.w3.org/2000/svg" viewBox="0 0 448 512"><!--! Font Awesome Pro 6.6.0 by @fontawesome - https://fontawesome.com License - https://fontawesome.com/license (Commercial License) Copyright 2024 Fonticons, Inc. --><path class="fa-secondary" style="fill:var(--fa-secondary-color,inherit);opacity:var(--fa-secondary-opacity,.4);" d="M0 32L0 480l448 0 0-448L0 32zM70.5 152l50 0 40.7 141.5 39.9-124.8 5.3-16.7 35 0 5.3 16.7 39.9 124.8L327.5 152l50 0L311.1 382.6l-5 17.4-35.6 0-5.3-16.7L224 254.7 182.9 383.3 177.5 400l-35.6 0-5-17.4L70.5 152z"/><path class="fa-primary" style="fill:var(--fa-primary-color,inherit);opacity:var(--fa-primary-opacity,1);" d="M327.5 152l50 0L311.1 382.6l-5 17.4-35.6 0-5.3-16.7L224 254.7 182.9 383.3 177.5 400l-35.6 0-5-17.4L70.5 152l50 0 40.7 141.5 39.9-124.8 5.3-16.7 35 0 5.3 16.7 39.9 124.8L327.5 152z"/></svg>