<svg xmlns="http://www.w3.org/2000/svg" viewBox="0 0 448 512"><!--! Font Awesome Pro 6.6.0 by @fontawesome - https://fontawesome.com License - https://fontawesome.com/license (Commercial License) Copyright 2024 Fonticons, Inc. --><path class="fa-secondary" style="fill:var(--fa-secondary-color,inherit);opacity:var(--fa-secondary-opacity,.4);" d="M0 32l448 0 0 448L0 480 0 32zM64 160l0 64 32 0 16 0 0 160 0 32 64 0 0-32 0-160 16 0 32 0 0-64-32 0-16 0 0-32 0-32-64 0 0 32 0 32-16 0-32 0zM224 288l0 64 32 0 16 0 0 32 0 32 64 0 0-32 0-32 16 0 32 0 0-64-32 0-16 0 0-160 0-32-64 0 0 32 0 160-16 0-32 0z"/><path class="fa-primary" style="fill:var(--fa-primary-color,inherit);opacity:var(--fa-primary-opacity,1);" d="M96 160l-32 0 0 64 32 0 96 0 32 0 0-64-32 0-96 0zM256 288l-32 0 0 64 32 0 96 0 32 0 0-64-32 0-96 0z"/></svg>