<svg xmlns="http://www.w3.org/2000/svg" viewBox="0 0 512 512"><!--! Font Awesome Pro 6.6.0 by @fontawesome - https://fontawesome.com License - https://fontawesome.com/license (Commercial License) Copyright 2024 Fonticons, Inc. --><path class="fa-secondary" style="fill:var(--fa-secondary-color,inherit);opacity:var(--fa-secondary-opacity,.4);" d="M0 150L73.1 256 0 362l126.7 23.3L150 512l106-73.1L362 512l23.3-126.7L512 362 438.9 256 512 150 385.3 126.7 362 0 256 73.1 150 0 126.7 126.7 0 150zM384 256a128 128 0 1 1 -256 0 128 128 0 1 1 256 0z"/><path class="fa-primary" style="fill:var(--fa-primary-color,inherit);opacity:var(--fa-primary-opacity,1);" d="M256 160a96 96 0 1 0 0 192 96 96 0 1 0 0-192z"/></svg>