<svg xmlns="http://www.w3.org/2000/svg" viewBox="0 0 640 512"><!--! Font Awesome Pro 6.6.0 by @fontawesome - https://fontawesome.com License - https://fontawesome.com/license (Commercial License) Copyright 2024 Fonticons, Inc. --><path class="fa-secondary" style="fill:var(--fa-secondary-color,inherit);opacity:var(--fa-secondary-opacity,.4);" d="M288 32l0 32 0 192 64 0 0-160 128 0 0 256-80 0 0 40L512 512 624 392l0-40-80 0 0-288 0-32-32 0L320 32l-32 0z"/><path class="fa-primary" style="fill:var(--fa-primary-color,inherit);opacity:var(--fa-primary-opacity,1);" d="M128 0L16 120l0 40 80 0 0 288 0 32 32 0 192 0 32 0 0-32 0-192-64 0 0 160-128 0 0-256 80 0 0-40L128 0z"/></svg>