<svg xmlns="http://www.w3.org/2000/svg" viewBox="0 0 512 512"><!--! Font Awesome Pro 6.6.0 by @fontawesome - https://fontawesome.com License - https://fontawesome.com/license (Commercial License) Copyright 2024 Fonticons, Inc. --><path class="fa-secondary" style="fill:var(--fa-secondary-color,inherit);opacity:var(--fa-secondary-opacity,.4);" d="M16.7 448l17.6-43.9 32-80L80.7 288l68.9 0-24 59.9-32 80-8 20.1-68.9 0zm89.6-224l38.4-96 68.9 0-38.4 96-68.9 0zm192-96l68.9 0 38.4 96-68.9 0-38.4-96zm64 160l68.9 0 46.4 116.1L495.3 448l-68.9 0-8-20.1L362.3 288z"/><path class="fa-primary" style="fill:var(--fa-primary-color,inherit);opacity:var(--fa-primary-opacity,1);" d="M96 64L64 64l0 64 32 0 320 0 32 0 0-64-32 0L96 64zM32 224L0 224l0 64 32 0 448 0 32 0 0-64-32 0L32 224z"/></svg>