<svg xmlns="http://www.w3.org/2000/svg" viewBox="0 0 512 512"><!--! Font Awesome Pro 6.6.0 by @fontawesome - https://fontawesome.com License - https://fontawesome.com/license (Commercial License) Copyright 2024 Fonticons, Inc. --><path class="fa-secondary" style="fill:var(--fa-secondary-color,inherit);opacity:var(--fa-secondary-opacity,.4);" d="M0 192l128 0 0 224 320 0 0-256-288 0 0-128 352 0 0 448L0 480 0 192z"/><path class="fa-primary" style="fill:var(--fa-primary-color,inherit);opacity:var(--fa-primary-opacity,1);" d="M128 32L0 32 0 160l128 0 0-128zM368 192l-48 48 0 16 32 0 0 64-64 0 0-32-16 0-48 48 48 48 16 0 0-32 80 0 16 0 0-16 0-80 32 0 0-16-48-48z"/></svg>