<svg xmlns="http://www.w3.org/2000/svg" viewBox="0 0 512 512"><!--! Font Awesome Pro 6.6.0 by @fontawesome - https://fontawesome.com License - https://fontawesome.com/license (Commercial License) Copyright 2024 Fonticons, Inc. --><path class="fa-secondary" style="fill:var(--fa-secondary-color,inherit);opacity:var(--fa-secondary-opacity,.4);" d="M64 224l0 64 160 0 0 128 64 0 0-128 160 0 0-64-160 0 0-128-64 0 0 128L64 224z"/><path class="fa-primary" style="fill:var(--fa-primary-color,inherit);opacity:var(--fa-primary-opacity,1);" d="M448 96l0 320L64 416 64 96l384 0zM64 32L0 32 0 96 0 416l0 64 64 0 384 0 64 0 0-64 0-320 0-64-64 0L64 32z"/></svg>