<svg xmlns="http://www.w3.org/2000/svg" viewBox="0 0 512 512"><!--! Font Awesome Pro 6.6.0 by @fontawesome - https://fontawesome.com License - https://fontawesome.com/license (Commercial License) Copyright 2024 Fonticons, Inc. --><path class="fa-secondary" style="fill:var(--fa-secondary-color,inherit);opacity:var(--fa-secondary-opacity,.4);" d="M64 160l0 64 64 0 0 64-64 0 0 64 64 0 0 64 64 0 0-64 256 0 0-64-256 0 0-64 256 0 0-64-256 0 0-64-64 0 0 64-64 0z"/><path class="fa-primary" style="fill:var(--fa-primary-color,inherit);opacity:var(--fa-primary-opacity,1);" d="M512 32L0 32 0 480l512 0 0-448zM448 96l0 320L64 416 64 96l384 0z"/></svg>