<svg xmlns="http://www.w3.org/2000/svg" viewBox="0 0 640 512"><!--! Font Awesome Pro 6.6.0 by @fontawesome - https://fontawesome.com License - https://fontawesome.com/license (Commercial License) Copyright 2024 Fonticons, Inc. --><path class="fa-secondary" style="fill:var(--fa-secondary-color,inherit);opacity:var(--fa-secondary-opacity,.4);" d="M0 64L0 448l640 0 0-384L0 64zm64 64l288 0 0 128L64 256l0-128zm0 160l32 0 0 32-32 0 0-32zm0 64l16 0 256 0 16 0 0 32-16 0L80 384l-16 0 0-32zm64-64l32 0 0 32-32 0 0-32zm64 0l32 0 0 32-32 0 0-32zm64 0l32 0 0 32-32 0 0-32zm64 0l32 0 0 32-32 0 0-32zm64 64l16 0 160 0 16 0 0 32-16 0-160 0-16 0 0-32z"/><path class="fa-primary" style="fill:var(--fa-primary-color,inherit);opacity:var(--fa-primary-opacity,1);" d="M352 128L64 128l0 128 288 0 0-128zM80 352l-16 0 0 32 16 0 256 0 16 0 0-32-16 0L80 352zm320 0l-16 0 0 32 16 0 160 0 16 0 0-32-16 0-160 0z"/></svg>