<svg xmlns="http://www.w3.org/2000/svg" viewBox="0 0 576 512"><!--! Font Awesome Pro 6.6.0 by @fontawesome - https://fontawesome.com License - https://fontawesome.com/license (Commercial License) Copyright 2024 Fonticons, Inc. --><path class="fa-secondary" style="fill:var(--fa-secondary-color,inherit);opacity:var(--fa-secondary-opacity,.4);" d="M0 32l32 0 96 0 64 0 96 0 32 0 0 32 0 64 0 32-64 0 0-32 0-32-64 0 0 320 32 0 32 0 0 64-32 0L96 480l-32 0 0-64 32 0 32 0 0-320L64 96l0 32 0 32L0 160l0-32L0 64 0 32z"/><path class="fa-primary" style="fill:var(--fa-primary-color,inherit);opacity:var(--fa-primary-opacity,1);" d="M384 128l96-96 96 96 0 32-64 0 0 192 64 0 0 32-96 96-96-96 0-32 64 0 0-192-64 0 0-32z"/></svg>