<svg xmlns="http://www.w3.org/2000/svg" viewBox="0 0 640 512"><!--! Font Awesome Pro 6.6.0 by @fontawesome - https://fontawesome.com License - https://fontawesome.com/license (Commercial License) Copyright 2024 Fonticons, Inc. --><path class="fa-secondary" style="fill:var(--fa-secondary-color,inherit);opacity:var(--fa-secondary-opacity,.4);" d="M0 224l0 64 32 0 256 0 0 48 8 0 48 0 8 0 0-48 256 0 32 0 0-64-32 0-64 0 0-48-8 0-48 0-8 0 0 48-320 0 0-48-8 0-48 0-8 0 0 48-64 0L0 224z"/><path class="fa-primary" style="fill:var(--fa-primary-color,inherit);opacity:var(--fa-primary-opacity,1);" d="M152 72l0 48-48 0 0-48 48 0zM104 16L48 16l0 56 0 48 0 56 56 0 48 0 56 0 0-56 0-48 0-56-56 0-48 0zM536 72l0 48-48 0 0-48 48 0zM488 16l-56 0 0 56 0 48 0 56 56 0 48 0 56 0 0-56 0-48 0-56-56 0-48 0zM296 392l48 0 0 48-48 0 0-48zm-56-56l0 56 0 48 0 56 56 0 48 0 56 0 0-56 0-48 0-56-56 0-48 0-56 0z"/></svg>