<svg xmlns="http://www.w3.org/2000/svg" viewBox="0 0 320 512"><!--! Font Awesome Pro 6.6.0 by @fontawesome - https://fontawesome.com License - https://fontawesome.com/license (Commercial License) Copyright 2024 Fonticons, Inc. --><path class="fa-secondary" style="fill:var(--fa-secondary-color,inherit);opacity:var(--fa-secondary-opacity,.4);" d="M0 64l24 0 272 0 24 0 0 24 0 400 0 24-48 0 0-24 0-8L48 480l0 8 0 24L0 512l0-24L0 88 0 64zM224 224l0 16 0 64 0 16 32 0 0-16 0-64 0-16-32 0z"/><path class="fa-primary" style="fill:var(--fa-primary-color,inherit);opacity:var(--fa-primary-opacity,1);" d="M320 0L0 0 0 64l320 0 0-64zM256 240l0-16-32 0 0 16 0 64 0 16 32 0 0-16 0-64z"/></svg>