<svg xmlns="http://www.w3.org/2000/svg" viewBox="0 0 448 512"><!--! Font Awesome Pro 6.6.0 by @fontawesome - https://fontawesome.com License - https://fontawesome.com/license (Commercial License) Copyright 2024 Fonticons, Inc. --><path class="fa-secondary" style="fill:var(--fa-secondary-color,inherit);opacity:var(--fa-secondary-opacity,.4);" d="M32 192l0 256 384 0 0-256C416 86 330 0 224 0S32 86 32 192zm96 0l24 0 48 0 0-40 0-24 48 0 0 24 0 40 48 0 24 0 0 48-24 0-48 0 0 120 0 24-48 0 0-24 0-120-48 0-24 0 0-48z"/><path class="fa-primary" style="fill:var(--fa-primary-color,inherit);opacity:var(--fa-primary-opacity,1);" d="M248 152l0-24-48 0 0 24 0 40-48 0-24 0 0 48 24 0 48 0 0 120 0 24 48 0 0-24 0-120 48 0 24 0 0-48-24 0-48 0 0-40zM32 448L0 448l0 64 32 0 384 0 32 0 0-64-32 0L32 448z"/></svg>