<svg xmlns="http://www.w3.org/2000/svg" viewBox="0 0 512 512"><!--! Font Awesome Pro 6.6.0 by @fontawesome - https://fontawesome.com License - https://fontawesome.com/license (Commercial License) Copyright 2024 Fonticons, Inc. --><path class="fa-secondary" style="fill:var(--fa-secondary-color,inherit);opacity:var(--fa-secondary-opacity,.4);" d="M64 128l64 0 0 96-64 0 0-96zm0 160l64 0 0 192 0 32-64 0 0-32 0-192zM224 128l64 0 0 96-64 0 0-96zm160 0l64 0 0 96-64 0 0-96zm0 160l64 0 0 192 0 32-64 0 0-32 0-192z"/><path class="fa-primary" style="fill:var(--fa-primary-color,inherit);opacity:var(--fa-primary-opacity,1);" d="M64 128l384 0 64-64 0-64L416 32 96 32 0 0 0 64l64 64zM32 224L0 224l0 64 32 0 448 0 32 0 0-64-32 0L32 224z"/></svg>