<svg xmlns="http://www.w3.org/2000/svg" viewBox="0 0 320 512"><!--! Font Awesome Pro 6.6.0 by @fontawesome - https://fontawesome.com License - https://fontawesome.com/license (Commercial License) Copyright 2024 Fonticons, Inc. --><path class="fa-secondary" style="fill:var(--fa-secondary-color,inherit);opacity:var(--fa-secondary-opacity,.4);" d="M112 240a48 48 0 1 0 96 0 48 48 0 1 0 -96 0z"/><path class="fa-primary" style="fill:var(--fa-primary-color,inherit);opacity:var(--fa-primary-opacity,1);" d="M320 0L0 0 0 352c0 88.4 71.6 160 160 160s160-71.6 160-160L320 0zM160 416a48 48 0 1 1 0-96 48 48 0 1 1 0 96zm48-176a48 48 0 1 1 -96 0 48 48 0 1 1 96 0zm-48-80a48 48 0 1 1 0-96 48 48 0 1 1 0 96z"/></svg>