<svg xmlns="http://www.w3.org/2000/svg" viewBox="0 0 512 512"><!--! Font Awesome Pro 6.6.0 by @fontawesome - https://fontawesome.com License - https://fontawesome.com/license (Commercial License) Copyright 2024 Fonticons, Inc. --><path class="fa-secondary" style="fill:var(--fa-secondary-color,inherit);opacity:var(--fa-secondary-opacity,.4);" d="M85.7 352l340.6 0-25.1-64-290.3 0c-8.4 21.3-16.8 42.7-25.1 64zm62.9-160l214.9 0-25.1-64-164.6 0c-8.4 21.3-16.8 42.7-25.1 64z"/><path class="fa-primary" style="fill:var(--fa-primary-color,inherit);opacity:var(--fa-primary-opacity,1);" d="M173.7 128L224 0l64 0 50.3 128-164.6 0zm-25.1 64l214.9 0 37.7 96-290.3 0 37.7-96zM48 448l37.7-96 340.6 0L464 448l48 0 0 64L0 512l0-64 48 0z"/></svg>