<svg xmlns="http://www.w3.org/2000/svg" viewBox="0 0 512 512"><!--! Font Awesome Pro 6.6.0 by @fontawesome - https://fontawesome.com License - https://fontawesome.com/license (Commercial License) Copyright 2024 Fonticons, Inc. --><path class="fa-secondary" style="fill:var(--fa-secondary-color,inherit);opacity:var(--fa-secondary-opacity,.4);" d="M0 48L32 32 48 0 64 32 96 48 64 64 48 96 32 64 0 48zM96 256l16 0 288 0 16 0 0 32-16 0-288 0-16 0 0-32zM208 0l16 0 64 0 16 0 0 32-16 0-64 0-16 0 0-32zM416 400l32-16 16-32 16 32 32 16-32 16-16 32-16-32-32-16z"/><path class="fa-primary" style="fill:var(--fa-primary-color,inherit);opacity:var(--fa-primary-opacity,1);" d="M96 448H416v64H96V448z"/></svg>