<svg xmlns="http://www.w3.org/2000/svg" viewBox="0 0 512 512"><!--! Font Awesome Pro 6.6.0 by @fontawesome - https://fontawesome.com License - https://fontawesome.com/license (Commercial License) Copyright 2024 Fonticons, Inc. --><path class="fa-secondary" style="fill:var(--fa-secondary-color,inherit);opacity:var(--fa-secondary-opacity,.4);" d="M0 400l32-16 16-32 16 32 32 16L64 416 48 448 32 416 0 400zM96 256l16 0 288 0 16 0 0 32-16 0-288 0-16 0 0-32zm32-64l16 0 224 0 16 0 0 32-16 0-224 0-16 0 0-32zm32-64l16 0 160 0 16 0 0 32-16 0-160 0-16 0 0-32zm0 192l16 0 160 0 16 0 0 32-16 0-160 0-16 0 0-32zm0 64l16 0 160 0 16 0 0 32-16 0-160 0-16 0 0-32zM208 0l16 0 64 0 16 0 0 32-16 0-64 0-16 0 0-32zm0 64l16 0 64 0 16 0 0 32-16 0-64 0-16 0 0-32zM416 176l32-16 16-32 16 32 32 16-32 16-16 32-16-32-32-16z"/><path class="fa-primary" style="fill:var(--fa-primary-color,inherit);opacity:var(--fa-primary-opacity,1);" d="M296 512l120 0 0-64L96 448l0 64 120 0 80 0z"/></svg>