<svg xmlns="http://www.w3.org/2000/svg" viewBox="0 0 512 512"><!--! Font Awesome Pro 6.6.0 by @fontawesome - https://fontawesome.com License - https://fontawesome.com/license (Commercial License) Copyright 2024 Fonticons, Inc. --><path class="fa-secondary" style="fill:var(--fa-secondary-color,inherit);opacity:var(--fa-secondary-opacity,.4);" d="M0 176l32 16 16 32 16-32 32-16L64 160 48 128 32 160 0 176zm96 80l0 32 16 0 288 0 16 0 0-32-16 0-288 0-16 0zm64-128l0 32 16 0 160 0 16 0 0-32-16 0-160 0-16 0zm0 256l0 32 16 0 160 0 16 0 0-32-16 0-160 0-16 0zM208 0l0 32 16 0 64 0 16 0 0-32L288 0 224 0 208 0zM416 48l32 16 16 32 16-32 32-16L480 32 464 0 448 32 416 48z"/><path class="fa-primary" style="fill:var(--fa-primary-color,inherit);opacity:var(--fa-primary-opacity,1);" d="M96 448H416v64H96V448z"/></svg>