<svg xmlns="http://www.w3.org/2000/svg" viewBox="0 0 448 512"><!--! Font Awesome Pro 6.6.0 by @fontawesome - https://fontawesome.com License - https://fontawesome.com/license (Commercial License) Copyright 2024 Fonticons, Inc. --><path class="fa-secondary" style="fill:var(--fa-secondary-color,inherit);opacity:var(--fa-secondary-opacity,.4);" d="M32 96l0 416 384 0 0-416L32 96zm80 64l32 0 0 16 0 224 0 16-32 0 0-16 0-224 0-16zm96 0l32 0 0 16 0 224 0 16-32 0 0-16 0-224 0-16zm96 0l32 0 0 16 0 224 0 16-32 0 0-16 0-224 0-16z"/><path class="fa-primary" style="fill:var(--fa-primary-color,inherit);opacity:var(--fa-primary-opacity,1);" d="M304 0L144 0 128 32 0 32 0 96l448 0 0-64L320 32 304 0z"/></svg>