<svg xmlns="http://www.w3.org/2000/svg" viewBox="0 0 640 512"><!--! Font Awesome Pro 6.6.0 by @fontawesome - https://fontawesome.com License - https://fontawesome.com/license (Commercial License) Copyright 2024 Fonticons, Inc. --><path class="fa-secondary" style="fill:var(--fa-secondary-color,inherit);opacity:var(--fa-secondary-opacity,.4);" d="M32 96l0 416 352 0 0-416L32 96zm96 80l32 0 0 16 0 224 0 16-32 0 0-16 0-224 0-16zm128 0l32 0 0 16 0 224 0 16-32 0 0-16 0-224 0-16z"/><path class="fa-primary" style="fill:var(--fa-primary-color,inherit);opacity:var(--fa-primary-opacity,1);" d="M128 0L288 0l16 32 112 0 0 64L0 96 0 32l112 0L128 0zM640 128l0 64-192 0 0-64 192 0zM608 256l0 64-160 0 0-64 160 0zM448 384l96 0 0 64-96 0 0-64z"/></svg>