<svg xmlns="http://www.w3.org/2000/svg" viewBox="0 0 448 512"><!--! Font Awesome Pro 6.6.0 by @fontawesome - https://fontawesome.com License - https://fontawesome.com/license (Commercial License) Copyright 2024 Fonticons, Inc. --><path class="fa-secondary" style="fill:var(--fa-secondary-color,inherit);opacity:var(--fa-secondary-opacity,.4);" d="M0 480l0 32 448 0 0-32L368 352l56 0 0-32L344 208l48 0 0-32L224 0 56 176l0 32 48 0L24 320l0 32 56 0L0 480zM184 288a24 24 0 1 1 -48 0 24 24 0 1 1 48 0zm96-128a24 24 0 1 1 -48 0 24 24 0 1 1 48 0zm32 256a24 24 0 1 1 -48 0 24 24 0 1 1 48 0z"/><path class="fa-primary" style="fill:var(--fa-primary-color,inherit);opacity:var(--fa-primary-opacity,1);" d="M256 184a24 24 0 1 0 0-48 24 24 0 1 0 0 48zm32 256a24 24 0 1 0 0-48 24 24 0 1 0 0 48z"/></svg>