<svg xmlns="http://www.w3.org/2000/svg" viewBox="0 0 512 512"><!--! Font Awesome Pro 6.6.0 by @fontawesome - https://fontawesome.com License - https://fontawesome.com/license (Commercial License) Copyright 2024 Fonticons, Inc. --><path class="fa-secondary" style="fill:var(--fa-secondary-color,inherit);opacity:var(--fa-secondary-opacity,.4);" d="M32 448l96 0 0 64-96 0 0-64zm80-224l24-96 240 0 24 96-288 0zM384 448l96 0 0 64-96 0 0-64z"/><path class="fa-primary" style="fill:var(--fa-primary-color,inherit);opacity:var(--fa-primary-opacity,1);" d="M512 0L0 0 0 448l512 0L512 0zM112 224l24-96 240 0 24 96-288 0zM64 320a32 32 0 1 1 64 0 32 32 0 1 1 -64 0zm352-32a32 32 0 1 1 0 64 32 32 0 1 1 0-64z"/></svg>