<svg xmlns="http://www.w3.org/2000/svg" viewBox="0 0 640 512"><!--! Font Awesome Pro 6.6.0 by @fontawesome - https://fontawesome.com License - https://fontawesome.com/license (Commercial License) Copyright 2024 Fonticons, Inc. --><path class="fa-secondary" style="fill:var(--fa-secondary-color,inherit);opacity:var(--fa-secondary-opacity,.4);" d="M14.8 176.8l216.4-58 58 216.4-216.4 58-58-216.4zm77.3-20.7l24.8 92.7 61.8-16.6-24.8-92.7L92.1 156.1zM544 320a96 96 0 1 1 0 192 96 96 0 1 1 0-192z"/><path class="fa-primary" style="fill:var(--fa-primary-color,inherit);opacity:var(--fa-primary-opacity,1);" d="M544 288c-66.1 0-120.6 50.2-127.3 114.5L48.4 502.9l-30.9 8.4L.7 449.5l30.9-8.4L352 353.8 352 0 640 0l0 331.3c-23.5-26.6-57.8-43.3-96-43.3zM153.9 139.5l24.8 92.7-61.8 16.6L92.1 156.1l61.8-16.6z"/></svg>