<svg xmlns="http://www.w3.org/2000/svg" viewBox="0 0 640 512"><!--! Font Awesome Pro 6.6.0 by @fontawesome - https://fontawesome.com License - https://fontawesome.com/license (Commercial License) Copyright 2024 Fonticons, Inc. --><path class="fa-secondary" style="fill:var(--fa-secondary-color,inherit);opacity:var(--fa-secondary-opacity,.4);" d="M0 0L64 0 576 0l64 0 0 64 0 288 0 64-64 0L64 416 0 416l0-64L0 64 0 0zM64 64l0 288 512 0 0-288L64 64zM96 448l32 0 384 0 32 0 0 64-32 0-384 0-32 0 0-64z"/><path class="fa-primary" style="fill:var(--fa-primary-color,inherit);opacity:var(--fa-primary-opacity,1);" d="M64 64H576V352H64V64z"/></svg>