<svg xmlns="http://www.w3.org/2000/svg" viewBox="0 0 448 512"><!--! Font Awesome Pro 6.6.0 by @fontawesome - https://fontawesome.com License - https://fontawesome.com/license (Commercial License) Copyright 2024 Fonticons, Inc. --><path class="fa-secondary" style="fill:var(--fa-secondary-color,inherit);opacity:var(--fa-secondary-opacity,.4);" d="M16 32l0 64 32 0 16 0 0 128c0 88.4 71.6 160 160 160s160-71.6 160-160l0-128 16 0 32 0 0-64-32 0-96 0-32 0 0 64 32 0 16 0 0 128c0 53-43 96-96 96s-96-43-96-96l0-128 16 0 32 0 0-64-32 0L48 32 16 32z"/><path class="fa-primary" style="fill:var(--fa-primary-color,inherit);opacity:var(--fa-primary-opacity,1);" d="M0 416l32 0 384 0 32 0 0 64-32 0L32 480 0 480l0-64z"/></svg>