<svg xmlns="http://www.w3.org/2000/svg" viewBox="0 0 448 512"><!--! Font Awesome Pro 6.6.0 by @fontawesome - https://fontawesome.com License - https://fontawesome.com/license (Commercial License) Copyright 2024 Fonticons, Inc. --><path class="fa-secondary" style="fill:var(--fa-secondary-color,inherit);opacity:var(--fa-secondary-opacity,.4);" d="M0 32l64 0 0 64L0 96 0 32zm96 0l64 0 0 64L96 96l0-64zm96 0l64 0 0 64-64 0 0-64zm96 0l64 0 0 64-64 0 0-64zm96 0l64 0 0 64-64 0 0-64z"/><path class="fa-primary" style="fill:var(--fa-primary-color,inherit);opacity:var(--fa-primary-opacity,1);" d="M224 128L64 288l0 32 96 0 0 160 128 0 0-160 96 0 0-32L224 128z"/></svg>