<svg xmlns="http://www.w3.org/2000/svg" viewBox="0 0 512 512"><!--! Font Awesome Pro 6.6.0 by @fontawesome - https://fontawesome.com License - https://fontawesome.com/license (Commercial License) Copyright 2024 Fonticons, Inc. --><path class="fa-secondary" style="fill:var(--fa-secondary-color,inherit);opacity:var(--fa-secondary-opacity,.4);" d="M0 32L0 64 0 448l0 32 64 0 0-32L64 64l0-32L0 32zm448 0l0 32 0 384 0 32 64 0 0-32 0-384 0-32-64 0z"/><path class="fa-primary" style="fill:var(--fa-primary-color,inherit);opacity:var(--fa-primary-opacity,1);" d="M182.6 137.4L160 114.7 114.7 160l22.6 22.6L210.7 256l-73.4 73.4L114.7 352 160 397.3l22.6-22.6L256 301.3l73.4 73.4L352 397.3 397.3 352l-22.6-22.6L301.3 256l73.4-73.4L397.3 160 352 114.7l-22.6 22.6L256 210.7l-73.4-73.4z"/></svg>