<svg xmlns="http://www.w3.org/2000/svg" viewBox="0 0 448 512"><!--! Font Awesome Pro 6.6.0 by @fontawesome - https://fontawesome.com License - https://fontawesome.com/license (Commercial License) Copyright 2024 Fonticons, Inc. --><path class="fa-secondary" style="fill:var(--fa-secondary-color,inherit);opacity:var(--fa-secondary-opacity,.4);" d="M32 160l16 0 32 0 16 0 0 192-16 0-32 0-16 0 0-192zm96-96l192 0 0 16 0 32 0 16-192 0 0-16 0-32 0-16zm0 320l192 0 0 16 0 32 0 16-192 0 0-16 0-32 0-16zM352 160l16 0 32 0 16 0 0 192-16 0-32 0-16 0 0-192z"/><path class="fa-primary" style="fill:var(--fa-primary-color,inherit);opacity:var(--fa-primary-opacity,1);" d="M400 80l0 32-32 0 0-32 32 0zM368 32l-48 0 0 48 0 32 0 48 48 0 32 0 48 0 0-48 0-32 0-48-48 0-32 0zM48 400l32 0 0 32-32 0 0-32zM0 352l0 48 0 32 0 48 48 0 32 0 48 0 0-48 0-32 0-48-48 0-32 0L0 352zm368 48l32 0 0 32-32 0 0-32zm-48-48l0 48 0 32 0 48 48 0 32 0 48 0 0-48 0-32 0-48-48 0-32 0-48 0zM48 80l32 0 0 32-32 0 0-32zM0 32L0 80l0 32 0 48 48 0 32 0 48 0 0-48 0-32 0-48L80 32 48 32 0 32z"/></svg>