<svg xmlns="http://www.w3.org/2000/svg" viewBox="0 0 640 512"><!--! Font Awesome Pro 6.6.0 by @fontawesome - https://fontawesome.com License - https://fontawesome.com/license (Commercial License) Copyright 2024 Fonticons, Inc. --><path class="fa-secondary" style="fill:var(--fa-secondary-color,inherit);opacity:var(--fa-secondary-opacity,.4);" d="M0 160l64 0 0 192L0 352 0 160zm576 0l64 0 0 192-64 0 0-192z"/><path class="fa-primary" style="fill:var(--fa-primary-color,inherit);opacity:var(--fa-primary-opacity,1);" d="M576 64L64 64l0 384 512 0 0-384zM184 144l272 0 24 0 0 48-24 0-272 0-24 0 0-48 24 0zm0 88l272 0 24 0 0 48-24 0-272 0-24 0 0-48 24 0zm0 88l272 0 24 0 0 48-24 0-272 0-24 0 0-48 24 0z"/></svg>