<svg xmlns="http://www.w3.org/2000/svg" viewBox="0 0 384 512"><!--! Font Awesome Pro 6.6.0 by @fontawesome - https://fontawesome.com License - https://fontawesome.com/license (Commercial License) Copyright 2024 Fonticons, Inc. --><path class="fa-secondary" style="fill:var(--fa-secondary-color,inherit);opacity:var(--fa-secondary-opacity,.4);" d="M0 64l64 0 256 0 64 0 0 384-64 0L64 448 0 448 0 64zm168 72l0 24 0 96 0 9.9 7 7 48 48 17 17L273.9 304l-17-17-41-41 0-86.1 0-24-24 0-24 0z"/><path class="fa-primary" style="fill:var(--fa-primary-color,inherit);opacity:var(--fa-primary-opacity,1);" d="M64 0l0 64 256 0 0-64L64 0zm0 512l256 0 0-64L64 448l0 64zM216 160l0-24-48 0 0 24 0 96 0 9.9 7 7 48 48 17 17L273.9 304l-17-17-41-41 0-86.1z"/></svg>