<svg xmlns="http://www.w3.org/2000/svg" viewBox="0 0 640 512"><!--! Font Awesome Pro 6.6.0 by @fontawesome - https://fontawesome.com License - https://fontawesome.com/license (Commercial License) Copyright 2024 Fonticons, Inc. --><path class="fa-secondary" style="fill:var(--fa-secondary-color,inherit);opacity:var(--fa-secondary-opacity,.4);" d="M96 192l0 32 0 64 0 32 64 0 0-32 0-64 0-32-64 0zM288 0l0 32 0 448 0 32 64 0 0-32 0-448 0-32L288 0zM480 64l0 32 0 320 0 32 64 0 0-32 0-320 0-32-64 0z"/><path class="fa-primary" style="fill:var(--fa-primary-color,inherit);opacity:var(--fa-primary-opacity,1);" d="M256 128l0-32-64 0 0 32 0 256 0 32 64 0 0-32 0-256zm192 32l0-32-64 0 0 32 0 192 0 32 64 0 0-32 0-192zM0 224l0 64 64 0 0-64L0 224zm576 0l0 64 64 0 0-64-64 0z"/></svg>