<svg xmlns="http://www.w3.org/2000/svg" viewBox="0 0 512 512"><!--! Font Awesome Pro 6.6.0 by @fontawesome - https://fontawesome.com License - https://fontawesome.com/license (Commercial License) Copyright 2024 Fonticons, Inc. --><path class="fa-secondary" style="fill:var(--fa-secondary-color,inherit);opacity:var(--fa-secondary-opacity,.4);" d="M0 32L9.1 96 64 480l384 0L502.9 96 512 32l-64.6 0L64.6 32 0 32zM73.8 96l364.4 0c-4.6 32-9.1 64-13.7 96l-32 224-273 0-32-224c-4.6-32-9.1-64-13.7-96z"/><path class="fa-primary" style="fill:var(--fa-primary-color,inherit);opacity:var(--fa-primary-opacity,1);" d="M87.5 192l32 224 273 0 32-224-337 0zM256 320l64-64 64 64-64 64-64-64zm0-96l0 50.7-22.6 22.6L210.7 320l16 16L144 336l0-112 112 0z"/></svg>