<svg xmlns="http://www.w3.org/2000/svg" viewBox="0 0 512 512"><!--! Font Awesome Pro 6.6.0 by @fontawesome - https://fontawesome.com License - https://fontawesome.com/license (Commercial License) Copyright 2024 Fonticons, Inc. --><path class="fa-secondary" style="fill:var(--fa-secondary-color,inherit);opacity:var(--fa-secondary-opacity,.4);" d="M0 224l512 0 0 256L0 480 0 224zM288 96l64 0 0 64-64 0 0-64zm96 0l64 0 0 64-64 0 0-64z"/><path class="fa-primary" style="fill:var(--fa-primary-color,inherit);opacity:var(--fa-primary-opacity,1);" d="M0 32l512 0 0 192L0 224 0 32zM384 96l0 64 64 0 0-64-64 0zm-32 0l-64 0 0 64 64 0 0-64zM192 96l0 64 64 0 0-64-64 0z"/></svg>