<svg xmlns="http://www.w3.org/2000/svg" viewBox="0 0 512 512"><!--! Font Awesome Pro 6.6.0 by @fontawesome - https://fontawesome.com License - https://fontawesome.com/license (Commercial License) Copyright 2024 Fonticons, Inc. --><path class="fa-secondary" style="fill:var(--fa-secondary-color,inherit);opacity:var(--fa-secondary-opacity,.4);" d="M0 256C0 397.4 114.6 512 256 512c17.7 0 32-14.3 32-32s-14.3-32-32-32C150 448 64 362 64 256S150 64 256 64c17.7 0 32-14.3 32-32s-14.3-32-32-32C114.6 0 0 114.6 0 256z"/><path class="fa-primary" style="fill:var(--fa-primary-color,inherit);opacity:var(--fa-primary-opacity,1);" d="M326.6 121.4c-12.5-12.5-32.8-12.5-45.3 0l-112 112c-12.5 12.5-12.5 32.8 0 45.3l112 112c12.5 12.5 32.8 12.5 45.3 0s12.5-32.8 0-45.3L269.3 288 480 288c17.7 0 32-14.3 32-32s-14.3-32-32-32l-210.7 0 57.4-57.4c12.5-12.5 12.5-32.8 0-45.3z"/></svg>