<svg xmlns="http://www.w3.org/2000/svg" viewBox="0 0 384 512"><!--! Font Awesome Pro 6.6.0 by @fontawesome - https://fontawesome.com License - https://fontawesome.com/license (Commercial License) Copyright 2024 Fonticons, Inc. --><path class="fa-secondary" style="fill:var(--fa-secondary-color,inherit);opacity:var(--fa-secondary-opacity,.4);" d="M32 384c0 8.2 3.1 16.4 9.4 22.6c12.5 12.5 32.8 12.5 45.3 0L288 205.3l0-45.3-45.3 0L41.4 361.4C35.1 367.6 32 375.8 32 384z"/><path class="fa-primary" style="fill:var(--fa-primary-color,inherit);opacity:var(--fa-primary-opacity,1);" d="M352 128c0-17.7-14.3-32-32-32L96 96c-17.7 0-32 14.3-32 32s14.3 32 32 32l192 0 0 192c0 17.7 14.3 32 32 32s32-14.3 32-32l0-224z"/></svg>