<svg xmlns="http://www.w3.org/2000/svg" viewBox="0 0 448 512"><!--! Font Awesome Pro 6.6.0 by @fontawesome - https://fontawesome.com License - https://fontawesome.com/license (Commercial License) Copyright 2024 Fonticons, Inc. --><path class="fa-secondary" style="fill:var(--fa-secondary-color,inherit);opacity:var(--fa-secondary-opacity,.4);" d="M64 416c0-17.7 14.3-32 32-32l160 0 96 0 64 0 0 64-64 0-96 0L96 448c-17.7 0-32-14.3-32-32z"/><path class="fa-primary" style="fill:var(--fa-primary-color,inherit);opacity:var(--fa-primary-opacity,1);" d="M96 0C43 0 0 43 0 96L0 416c0 53 43 96 96 96l288 0 32 0c17.7 0 32-14.3 32-32s-14.3-32-32-32l-64 0-96 0L96 448c-17.7 0-32-14.3-32-32s14.3-32 32-32l160 0 96 0 64 0c17.7 0 32-14.3 32-32l0-320c0-17.7-14.3-32-32-32L384 0 352 0l0 190.7c0 13.4-15.5 20.9-26 12.5L272 160l-54 43.2c-10.5 8.4-26 .9-26-12.5L192 0 96 0z"/></svg>