<svg xmlns="http://www.w3.org/2000/svg" viewBox="0 0 512 512"><!--! Font Awesome Pro 6.6.0 by @fontawesome - https://fontawesome.com License - https://fontawesome.com/license (Commercial License) Copyright 2024 Fonticons, Inc. --><path class="fa-secondary" style="fill:var(--fa-secondary-color,inherit);opacity:var(--fa-secondary-opacity,.4);" d="M0 256a256 256 0 1 0 512 0A256 256 0 1 0 0 256zm128 0c0-13.3 10.7-24 24-24l80 0 0-112c0-13.3 10.7-24 24-24s24 10.7 24 24l0 136c0 13.3-10.7 24-24 24l-104 0c-13.3 0-24-10.7-24-24z"/><path class="fa-primary" style="fill:var(--fa-primary-color,inherit);opacity:var(--fa-primary-opacity,1);" d="M256 96c13.3 0 24 10.7 24 24l0 136c0 13.3-10.7 24-24 24l-104 0c-13.3 0-24-10.7-24-24s10.7-24 24-24l80 0 0-112c0-13.3 10.7-24 24-24z"/></svg>