<svg xmlns="http://www.w3.org/2000/svg" viewBox="0 0 512 512"><!--! Font Awesome Pro 6.6.0 by @fontawesome - https://fontawesome.com License - https://fontawesome.com/license (Commercial License) Copyright 2024 Fonticons, Inc. --><path class="fa-secondary" style="fill:var(--fa-secondary-color,inherit);opacity:var(--fa-secondary-opacity,.4);" d="M0 256a256 256 0 1 0 512 0A256 256 0 1 0 0 256zm448 0A192 192 0 1 1 64 256a192 192 0 1 1 384 0zM96 256a160 160 0 1 0 320 0A160 160 0 1 0 96 256zm136-72c0-13.3 10.7-24 24-24s24 10.7 24 24l0 144c0 13.3-10.7 24-24 24s-24-10.7-24-24l0-144z"/><path class="fa-primary" style="fill:var(--fa-primary-color,inherit);opacity:var(--fa-primary-opacity,1);" d="M256 96a160 160 0 1 1 0 320 160 160 0 1 1 0-320zm0 352a192 192 0 1 0 0-384 192 192 0 1 0 0 384z"/></svg>