<svg xmlns="http://www.w3.org/2000/svg" viewBox="0 0 384 512"><!--! Font Awesome Pro 6.6.0 by @fontawesome - https://fontawesome.com License - https://fontawesome.com/license (Commercial License) Copyright 2024 Fonticons, Inc. --><path class="fa-secondary" style="fill:var(--fa-secondary-color,inherit);opacity:var(--fa-secondary-opacity,.4);" d="M0 176l0 32c0 26.5 21.5 48 48 48l80 0 128 0 80 0c26.5 0 48-21.5 48-48l0-32c0-26.5-21.5-48-48-48l-80 0 0-80c0-26.5-21.5-48-48-48L176 0c-26.5 0-48 21.5-48 48l0 80-80 0c-26.5 0-48 21.5-48 48zM128 288l0 176c0 26.5 21.5 48 48 48l32 0c26.5 0 48-21.5 48-48l0-176-128 0z"/><path class="fa-primary" style="fill:var(--fa-primary-color,inherit);opacity:var(--fa-primary-opacity,1);" d="M128 256H256v32H128V256z"/></svg>