<svg xmlns="http://www.w3.org/2000/svg" viewBox="0 0 512 512"><!--! Font Awesome Pro 6.6.0 by @fontawesome - https://fontawesome.com License - https://fontawesome.com/license (Commercial License) Copyright 2024 Fonticons, Inc. --><path class="fa-secondary" style="fill:var(--fa-secondary-color,inherit);opacity:var(--fa-secondary-opacity,.4);" d="M96 224l0 96c0 53 43 96 96 96l32 0 0-64-32 0c-17.7 0-32-14.3-32-32l0-96-64 0z"/><path class="fa-primary" style="fill:var(--fa-primary-color,inherit);opacity:var(--fa-primary-opacity,1);" d="M64 32C28.7 32 0 60.7 0 96l0 64c0 35.3 28.7 64 64 64l384 0c35.3 0 64-28.7 64-64l0-64c0-35.3-28.7-64-64-64L64 32zM288 288c-35.3 0-64 28.7-64 64l0 64c0 35.3 28.7 64 64 64l160 0c35.3 0 64-28.7 64-64l0-64c0-35.3-28.7-64-64-64l-160 0z"/></svg>