<svg xmlns="http://www.w3.org/2000/svg" viewBox="0 0 512 512"><!--! Font Awesome Pro 6.6.0 by @fontawesome - https://fontawesome.com License - https://fontawesome.com/license (Commercial License) Copyright 2024 Fonticons, Inc. --><path class="fa-secondary" style="fill:var(--fa-secondary-color,inherit);opacity:var(--fa-secondary-opacity,.4);" d="M0 224c0-17.7 14.3-32 32-32l32 0 0-32c0-17.7 14.3-32 32-32l32 0 0-32c0-17.7 14.3-32 32-32l192 0c17.7 0 32 14.3 32 32l0 32 32 0c17.7 0 32 14.3 32 32l0 32 32 0c17.7 0 32 14.3 32 32l0 192c0 17.7-14.3 32-32 32l-64 0 0-112c0-8.8-7.2-16-16-16s-16 7.2-16 16l0 112-64 0 0-112c0-8.8-7.2-16-16-16s-16 7.2-16 16l0 112-64 0 0-112c0-8.8-7.2-16-16-16s-16 7.2-16 16l0 112-64 0 0-112c0-8.8-7.2-16-16-16s-16 7.2-16 16l0 112-64 0c-17.7 0-32-14.3-32-32L0 224z"/><path class="fa-primary" style="fill:var(--fa-primary-color,inherit);opacity:var(--fa-primary-opacity,1);" d="M112 320c8.8 0 16 7.2 16 16l0 112-32 0 0-112c0-8.8 7.2-16 16-16zm96 0c8.8 0 16 7.2 16 16l0 112-32 0 0-112c0-8.8 7.2-16 16-16zm96 0c8.8 0 16 7.2 16 16l0 112-32 0 0-112c0-8.8 7.2-16 16-16zm96 0c8.8 0 16 7.2 16 16l0 112-32 0 0-112c0-8.8 7.2-16 16-16z"/></svg>