<svg xmlns="http://www.w3.org/2000/svg" viewBox="0 0 512 512"><!--! Font Awesome Pro 6.6.0 by @fontawesome - https://fontawesome.com License - https://fontawesome.com/license (Commercial License) Copyright 2024 Fonticons, Inc. --><path class="fa-secondary" style="fill:var(--fa-secondary-color,inherit);opacity:var(--fa-secondary-opacity,.4);" d="M0 256a256 256 0 1 0 512 0A256 256 0 1 0 0 256zm105.2 75.5c-5-11.8 7-22.5 19.3-18.7c39.7 12.2 84.5 19 131.8 19s92.1-6.8 131.8-19c12.3-3.8 24.3 6.9 19.3 18.7C382.4 390.6 324.2 432 256.3 432s-126.2-41.4-151.1-100.5zM208.4 208a32 32 0 1 1 -64 0 32 32 0 1 1 64 0zm160 0a32 32 0 1 1 -64 0 32 32 0 1 1 64 0z"/><path class="fa-primary" style="fill:var(--fa-primary-color,inherit);opacity:var(--fa-primary-opacity,1);" d="M176.4 240a32 32 0 1 0 0-64 32 32 0 1 0 0 64zm160 0a32 32 0 1 0 0-64 32 32 0 1 0 0 64z"/></svg>