<svg xmlns="http://www.w3.org/2000/svg" viewBox="0 0 384 512"><!--! Font Awesome Pro 6.6.0 by @fontawesome - https://fontawesome.com License - https://fontawesome.com/license (Commercial License) Copyright 2024 Fonticons, Inc. --><path class="fa-secondary" style="fill:var(--fa-secondary-color,inherit);opacity:var(--fa-secondary-opacity,.4);" d="M0 64C0 28.7 28.7 0 64 0L224 0l0 128c0 17.7 14.3 32 32 32l128 0 0 288c0 35.3-28.7 64-64 64L64 512c-35.3 0-64-28.7-64-64L0 64zM96 328c0 13.3 10.7 24 24 24l144 0c13.3 0 24-10.7 24-24s-10.7-24-24-24l-144 0c-13.3 0-24 10.7-24 24z"/><path class="fa-primary" style="fill:var(--fa-primary-color,inherit);opacity:var(--fa-primary-opacity,1);" d="M384 160L224 0l0 128c0 17.7 14.3 32 32 32l128 0zM120 304c-13.3 0-24 10.7-24 24s10.7 24 24 24l144 0c13.3 0 24-10.7 24-24s-10.7-24-24-24l-144 0z"/></svg>