<svg xmlns="http://www.w3.org/2000/svg" viewBox="0 0 512 512"><!--! Font Awesome Pro 6.6.0 by @fontawesome - https://fontawesome.com License - https://fontawesome.com/license (Commercial License) Copyright 2024 Fonticons, Inc. --><path class="fa-secondary" style="fill:var(--fa-secondary-color,inherit);opacity:var(--fa-secondary-opacity,.4);" d="M32 328l0 112c0 22.1 17.9 40 40 40l112 0c22.1 0 40-17.9 40-40l0-112c0-22.1-17.9-40-40-40L72 288c-22.1 0-40 17.9-40 40zM288 72l0 112c0 22.1 17.9 40 40 40l112 0c22.1 0 40-17.9 40-40l0-112c0-22.1-17.9-40-40-40L328 32c-22.1 0-40 17.9-40 40z"/><path class="fa-primary" style="fill:var(--fa-primary-color,inherit);opacity:var(--fa-primary-opacity,1);" d="M224 80c0-26.5-21.5-48-48-48L80 32C53.5 32 32 53.5 32 80l0 96c0 26.5 21.5 48 48 48l96 0c26.5 0 48-21.5 48-48l0-96zM480 336c0-26.5-21.5-48-48-48l-96 0c-26.5 0-48 21.5-48 48l0 96c0 26.5 21.5 48 48 48l96 0c26.5 0 48-21.5 48-48l0-96z"/></svg>