<svg xmlns="http://www.w3.org/2000/svg" viewBox="0 0 576 512"><!--! Font Awesome Pro 6.6.0 by @fontawesome - https://fontawesome.com License - https://fontawesome.com/license (Commercial License) Copyright 2024 Fonticons, Inc. --><path class="fa-secondary" style="fill:var(--fa-secondary-color,inherit);opacity:var(--fa-secondary-opacity,.4);" d="M160 256c0-17.7 14.3-32 32-32l192 0c17.7 0 32 14.3 32 32s-14.3 32-32 32l-192 0c-17.7 0-32-14.3-32-32z"/><path class="fa-primary" style="fill:var(--fa-primary-color,inherit);opacity:var(--fa-primary-opacity,1);" d="M160 96C71.6 96 0 167.6 0 256s71.6 160 160 160l64 0c17.7 0 32-14.3 32-32s-14.3-32-32-32l-64 0c-53 0-96-43-96-96s43-96 96-96l64 0c17.7 0 32-14.3 32-32s-14.3-32-32-32l-64 0zm256 0l-64 0c-17.7 0-32 14.3-32 32s14.3 32 32 32l64 0c53 0 96 43 96 96s-43 96-96 96l-64 0c-17.7 0-32 14.3-32 32s14.3 32 32 32l64 0c88.4 0 160-71.6 160-160s-71.6-160-160-160z"/></svg>