<svg xmlns="http://www.w3.org/2000/svg" viewBox="0 0 512 512"><!--! Font Awesome Pro 6.6.0 by @fontawesome - https://fontawesome.com License - https://fontawesome.com/license (Commercial License) Copyright 2024 Fonticons, Inc. --><path class="fa-secondary" style="fill:var(--fa-secondary-color,inherit);opacity:var(--fa-secondary-opacity,.4);" d="M96 400c0 8.8 7.2 16 16 16l192 0c8.8 0 16-7.2 16-16s-7.2-16-16-16l-192 0c-8.8 0-16 7.2-16 16zM160 32l96 0c0-17.7-14.3-32-32-32L192 0c-17.7 0-32 14.3-32 32z"/><path class="fa-primary" style="fill:var(--fa-primary-color,inherit);opacity:var(--fa-primary-opacity,1);" d="M128 64c0-17.7 14.3-32 32-32l96 0c17.7 0 32 14.3 32 32l0 224c0 17.7-14.3 32-32 32c0 17.7-14.3 32-32 32l-32 0c-17.7 0-32-14.3-32-32c-17.7 0-32-14.3-32-32l0-224zM512 320c0 49.2-18.5 94-48.9 128l16.9 0c17.7 0 32 14.3 32 32s-14.3 32-32 32l-160 0L32 512c-17.7 0-32-14.3-32-32s14.3-32 32-32l288 0c70.7 0 128-57.3 128-128s-57.3-128-128-128l0-64c106 0 192 86 192 192z"/></svg>