<svg xmlns="http://www.w3.org/2000/svg" viewBox="0 0 640 512"><!--! Font Awesome Pro 6.6.0 by @fontawesome - https://fontawesome.com License - https://fontawesome.com/license (Commercial License) Copyright 2024 Fonticons, Inc. --><path class="fa-secondary" style="fill:var(--fa-secondary-color,inherit);opacity:var(--fa-secondary-opacity,.4);" d="M0 176L0 336c0 26.5 21.5 48 48 48l544 0c26.5 0 48-21.5 48-48l0-160c0-26.5-21.5-48-48-48l-64 0 0 80c0 8.8-7.2 16-16 16s-16-7.2-16-16l0-80-64 0 0 80c0 8.8-7.2 16-16 16s-16-7.2-16-16l0-80-64 0 0 80c0 8.8-7.2 16-16 16s-16-7.2-16-16l0-80-64 0 0 80c0 8.8-7.2 16-16 16s-16-7.2-16-16l0-80-64 0 0 80c0 8.8-7.2 16-16 16s-16-7.2-16-16l0-80-64 0c-26.5 0-48 21.5-48 48z"/><path class="fa-primary" style="fill:var(--fa-primary-color,inherit);opacity:var(--fa-primary-opacity,1);" d="M144 208l0-80-32 0 0 80c0 8.8 7.2 16 16 16s16-7.2 16-16zm96-80l-32 0 0 80c0 8.8 7.2 16 16 16s16-7.2 16-16l0-80zm96 80l0-80-32 0 0 80c0 8.8 7.2 16 16 16s16-7.2 16-16zm96-80l-32 0 0 80c0 8.8 7.2 16 16 16s16-7.2 16-16l0-80zm96 0l-32 0 0 80c0 8.8 7.2 16 16 16s16-7.2 16-16l0-80z"/></svg>