<svg xmlns="http://www.w3.org/2000/svg" viewBox="0 0 256 512"><!--! Font Awesome Pro 6.6.0 by @fontawesome - https://fontawesome.com License - https://fontawesome.com/license (Commercial License) Copyright 2024 Fonticons, Inc. --><path class="fa-secondary" style="fill:var(--fa-secondary-color,inherit);opacity:var(--fa-secondary-opacity,.4);" d="M0 48C0 21.5 21.5 0 48 0L208 0c26.5 0 48 21.5 48 48l0 48-80 0c-8.8 0-16 7.2-16 16s7.2 16 16 16l80 0 0 64-80 0c-8.8 0-16 7.2-16 16s7.2 16 16 16l80 0 0 64-80 0c-8.8 0-16 7.2-16 16s7.2 16 16 16l80 0 0 64-80 0c-8.8 0-16 7.2-16 16s7.2 16 16 16l80 0 0 48c0 26.5-21.5 48-48 48L48 512c-26.5 0-48-21.5-48-48L0 48z"/><path class="fa-primary" style="fill:var(--fa-primary-color,inherit);opacity:var(--fa-primary-opacity,1);" d="M176 96c-8.8 0-16 7.2-16 16s7.2 16 16 16l80 0 0-32-80 0zM160 208c0 8.8 7.2 16 16 16l80 0 0-32-80 0c-8.8 0-16 7.2-16 16zm16 80c-8.8 0-16 7.2-16 16s7.2 16 16 16l80 0 0-32-80 0zm0 96c-8.8 0-16 7.2-16 16s7.2 16 16 16l80 0 0-32-80 0z"/></svg>