<svg xmlns="http://www.w3.org/2000/svg" viewBox="0 0 448 512"><!--! Font Awesome Pro 6.6.0 by @fontawesome - https://fontawesome.com License - https://fontawesome.com/license (Commercial License) Copyright 2024 Fonticons, Inc. --><path class="fa-secondary" style="fill:var(--fa-secondary-color,inherit);opacity:var(--fa-secondary-opacity,.4);" d="M162.6 186.9c15.4 14.9 25.9 34.9 28.6 57.2l94.1-47c-15.4-14.9-25.9-34.9-28.6-57.2l-94.1 47zm0 138.2l94.1 47c2.8-22.4 13.2-42.4 28.6-57.2l-94.1-47c-2.8 22.4-13.2 42.4-28.6 57.2z"/><path class="fa-primary" style="fill:var(--fa-primary-color,inherit);opacity:var(--fa-primary-opacity,1);" d="M256 128a96 96 0 1 1 192 0 96 96 0 1 1 -192 0zM0 256a96 96 0 1 1 192 0A96 96 0 1 1 0 256zm352 32a96 96 0 1 1 0 192 96 96 0 1 1 0-192z"/></svg>