<svg xmlns="http://www.w3.org/2000/svg" viewBox="0 0 640 512"><!--! Font Awesome Pro 6.6.0 by @fontawesome - https://fontawesome.com License - https://fontawesome.com/license (Commercial License) Copyright 2024 Fonticons, Inc. --><path class="fa-secondary" style="fill:var(--fa-secondary-color,inherit);opacity:var(--fa-secondary-opacity,.4);" d="M0 32L0 192 0 448l0 32c0 17.7 14.3 32 32 32s32-14.3 32-32l512 0c0 17.7 14.3 32 32 32s32-14.3 32-32l0-32 0-256 0-160c0-17.7-14.3-32-32-32s-32 14.3-32 32l0 128L64 160 64 32C64 14.3 49.7 0 32 0S0 14.3 0 32zM64 224l512 0 0 192L64 416l0-192z"/><path class="fa-primary" style="fill:var(--fa-primary-color,inherit);opacity:var(--fa-primary-opacity,1);" d="M384 0c-17.7 0-32 14.3-32 32l0 64c0 17.7 14.3 32 32 32l64 0c17.7 0 32-14.3 32-32l0-64c0-17.7-14.3-32-32-32L384 0zM96 288l0 64c0 17.7 14.3 32 32 32l64 0c17.7 0 32-14.3 32-32l0-64c0-17.7-14.3-32-32-32l-64 0c-17.7 0-32 14.3-32 32zm160 0l0 64c0 17.7 14.3 32 32 32l64 0c17.7 0 32-14.3 32-32l0-64c0-17.7-14.3-32-32-32l-64 0c-17.7 0-32 14.3-32 32z"/></svg>