<svg xmlns="http://www.w3.org/2000/svg" viewBox="0 0 512 512"><!--! Font Awesome Pro 6.6.0 by @fontawesome - https://fontawesome.com License - https://fontawesome.com/license (Commercial License) Copyright 2024 Fonticons, Inc. --><path class="fa-secondary" style="fill:var(--fa-secondary-color,inherit);opacity:var(--fa-secondary-opacity,.4);" d="M0 96c0 17.7 14.3 32 32 32l32 0 0 352c0 17.7 14.3 32 32 32s32-14.3 32-32l0-352 352 0c17.7 0 32-14.3 32-32s-14.3-32-32-32L128 64l0-32c0-17.7-14.3-32-32-32S64 14.3 64 32l0 32L32 64C14.3 64 0 78.3 0 96z"/><path class="fa-primary" style="fill:var(--fa-primary-color,inherit);opacity:var(--fa-primary-opacity,1);" d="M192 160c-17.7 0-32 14.3-32 32l0 160c0 17.7 14.3 32 32 32l256 0c17.7 0 32-14.3 32-32l0-160c0-17.7-14.3-32-32-32l-256 0z"/></svg>