<svg xmlns="http://www.w3.org/2000/svg" viewBox="0 0 576 512"><!--! Font Awesome Pro 6.6.0 by @fontawesome - https://fontawesome.com License - https://fontawesome.com/license (Commercial License) Copyright 2024 Fonticons, Inc. --><path class="fa-secondary" style="fill:var(--fa-secondary-color,inherit);opacity:var(--fa-secondary-opacity,.4);" d="M64 32C64 14.3 78.3 0 96 0s32 14.3 32 32L64 32zm0 384l64 0 0 64c0 17.7-14.3 32-32 32s-32-14.3-32-32l0-64zM448 32c26.7 0 53.3 0 80 0c26.5 0 48 21.5 48 48l0 288c0 26.5-21.5 48-48 48l-16 0 0-384c0-17.7-14.3-32-32-32s-32 14.3-32 32zm0 384l64 0 0 64c0 17.7-14.3 32-32 32s-32-14.3-32-32l0-64z"/><path class="fa-primary" style="fill:var(--fa-primary-color,inherit);opacity:var(--fa-primary-opacity,1);" d="M0 80C0 53.5 21.5 32 48 32H528c26.5 0 48 21.5 48 48V368c0 26.5-21.5 48-48 48H48c-26.5 0-48-21.5-48-48V80z"/></svg>