<svg xmlns="http://www.w3.org/2000/svg" viewBox="0 0 448 512"><!--! Font Awesome Pro 6.6.0 by @fontawesome - https://fontawesome.com License - https://fontawesome.com/license (Commercial License) Copyright 2024 Fonticons, Inc. --><path class="fa-secondary" style="fill:var(--fa-secondary-color,inherit);opacity:var(--fa-secondary-opacity,.4);" d="M0 96L0 416c0 35.3 28.7 64 64 64l320 0c35.3 0 64-28.7 64-64l0-320c0-35.3-28.7-64-64-64L64 32C28.7 32 0 60.7 0 96zm112 72c0-13.3 10.7-24 24-24s24 10.7 24 24l0 120c0 35.3 28.7 64 64 64s64-28.7 64-64l0-120c0-13.3 10.7-24 24-24s24 10.7 24 24l0 120c0 61.9-50.1 112-112 112s-112-50.1-112-112l0-120z"/><path class="fa-primary" style="fill:var(--fa-primary-color,inherit);opacity:var(--fa-primary-opacity,1);" d="M136 144c13.3 0 24 10.7 24 24l0 120c0 35.3 28.7 64 64 64s64-28.7 64-64l0-120c0-13.3 10.7-24 24-24s24 10.7 24 24l0 120c0 61.9-50.1 112-112 112s-112-50.1-112-112l0-120c0-13.3 10.7-24 24-24z"/></svg>