<svg xmlns="http://www.w3.org/2000/svg" viewBox="0 0 512 512"><!--! Font Awesome Pro 6.6.0 by @fontawesome - https://fontawesome.com License - https://fontawesome.com/license (Commercial License) Copyright 2024 Fonticons, Inc. --><path class="fa-secondary" style="fill:var(--fa-secondary-color,inherit);opacity:var(--fa-secondary-opacity,.4);" d="M64 160l0 64 80 0 0 64-80 0 0 64 80 0 0 64 64 0 0-64 96 0 0 64 64 0 0-64 80 0 0-64-80 0 0-64 80 0 0-64-80 0 0-64-64 0 0 64-96 0 0-64-64 0 0 64-80 0zm144 64l96 0 0 64-96 0 0-64z"/><path class="fa-primary" style="fill:var(--fa-primary-color,inherit);opacity:var(--fa-primary-opacity,1);" d="M64 32C28.7 32 0 60.7 0 96L0 416c0 35.3 28.7 64 64 64l384 0c35.3 0 64-28.7 64-64l0-320c0-35.3-28.7-64-64-64L64 32zM448 96l0 320L64 416 64 96l384 0z"/></svg>