<svg xmlns="http://www.w3.org/2000/svg" viewBox="0 0 640 512"><!--! Font Awesome Pro 6.6.0 by @fontawesome - https://fontawesome.com License - https://fontawesome.com/license (Commercial License) Copyright 2024 Fonticons, Inc. --><path class="fa-secondary" style="fill:var(--fa-secondary-color,inherit);opacity:var(--fa-secondary-opacity,.4);" d="M96 224l0 64c0 17.7 14.3 32 32 32s32-14.3 32-32l0-64c0-17.7-14.3-32-32-32s-32 14.3-32 32zM288 32l0 448c0 17.7 14.3 32 32 32s32-14.3 32-32l0-448c0-17.7-14.3-32-32-32s-32 14.3-32 32zM480 96l0 320c0 17.7 14.3 32 32 32s32-14.3 32-32l0-320c0-17.7-14.3-32-32-32s-32 14.3-32 32z"/><path class="fa-primary" style="fill:var(--fa-primary-color,inherit);opacity:var(--fa-primary-opacity,1);" d="M256 128c0-17.7-14.3-32-32-32s-32 14.3-32 32l0 256c0 17.7 14.3 32 32 32s32-14.3 32-32l0-256zm192 32c0-17.7-14.3-32-32-32s-32 14.3-32 32l0 192c0 17.7 14.3 32 32 32s32-14.3 32-32l0-192zM0 256a32 32 0 1 0 64 0A32 32 0 1 0 0 256zm576 0a32 32 0 1 0 64 0 32 32 0 1 0 -64 0z"/></svg>